<?xml version="1.0" encoding="UTF-8" standalone="no"?>
<!DOCTYPE svg PUBLIC "-//W3C//DTD SVG 1.1//EN"
 "http://www.w3.org/Graphics/SVG/1.1/DTD/svg11.dtd">
<!-- Generated by graphviz version 2.43.0 (0)
 -->
<!-- Title: snakemake_dag Pages: 1 -->
<svg width="1407pt" height="414pt"
 viewBox="0.00 0.00 1407.02 414.00" xmlns="http://www.w3.org/2000/svg" xmlns:xlink="http://www.w3.org/1999/xlink">
<g id="graph0" class="graph" transform="scale(1 1) rotate(0) translate(4 410)">
<title>snakemake_dag</title>
<polygon fill="white" stroke="transparent" points="-4,4 -4,-410 1403.02,-410 1403.02,4 -4,4"/>
<!-- 0 -->
<g id="node1" class="node">
<title>0</title>
<path fill="none" stroke="#56c9d8" stroke-width="2" d="M1182.02,-36C1182.02,-36 1152.02,-36 1152.02,-36 1146.02,-36 1140.02,-30 1140.02,-24 1140.02,-24 1140.02,-12 1140.02,-12 1140.02,-6 1146.02,0 1152.02,0 1152.02,0 1182.02,0 1182.02,0 1188.02,0 1194.02,-6 1194.02,-12 1194.02,-12 1194.02,-24 1194.02,-24 1194.02,-30 1188.02,-36 1182.02,-36"/>
<text text-anchor="middle" x="1167.02" y="-15.5" font-family="sans" font-size="10.00">all</text>
</g>
<!-- 1 -->
<g id="node2" class="node">
<title>1</title>
<path fill="none" stroke="#afd856" stroke-width="2" d="M536.52,-257C536.52,-257 463.52,-257 463.52,-257 457.52,-257 451.52,-251 451.52,-245 451.52,-245 451.52,-233 451.52,-233 451.52,-227 457.52,-221 463.52,-221 463.52,-221 536.52,-221 536.52,-221 542.52,-221 548.52,-227 548.52,-233 548.52,-233 548.52,-245 548.52,-245 548.52,-251 542.52,-257 536.52,-257"/>
<text text-anchor="middle" x="500.02" y="-242" font-family="sans" font-size="10.00">multiqc</text>
<text text-anchor="middle" x="500.02" y="-231" font-family="sans" font-size="10.00">input_dir: QC/raw</text>
</g>
<!-- 1&#45;&gt;0 -->
<g id="edge1" class="edge">
<title>1&#45;&gt;0</title>
<path fill="none" stroke="grey" stroke-width="2" d="M451.13,-226.11C442.15,-224.2 432.83,-222.39 424.02,-221 381.58,-214.3 67.95,-216.76 39.02,-185 26.75,-171.53 27.05,-157.74 39.02,-144 112.46,-59.71 942.35,-26.63 1129.62,-20.21"/>
<polygon fill="grey" stroke="grey" stroke-width="2" points="1129.92,-23.7 1139.79,-19.86 1129.68,-16.7 1129.92,-23.7"/>
</g>
<!-- 2 -->
<g id="node3" class="node">
<title>2</title>
<path fill="none" stroke="#d8cb56" stroke-width="2" d="M116.02,-334C116.02,-334 28.02,-334 28.02,-334 22.02,-334 16.02,-328 16.02,-322 16.02,-322 16.02,-305 16.02,-305 16.02,-299 22.02,-293 28.02,-293 28.02,-293 116.02,-293 116.02,-293 122.02,-293 128.02,-299 128.02,-305 128.02,-305 128.02,-322 128.02,-322 128.02,-328 122.02,-334 116.02,-334"/>
<text text-anchor="middle" x="72.02" y="-322" font-family="sans" font-size="10.00">fastqc</text>
<text text-anchor="middle" x="72.02" y="-311" font-family="sans" font-size="10.00">acc: SRR11647652_1</text>
<text text-anchor="middle" x="72.02" y="-300" font-family="sans" font-size="10.00">out_dir: QC/raw</text>
</g>
<!-- 2&#45;&gt;1 -->
<g id="edge7" class="edge">
<title>2&#45;&gt;1</title>
<path fill="none" stroke="grey" stroke-width="2" d="M128.24,-295.01C131.2,-294.28 134.14,-293.61 137.02,-293 262.8,-266.44 297.37,-279.06 424.02,-257 429.74,-256 435.67,-254.86 441.59,-253.66"/>
<polygon fill="grey" stroke="grey" stroke-width="2" points="442.44,-257.06 451.5,-251.57 441,-250.21 442.44,-257.06"/>
</g>
<!-- 16 -->
<g id="node17" class="node">
<title>16</title>
<path fill="none" stroke="#5692d8" stroke-width="2" d="M168.02,-257C168.02,-257 138.02,-257 138.02,-257 132.02,-257 126.02,-251 126.02,-245 126.02,-245 126.02,-233 126.02,-233 126.02,-227 132.02,-221 138.02,-221 138.02,-221 168.02,-221 168.02,-221 174.02,-221 180.02,-227 180.02,-233 180.02,-233 180.02,-245 180.02,-245 180.02,-251 174.02,-257 168.02,-257"/>
<text text-anchor="middle" x="153.02" y="-236.5" font-family="sans" font-size="10.00">trim</text>
</g>
<!-- 2&#45;&gt;16 -->
<g id="edge33" class="edge">
<title>2&#45;&gt;16</title>
<path fill="none" stroke="grey" stroke-width="2" d="M94.15,-292.69C104.08,-283.8 115.88,-273.24 126.29,-263.92"/>
<polygon fill="grey" stroke="grey" stroke-width="2" points="128.82,-266.36 133.94,-257.08 124.15,-261.14 128.82,-266.36"/>
</g>
<!-- 3 -->
<g id="node4" class="node">
<title>3</title>
<path fill="none" stroke="#d88d56" stroke-width="2" d="M110.52,-406C110.52,-406 33.52,-406 33.52,-406 27.52,-406 21.52,-400 21.52,-394 21.52,-394 21.52,-382 21.52,-382 21.52,-376 27.52,-370 33.52,-370 33.52,-370 110.52,-370 110.52,-370 116.52,-370 122.52,-376 122.52,-382 122.52,-382 122.52,-394 122.52,-394 122.52,-400 116.52,-406 110.52,-406"/>
<text text-anchor="middle" x="72.02" y="-391" font-family="sans" font-size="10.00">get_data</text>
<text text-anchor="middle" x="72.02" y="-380" font-family="sans" font-size="10.00">acc: SRR11647652</text>
</g>
<!-- 3&#45;&gt;2 -->
<g id="edge15" class="edge">
<title>3&#45;&gt;2</title>
<path fill="none" stroke="grey" stroke-width="2" d="M72.02,-369.82C72.02,-362.2 72.02,-353 72.02,-344.32"/>
<polygon fill="grey" stroke="grey" stroke-width="2" points="75.52,-344.12 72.02,-334.12 68.52,-344.12 75.52,-344.12"/>
</g>
<!-- 4 -->
<g id="node5" class="node">
<title>4</title>
<path fill="none" stroke="#d8cb56" stroke-width="2" d="M246.02,-334C246.02,-334 158.02,-334 158.02,-334 152.02,-334 146.02,-328 146.02,-322 146.02,-322 146.02,-305 146.02,-305 146.02,-299 152.02,-293 158.02,-293 158.02,-293 246.02,-293 246.02,-293 252.02,-293 258.02,-299 258.02,-305 258.02,-305 258.02,-322 258.02,-322 258.02,-328 252.02,-334 246.02,-334"/>
<text text-anchor="middle" x="202.02" y="-322" font-family="sans" font-size="10.00">fastqc</text>
<text text-anchor="middle" x="202.02" y="-311" font-family="sans" font-size="10.00">acc: SRR11647652_2</text>
<text text-anchor="middle" x="202.02" y="-300" font-family="sans" font-size="10.00">out_dir: QC/raw</text>
</g>
<!-- 3&#45;&gt;4 -->
<g id="edge16" class="edge">
<title>3&#45;&gt;4</title>
<path fill="none" stroke="grey" stroke-width="2" d="M102.83,-369.82C119.19,-360.69 139.61,-349.31 157.65,-339.24"/>
<polygon fill="grey" stroke="grey" stroke-width="2" points="159.81,-342.05 166.84,-334.12 156.4,-335.93 159.81,-342.05"/>
</g>
<!-- 3&#45;&gt;16 -->
<g id="edge32" class="edge">
<title>3&#45;&gt;16</title>
<path fill="none" stroke="grey" stroke-width="2" d="M40.44,-369.78C27.57,-360.93 14.08,-348.86 7.02,-334 -0.8,-317.54 -3.44,-307.92 7.02,-293 31.42,-258.18 81.16,-246.15 115.76,-242.04"/>
<polygon fill="grey" stroke="grey" stroke-width="2" points="116.37,-245.5 125.96,-241 115.66,-238.53 116.37,-245.5"/>
</g>
<!-- 4&#45;&gt;1 -->
<g id="edge8" class="edge">
<title>4&#45;&gt;1</title>
<path fill="none" stroke="grey" stroke-width="2" d="M258.07,-298.86C310.34,-286.15 388.02,-267.25 441.17,-254.32"/>
<polygon fill="grey" stroke="grey" stroke-width="2" points="442.24,-257.66 451.13,-251.89 440.58,-250.86 442.24,-257.66"/>
</g>
<!-- 4&#45;&gt;16 -->
<g id="edge34" class="edge">
<title>4&#45;&gt;16</title>
<path fill="none" stroke="grey" stroke-width="2" d="M188.63,-292.69C183.02,-284.39 176.42,-274.63 170.44,-265.78"/>
<polygon fill="grey" stroke="grey" stroke-width="2" points="173.22,-263.64 164.72,-257.32 167.42,-267.56 173.22,-263.64"/>
</g>
<!-- 5 -->
<g id="node6" class="node">
<title>5</title>
<path fill="none" stroke="#d8cb56" stroke-width="2" d="M414.02,-334C414.02,-334 326.02,-334 326.02,-334 320.02,-334 314.02,-328 314.02,-322 314.02,-322 314.02,-305 314.02,-305 314.02,-299 320.02,-293 326.02,-293 326.02,-293 414.02,-293 414.02,-293 420.02,-293 426.02,-299 426.02,-305 426.02,-305 426.02,-322 426.02,-322 426.02,-328 420.02,-334 414.02,-334"/>
<text text-anchor="middle" x="370.02" y="-322" font-family="sans" font-size="10.00">fastqc</text>
<text text-anchor="middle" x="370.02" y="-311" font-family="sans" font-size="10.00">acc: SRR11647654_1</text>
<text text-anchor="middle" x="370.02" y="-300" font-family="sans" font-size="10.00">out_dir: QC/raw</text>
</g>
<!-- 5&#45;&gt;1 -->
<g id="edge9" class="edge">
<title>5&#45;&gt;1</title>
<path fill="none" stroke="grey" stroke-width="2" d="M405.2,-292.88C422.23,-283.38 442.75,-271.94 460.34,-262.13"/>
<polygon fill="grey" stroke="grey" stroke-width="2" points="462.21,-265.09 469.24,-257.17 458.8,-258.98 462.21,-265.09"/>
</g>
<!-- 19 -->
<g id="node20" class="node">
<title>19</title>
<path fill="none" stroke="#5692d8" stroke-width="2" d="M403.02,-257C403.02,-257 373.02,-257 373.02,-257 367.02,-257 361.02,-251 361.02,-245 361.02,-245 361.02,-233 361.02,-233 361.02,-227 367.02,-221 373.02,-221 373.02,-221 403.02,-221 403.02,-221 409.02,-221 415.02,-227 415.02,-233 415.02,-233 415.02,-245 415.02,-245 415.02,-251 409.02,-257 403.02,-257"/>
<text text-anchor="middle" x="388.02" y="-236.5" font-family="sans" font-size="10.00">trim</text>
</g>
<!-- 5&#45;&gt;19 -->
<g id="edge38" class="edge">
<title>5&#45;&gt;19</title>
<path fill="none" stroke="grey" stroke-width="2" d="M374.94,-292.69C376.89,-284.82 379.17,-275.64 381.27,-267.17"/>
<polygon fill="grey" stroke="grey" stroke-width="2" points="384.71,-267.87 383.72,-257.32 377.91,-266.18 384.71,-267.87"/>
</g>
<!-- 6 -->
<g id="node7" class="node">
<title>6</title>
<path fill="none" stroke="#d88d56" stroke-width="2" d="M408.52,-406C408.52,-406 331.52,-406 331.52,-406 325.52,-406 319.52,-400 319.52,-394 319.52,-394 319.52,-382 319.52,-382 319.52,-376 325.52,-370 331.52,-370 331.52,-370 408.52,-370 408.52,-370 414.52,-370 420.52,-376 420.52,-382 420.52,-382 420.52,-394 420.52,-394 420.52,-400 414.52,-406 408.52,-406"/>
<text text-anchor="middle" x="370.02" y="-391" font-family="sans" font-size="10.00">get_data</text>
<text text-anchor="middle" x="370.02" y="-380" font-family="sans" font-size="10.00">acc: SRR11647654</text>
</g>
<!-- 6&#45;&gt;5 -->
<g id="edge17" class="edge">
<title>6&#45;&gt;5</title>
<path fill="none" stroke="grey" stroke-width="2" d="M370.02,-369.82C370.02,-362.2 370.02,-353 370.02,-344.32"/>
<polygon fill="grey" stroke="grey" stroke-width="2" points="373.52,-344.12 370.02,-334.12 366.52,-344.12 373.52,-344.12"/>
</g>
<!-- 7 -->
<g id="node8" class="node">
<title>7</title>
<path fill="none" stroke="#d8cb56" stroke-width="2" d="M544.02,-334C544.02,-334 456.02,-334 456.02,-334 450.02,-334 444.02,-328 444.02,-322 444.02,-322 444.02,-305 444.02,-305 444.02,-299 450.02,-293 456.02,-293 456.02,-293 544.02,-293 544.02,-293 550.02,-293 556.02,-299 556.02,-305 556.02,-305 556.02,-322 556.02,-322 556.02,-328 550.02,-334 544.02,-334"/>
<text text-anchor="middle" x="500.02" y="-322" font-family="sans" font-size="10.00">fastqc</text>
<text text-anchor="middle" x="500.02" y="-311" font-family="sans" font-size="10.00">acc: SRR11647654_2</text>
<text text-anchor="middle" x="500.02" y="-300" font-family="sans" font-size="10.00">out_dir: QC/raw</text>
</g>
<!-- 6&#45;&gt;7 -->
<g id="edge18" class="edge">
<title>6&#45;&gt;7</title>
<path fill="none" stroke="grey" stroke-width="2" d="M400.83,-369.82C417.19,-360.69 437.61,-349.31 455.65,-339.24"/>
<polygon fill="grey" stroke="grey" stroke-width="2" points="457.81,-342.05 464.84,-334.12 454.4,-335.93 457.81,-342.05"/>
</g>
<!-- 6&#45;&gt;19 -->
<g id="edge37" class="edge">
<title>6&#45;&gt;19</title>
<path fill="none" stroke="grey" stroke-width="2" d="M338.44,-369.78C325.57,-360.93 312.08,-348.86 305.02,-334 297.2,-317.54 296.26,-308.98 305.02,-293 314.93,-274.91 333.94,-262.1 351.26,-253.61"/>
<polygon fill="grey" stroke="grey" stroke-width="2" points="353,-256.66 360.65,-249.33 350.1,-250.29 353,-256.66"/>
</g>
<!-- 7&#45;&gt;1 -->
<g id="edge10" class="edge">
<title>7&#45;&gt;1</title>
<path fill="none" stroke="grey" stroke-width="2" d="M500.02,-292.69C500.02,-284.91 500.02,-275.84 500.02,-267.45"/>
<polygon fill="grey" stroke="grey" stroke-width="2" points="503.52,-267.32 500.02,-257.32 496.52,-267.32 503.52,-267.32"/>
</g>
<!-- 7&#45;&gt;19 -->
<g id="edge39" class="edge">
<title>7&#45;&gt;19</title>
<path fill="none" stroke="grey" stroke-width="2" d="M469.71,-292.88C455.3,-283.56 438,-272.36 423.04,-262.67"/>
<polygon fill="grey" stroke="grey" stroke-width="2" points="424.83,-259.66 414.54,-257.17 421.03,-265.54 424.83,-259.66"/>
</g>
<!-- 8 -->
<g id="node9" class="node">
<title>8</title>
<path fill="none" stroke="#d8cb56" stroke-width="2" d="M674.02,-334C674.02,-334 586.02,-334 586.02,-334 580.02,-334 574.02,-328 574.02,-322 574.02,-322 574.02,-305 574.02,-305 574.02,-299 580.02,-293 586.02,-293 586.02,-293 674.02,-293 674.02,-293 680.02,-293 686.02,-299 686.02,-305 686.02,-305 686.02,-322 686.02,-322 686.02,-328 680.02,-334 674.02,-334"/>
<text text-anchor="middle" x="630.02" y="-322" font-family="sans" font-size="10.00">fastqc</text>
<text text-anchor="middle" x="630.02" y="-311" font-family="sans" font-size="10.00">acc: SRR11647662_1</text>
<text text-anchor="middle" x="630.02" y="-300" font-family="sans" font-size="10.00">out_dir: QC/raw</text>
</g>
<!-- 8&#45;&gt;1 -->
<g id="edge11" class="edge">
<title>8&#45;&gt;1</title>
<path fill="none" stroke="grey" stroke-width="2" d="M594.84,-292.88C577.81,-283.38 557.28,-271.94 539.7,-262.13"/>
<polygon fill="grey" stroke="grey" stroke-width="2" points="541.24,-258.98 530.8,-257.17 537.83,-265.09 541.24,-258.98"/>
</g>
<!-- 22 -->
<g id="node23" class="node">
<title>22</title>
<path fill="none" stroke="#5692d8" stroke-width="2" d="M775.02,-257C775.02,-257 745.02,-257 745.02,-257 739.02,-257 733.02,-251 733.02,-245 733.02,-245 733.02,-233 733.02,-233 733.02,-227 739.02,-221 745.02,-221 745.02,-221 775.02,-221 775.02,-221 781.02,-221 787.02,-227 787.02,-233 787.02,-233 787.02,-245 787.02,-245 787.02,-251 781.02,-257 775.02,-257"/>
<text text-anchor="middle" x="760.02" y="-236.5" font-family="sans" font-size="10.00">trim</text>
</g>
<!-- 8&#45;&gt;22 -->
<g id="edge43" class="edge">
<title>8&#45;&gt;22</title>
<path fill="none" stroke="grey" stroke-width="2" d="M665.2,-292.88C683.34,-282.76 705.43,-270.44 723.73,-260.24"/>
<polygon fill="grey" stroke="grey" stroke-width="2" points="725.61,-263.19 732.64,-255.27 722.21,-257.08 725.61,-263.19"/>
</g>
<!-- 9 -->
<g id="node10" class="node">
<title>9</title>
<path fill="none" stroke="#d88d56" stroke-width="2" d="M798.52,-406C798.52,-406 721.52,-406 721.52,-406 715.52,-406 709.52,-400 709.52,-394 709.52,-394 709.52,-382 709.52,-382 709.52,-376 715.52,-370 721.52,-370 721.52,-370 798.52,-370 798.52,-370 804.52,-370 810.52,-376 810.52,-382 810.52,-382 810.52,-394 810.52,-394 810.52,-400 804.52,-406 798.52,-406"/>
<text text-anchor="middle" x="760.02" y="-391" font-family="sans" font-size="10.00">get_data</text>
<text text-anchor="middle" x="760.02" y="-380" font-family="sans" font-size="10.00">acc: SRR11647662</text>
</g>
<!-- 9&#45;&gt;8 -->
<g id="edge19" class="edge">
<title>9&#45;&gt;8</title>
<path fill="none" stroke="grey" stroke-width="2" d="M729.21,-369.82C712.84,-360.69 692.43,-349.31 674.38,-339.24"/>
<polygon fill="grey" stroke="grey" stroke-width="2" points="675.64,-335.93 665.2,-334.12 672.23,-342.05 675.64,-335.93"/>
</g>
<!-- 10 -->
<g id="node11" class="node">
<title>10</title>
<path fill="none" stroke="#d8cb56" stroke-width="2" d="M804.02,-334C804.02,-334 716.02,-334 716.02,-334 710.02,-334 704.02,-328 704.02,-322 704.02,-322 704.02,-305 704.02,-305 704.02,-299 710.02,-293 716.02,-293 716.02,-293 804.02,-293 804.02,-293 810.02,-293 816.02,-299 816.02,-305 816.02,-305 816.02,-322 816.02,-322 816.02,-328 810.02,-334 804.02,-334"/>
<text text-anchor="middle" x="760.02" y="-322" font-family="sans" font-size="10.00">fastqc</text>
<text text-anchor="middle" x="760.02" y="-311" font-family="sans" font-size="10.00">acc: SRR11647662_2</text>
<text text-anchor="middle" x="760.02" y="-300" font-family="sans" font-size="10.00">out_dir: QC/raw</text>
</g>
<!-- 9&#45;&gt;10 -->
<g id="edge20" class="edge">
<title>9&#45;&gt;10</title>
<path fill="none" stroke="grey" stroke-width="2" d="M760.02,-369.82C760.02,-362.2 760.02,-353 760.02,-344.32"/>
<polygon fill="grey" stroke="grey" stroke-width="2" points="763.52,-344.12 760.02,-334.12 756.52,-344.12 763.52,-344.12"/>
</g>
<!-- 9&#45;&gt;22 -->
<g id="edge42" class="edge">
<title>9&#45;&gt;22</title>
<path fill="none" stroke="grey" stroke-width="2" d="M791.6,-369.78C804.47,-360.93 817.96,-348.86 825.02,-334 832.84,-317.54 832.84,-309.46 825.02,-293 818.69,-279.66 807.17,-268.58 795.58,-260.05"/>
<polygon fill="grey" stroke="grey" stroke-width="2" points="797.42,-257.07 787.19,-254.3 793.46,-262.84 797.42,-257.07"/>
</g>
<!-- 10&#45;&gt;1 -->
<g id="edge12" class="edge">
<title>10&#45;&gt;1</title>
<path fill="none" stroke="grey" stroke-width="2" d="M703.67,-295.5C700.75,-294.65 697.85,-293.81 695.02,-293 649.35,-279.94 597.44,-265.87 558.66,-255.51"/>
<polygon fill="grey" stroke="grey" stroke-width="2" points="559.16,-252.02 548.6,-252.83 557.36,-258.79 559.16,-252.02"/>
</g>
<!-- 10&#45;&gt;22 -->
<g id="edge44" class="edge">
<title>10&#45;&gt;22</title>
<path fill="none" stroke="grey" stroke-width="2" d="M760.02,-292.69C760.02,-284.91 760.02,-275.84 760.02,-267.45"/>
<polygon fill="grey" stroke="grey" stroke-width="2" points="763.52,-267.32 760.02,-257.32 756.52,-267.32 763.52,-267.32"/>
</g>
<!-- 11 -->
<g id="node12" class="node">
<title>11</title>
<path fill="none" stroke="#d8cb56" stroke-width="2" d="M972.02,-334C972.02,-334 884.02,-334 884.02,-334 878.02,-334 872.02,-328 872.02,-322 872.02,-322 872.02,-305 872.02,-305 872.02,-299 878.02,-293 884.02,-293 884.02,-293 972.02,-293 972.02,-293 978.02,-293 984.02,-299 984.02,-305 984.02,-305 984.02,-322 984.02,-322 984.02,-328 978.02,-334 972.02,-334"/>
<text text-anchor="middle" x="928.02" y="-322" font-family="sans" font-size="10.00">fastqc</text>
<text text-anchor="middle" x="928.02" y="-311" font-family="sans" font-size="10.00">acc: SRR11647664_1</text>
<text text-anchor="middle" x="928.02" y="-300" font-family="sans" font-size="10.00">out_dir: QC/raw</text>
</g>
<!-- 11&#45;&gt;1 -->
<g id="edge13" class="edge">
<title>11&#45;&gt;1</title>
<path fill="none" stroke="grey" stroke-width="2" d="M871.94,-301.61C856.73,-298.74 840.25,-295.68 825.02,-293 732.03,-276.62 623.75,-259.31 558.61,-249.1"/>
<polygon fill="grey" stroke="grey" stroke-width="2" points="558.96,-245.61 548.54,-247.52 557.88,-252.52 558.96,-245.61"/>
</g>
<!-- 25 -->
<g id="node26" class="node">
<title>25</title>
<path fill="none" stroke="#5692d8" stroke-width="2" d="M1055.02,-257C1055.02,-257 1025.02,-257 1025.02,-257 1019.02,-257 1013.02,-251 1013.02,-245 1013.02,-245 1013.02,-233 1013.02,-233 1013.02,-227 1019.02,-221 1025.02,-221 1025.02,-221 1055.02,-221 1055.02,-221 1061.02,-221 1067.02,-227 1067.02,-233 1067.02,-233 1067.02,-245 1067.02,-245 1067.02,-251 1061.02,-257 1055.02,-257"/>
<text text-anchor="middle" x="1040.02" y="-236.5" font-family="sans" font-size="10.00">trim</text>
</g>
<!-- 11&#45;&gt;25 -->
<g id="edge48" class="edge">
<title>11&#45;&gt;25</title>
<path fill="none" stroke="grey" stroke-width="2" d="M958.33,-292.88C972.73,-283.56 990.03,-272.36 1005,-262.67"/>
<polygon fill="grey" stroke="grey" stroke-width="2" points="1007.01,-265.54 1013.5,-257.17 1003.2,-259.66 1007.01,-265.54"/>
</g>
<!-- 12 -->
<g id="node13" class="node">
<title>12</title>
<path fill="none" stroke="#d88d56" stroke-width="2" d="M1096.52,-406C1096.52,-406 1019.52,-406 1019.52,-406 1013.52,-406 1007.52,-400 1007.52,-394 1007.52,-394 1007.52,-382 1007.52,-382 1007.52,-376 1013.52,-370 1019.52,-370 1019.52,-370 1096.52,-370 1096.52,-370 1102.52,-370 1108.52,-376 1108.52,-382 1108.52,-382 1108.52,-394 1108.52,-394 1108.52,-400 1102.52,-406 1096.52,-406"/>
<text text-anchor="middle" x="1058.02" y="-391" font-family="sans" font-size="10.00">get_data</text>
<text text-anchor="middle" x="1058.02" y="-380" font-family="sans" font-size="10.00">acc: SRR11647664</text>
</g>
<!-- 12&#45;&gt;11 -->
<g id="edge21" class="edge">
<title>12&#45;&gt;11</title>
<path fill="none" stroke="grey" stroke-width="2" d="M1027.21,-369.82C1010.84,-360.69 990.43,-349.31 972.38,-339.24"/>
<polygon fill="grey" stroke="grey" stroke-width="2" points="973.64,-335.93 963.2,-334.12 970.23,-342.05 973.64,-335.93"/>
</g>
<!-- 13 -->
<g id="node14" class="node">
<title>13</title>
<path fill="none" stroke="#d8cb56" stroke-width="2" d="M1102.02,-334C1102.02,-334 1014.02,-334 1014.02,-334 1008.02,-334 1002.02,-328 1002.02,-322 1002.02,-322 1002.02,-305 1002.02,-305 1002.02,-299 1008.02,-293 1014.02,-293 1014.02,-293 1102.02,-293 1102.02,-293 1108.02,-293 1114.02,-299 1114.02,-305 1114.02,-305 1114.02,-322 1114.02,-322 1114.02,-328 1108.02,-334 1102.02,-334"/>
<text text-anchor="middle" x="1058.02" y="-322" font-family="sans" font-size="10.00">fastqc</text>
<text text-anchor="middle" x="1058.02" y="-311" font-family="sans" font-size="10.00">acc: SRR11647664_2</text>
<text text-anchor="middle" x="1058.02" y="-300" font-family="sans" font-size="10.00">out_dir: QC/raw</text>
</g>
<!-- 12&#45;&gt;13 -->
<g id="edge22" class="edge">
<title>12&#45;&gt;13</title>
<path fill="none" stroke="grey" stroke-width="2" d="M1058.02,-369.82C1058.02,-362.2 1058.02,-353 1058.02,-344.32"/>
<polygon fill="grey" stroke="grey" stroke-width="2" points="1061.52,-344.12 1058.02,-334.12 1054.52,-344.12 1061.52,-344.12"/>
</g>
<!-- 12&#45;&gt;25 -->
<g id="edge47" class="edge">
<title>12&#45;&gt;25</title>
<path fill="none" stroke="grey" stroke-width="2" d="M1089.6,-369.78C1102.47,-360.93 1115.96,-348.86 1123.02,-334 1130.84,-317.54 1131.77,-308.98 1123.02,-293 1113.11,-274.91 1094.1,-262.1 1076.77,-253.61"/>
<polygon fill="grey" stroke="grey" stroke-width="2" points="1077.94,-250.29 1067.39,-249.33 1075.04,-256.66 1077.94,-250.29"/>
</g>
<!-- 13&#45;&gt;1 -->
<g id="edge14" class="edge">
<title>13&#45;&gt;1</title>
<path fill="none" stroke="grey" stroke-width="2" d="M1001.81,-294.95C998.85,-294.24 995.91,-293.58 993.02,-293 911.3,-276.5 670.99,-254.62 558.87,-244.96"/>
<polygon fill="grey" stroke="grey" stroke-width="2" points="559.02,-241.46 548.76,-244.09 558.42,-248.43 559.02,-241.46"/>
</g>
<!-- 13&#45;&gt;25 -->
<g id="edge49" class="edge">
<title>13&#45;&gt;25</title>
<path fill="none" stroke="grey" stroke-width="2" d="M1053.1,-292.69C1051.15,-284.82 1048.87,-275.64 1046.76,-267.17"/>
<polygon fill="grey" stroke="grey" stroke-width="2" points="1050.12,-266.18 1044.32,-257.32 1043.33,-267.87 1050.12,-266.18"/>
</g>
<!-- 14 -->
<g id="node15" class="node">
<title>14</title>
<path fill="none" stroke="#afd856" stroke-width="2" d="M677.52,-108C677.52,-108 580.52,-108 580.52,-108 574.52,-108 568.52,-102 568.52,-96 568.52,-96 568.52,-84 568.52,-84 568.52,-78 574.52,-72 580.52,-72 580.52,-72 677.52,-72 677.52,-72 683.52,-72 689.52,-78 689.52,-84 689.52,-84 689.52,-96 689.52,-96 689.52,-102 683.52,-108 677.52,-108"/>
<text text-anchor="middle" x="629.02" y="-93" font-family="sans" font-size="10.00">multiqc</text>
<text text-anchor="middle" x="629.02" y="-82" font-family="sans" font-size="10.00">input_dir: QC/trimmed</text>
</g>
<!-- 14&#45;&gt;0 -->
<g id="edge2" class="edge">
<title>14&#45;&gt;0</title>
<path fill="none" stroke="grey" stroke-width="2" d="M689.69,-81.11C801.77,-66.52 1038.17,-35.76 1129.71,-23.85"/>
<polygon fill="grey" stroke="grey" stroke-width="2" points="1130.42,-27.29 1139.89,-22.53 1129.52,-20.35 1130.42,-27.29"/>
</g>
<!-- 15 -->
<g id="node16" class="node">
<title>15</title>
<path fill="none" stroke="#d8cb56" stroke-width="2" d="M149.52,-185C149.52,-185 60.52,-185 60.52,-185 54.52,-185 48.52,-179 48.52,-173 48.52,-173 48.52,-156 48.52,-156 48.52,-150 54.52,-144 60.52,-144 60.52,-144 149.52,-144 149.52,-144 155.52,-144 161.52,-150 161.52,-156 161.52,-156 161.52,-173 161.52,-173 161.52,-179 155.52,-185 149.52,-185"/>
<text text-anchor="middle" x="105.02" y="-173" font-family="sans" font-size="10.00">fastqc</text>
<text text-anchor="middle" x="105.02" y="-162" font-family="sans" font-size="10.00">acc: SRR11647652_1</text>
<text text-anchor="middle" x="105.02" y="-151" font-family="sans" font-size="10.00">out_dir: QC/trimmed</text>
</g>
<!-- 15&#45;&gt;14 -->
<g id="edge23" class="edge">
<title>15&#45;&gt;14</title>
<path fill="none" stroke="grey" stroke-width="2" d="M161.59,-145.89C164.43,-145.21 167.25,-144.57 170.02,-144 305.81,-116.02 467.47,-101.66 558.17,-95.29"/>
<polygon fill="grey" stroke="grey" stroke-width="2" points="558.6,-98.77 568.33,-94.59 558.11,-91.78 558.6,-98.77"/>
</g>
<!-- 16&#45;&gt;15 -->
<g id="edge31" class="edge">
<title>16&#45;&gt;15</title>
<path fill="none" stroke="grey" stroke-width="2" d="M141.64,-220.82C136.26,-212.7 129.7,-202.79 123.63,-193.61"/>
<polygon fill="grey" stroke="grey" stroke-width="2" points="126.45,-191.53 118.01,-185.12 120.61,-195.39 126.45,-191.53"/>
</g>
<!-- 17 -->
<g id="node18" class="node">
<title>17</title>
<path fill="none" stroke="#d8cb56" stroke-width="2" d="M280.52,-185C280.52,-185 191.52,-185 191.52,-185 185.52,-185 179.52,-179 179.52,-173 179.52,-173 179.52,-156 179.52,-156 179.52,-150 185.52,-144 191.52,-144 191.52,-144 280.52,-144 280.52,-144 286.52,-144 292.52,-150 292.52,-156 292.52,-156 292.52,-173 292.52,-173 292.52,-179 286.52,-185 280.52,-185"/>
<text text-anchor="middle" x="236.02" y="-173" font-family="sans" font-size="10.00">fastqc</text>
<text text-anchor="middle" x="236.02" y="-162" font-family="sans" font-size="10.00">acc: SRR11647652_2</text>
<text text-anchor="middle" x="236.02" y="-151" font-family="sans" font-size="10.00">out_dir: QC/trimmed</text>
</g>
<!-- 16&#45;&gt;17 -->
<g id="edge35" class="edge">
<title>16&#45;&gt;17</title>
<path fill="none" stroke="grey" stroke-width="2" d="M172.69,-220.82C182.56,-212.19 194.74,-201.55 205.78,-191.92"/>
<polygon fill="grey" stroke="grey" stroke-width="2" points="208.33,-194.33 213.56,-185.12 203.72,-189.06 208.33,-194.33"/>
</g>
<!-- 27 -->
<g id="node28" class="node">
<title>27</title>
<path fill="none" stroke="#70d856" stroke-width="2" d="M1147.02,-182.5C1147.02,-182.5 1109.02,-182.5 1109.02,-182.5 1103.02,-182.5 1097.02,-176.5 1097.02,-170.5 1097.02,-170.5 1097.02,-158.5 1097.02,-158.5 1097.02,-152.5 1103.02,-146.5 1109.02,-146.5 1109.02,-146.5 1147.02,-146.5 1147.02,-146.5 1153.02,-146.5 1159.02,-152.5 1159.02,-158.5 1159.02,-158.5 1159.02,-170.5 1159.02,-170.5 1159.02,-176.5 1153.02,-182.5 1147.02,-182.5"/>
<text text-anchor="middle" x="1128.02" y="-162" font-family="sans" font-size="10.00">map_data</text>
</g>
<!-- 16&#45;&gt;27 -->
<g id="edge51" class="edge">
<title>16&#45;&gt;27</title>
<path fill="none" stroke="grey" stroke-width="2" d="M180.03,-235.38C218.28,-231.74 290.44,-225.14 352.02,-221 512.29,-210.24 913.73,-225.12 1086.77,-184.67"/>
<polygon fill="grey" stroke="grey" stroke-width="2" points="1087.71,-188.04 1096.59,-182.25 1086.04,-181.25 1087.71,-188.04"/>
</g>
<!-- 17&#45;&gt;14 -->
<g id="edge24" class="edge">
<title>17&#45;&gt;14</title>
<path fill="none" stroke="grey" stroke-width="2" d="M292.62,-146.04C295.45,-145.32 298.26,-144.63 301.02,-144 388.85,-123.82 491.64,-108.53 558.41,-99.68"/>
<polygon fill="grey" stroke="grey" stroke-width="2" points="558.95,-103.14 568.41,-98.37 558.04,-96.2 558.95,-103.14"/>
</g>
<!-- 18 -->
<g id="node19" class="node">
<title>18</title>
<path fill="none" stroke="#d8cb56" stroke-width="2" d="M411.52,-185C411.52,-185 322.52,-185 322.52,-185 316.52,-185 310.52,-179 310.52,-173 310.52,-173 310.52,-156 310.52,-156 310.52,-150 316.52,-144 322.52,-144 322.52,-144 411.52,-144 411.52,-144 417.52,-144 423.52,-150 423.52,-156 423.52,-156 423.52,-173 423.52,-173 423.52,-179 417.52,-185 411.52,-185"/>
<text text-anchor="middle" x="367.02" y="-173" font-family="sans" font-size="10.00">fastqc</text>
<text text-anchor="middle" x="367.02" y="-162" font-family="sans" font-size="10.00">acc: SRR11647654_1</text>
<text text-anchor="middle" x="367.02" y="-151" font-family="sans" font-size="10.00">out_dir: QC/trimmed</text>
</g>
<!-- 18&#45;&gt;14 -->
<g id="edge25" class="edge">
<title>18&#45;&gt;14</title>
<path fill="none" stroke="grey" stroke-width="2" d="M423.52,-146.71C426.73,-145.79 429.91,-144.88 433.02,-144 474.59,-132.24 521.27,-119.59 558.65,-109.61"/>
<polygon fill="grey" stroke="grey" stroke-width="2" points="559.68,-112.95 568.44,-106.99 557.87,-106.19 559.68,-112.95"/>
</g>
<!-- 19&#45;&gt;18 -->
<g id="edge36" class="edge">
<title>19&#45;&gt;18</title>
<path fill="none" stroke="grey" stroke-width="2" d="M383.04,-220.82C380.79,-213.03 378.05,-203.6 375.49,-194.75"/>
<polygon fill="grey" stroke="grey" stroke-width="2" points="378.85,-193.75 372.7,-185.12 372.12,-195.7 378.85,-193.75"/>
</g>
<!-- 20 -->
<g id="node21" class="node">
<title>20</title>
<path fill="none" stroke="#d8cb56" stroke-width="2" d="M542.52,-185C542.52,-185 453.52,-185 453.52,-185 447.52,-185 441.52,-179 441.52,-173 441.52,-173 441.52,-156 441.52,-156 441.52,-150 447.52,-144 453.52,-144 453.52,-144 542.52,-144 542.52,-144 548.52,-144 554.52,-150 554.52,-156 554.52,-156 554.52,-173 554.52,-173 554.52,-179 548.52,-185 542.52,-185"/>
<text text-anchor="middle" x="498.02" y="-173" font-family="sans" font-size="10.00">fastqc</text>
<text text-anchor="middle" x="498.02" y="-162" font-family="sans" font-size="10.00">acc: SRR11647654_2</text>
<text text-anchor="middle" x="498.02" y="-151" font-family="sans" font-size="10.00">out_dir: QC/trimmed</text>
</g>
<!-- 19&#45;&gt;20 -->
<g id="edge40" class="edge">
<title>19&#45;&gt;20</title>
<path fill="none" stroke="grey" stroke-width="2" d="M414.09,-220.82C427.68,-211.86 444.58,-200.72 459.63,-190.8"/>
<polygon fill="grey" stroke="grey" stroke-width="2" points="461.83,-193.55 468.25,-185.12 457.97,-187.7 461.83,-193.55"/>
</g>
<!-- 31 -->
<g id="node32" class="node">
<title>31</title>
<path fill="none" stroke="#70d856" stroke-width="2" d="M1227.02,-182.5C1227.02,-182.5 1189.02,-182.5 1189.02,-182.5 1183.02,-182.5 1177.02,-176.5 1177.02,-170.5 1177.02,-170.5 1177.02,-158.5 1177.02,-158.5 1177.02,-152.5 1183.02,-146.5 1189.02,-146.5 1189.02,-146.5 1227.02,-146.5 1227.02,-146.5 1233.02,-146.5 1239.02,-152.5 1239.02,-158.5 1239.02,-158.5 1239.02,-170.5 1239.02,-170.5 1239.02,-176.5 1233.02,-182.5 1227.02,-182.5"/>
<text text-anchor="middle" x="1208.02" y="-162" font-family="sans" font-size="10.00">map_data</text>
</g>
<!-- 19&#45;&gt;31 -->
<g id="edge56" class="edge">
<title>19&#45;&gt;31</title>
<path fill="none" stroke="grey" stroke-width="2" d="M415.1,-228.15C423.89,-225.36 433.77,-222.63 443.02,-221 757.47,-165.5 853.59,-263.28 1166.78,-184.75"/>
<polygon fill="grey" stroke="grey" stroke-width="2" points="1167.76,-188.11 1176.59,-182.25 1166.03,-181.33 1167.76,-188.11"/>
</g>
<!-- 20&#45;&gt;14 -->
<g id="edge26" class="edge">
<title>20&#45;&gt;14</title>
<path fill="none" stroke="grey" stroke-width="2" d="M533.47,-143.88C550.63,-134.38 571.31,-122.94 589.04,-113.13"/>
<polygon fill="grey" stroke="grey" stroke-width="2" points="590.95,-116.07 598,-108.17 587.56,-109.95 590.95,-116.07"/>
</g>
<!-- 21 -->
<g id="node22" class="node">
<title>21</title>
<path fill="none" stroke="#d8cb56" stroke-width="2" d="M673.52,-185C673.52,-185 584.52,-185 584.52,-185 578.52,-185 572.52,-179 572.52,-173 572.52,-173 572.52,-156 572.52,-156 572.52,-150 578.52,-144 584.52,-144 584.52,-144 673.52,-144 673.52,-144 679.52,-144 685.52,-150 685.52,-156 685.52,-156 685.52,-173 685.52,-173 685.52,-179 679.52,-185 673.52,-185"/>
<text text-anchor="middle" x="629.02" y="-173" font-family="sans" font-size="10.00">fastqc</text>
<text text-anchor="middle" x="629.02" y="-162" font-family="sans" font-size="10.00">acc: SRR11647662_1</text>
<text text-anchor="middle" x="629.02" y="-151" font-family="sans" font-size="10.00">out_dir: QC/trimmed</text>
</g>
<!-- 21&#45;&gt;14 -->
<g id="edge27" class="edge">
<title>21&#45;&gt;14</title>
<path fill="none" stroke="grey" stroke-width="2" d="M629.02,-143.69C629.02,-135.91 629.02,-126.84 629.02,-118.45"/>
<polygon fill="grey" stroke="grey" stroke-width="2" points="632.52,-118.32 629.02,-108.32 625.52,-118.32 632.52,-118.32"/>
</g>
<!-- 22&#45;&gt;21 -->
<g id="edge41" class="edge">
<title>22&#45;&gt;21</title>
<path fill="none" stroke="grey" stroke-width="2" d="M732.88,-222.98C715.72,-213.48 693.14,-200.99 673.42,-190.07"/>
<polygon fill="grey" stroke="grey" stroke-width="2" points="675.03,-186.97 664.59,-185.19 671.64,-193.09 675.03,-186.97"/>
</g>
<!-- 23 -->
<g id="node24" class="node">
<title>23</title>
<path fill="none" stroke="#d8cb56" stroke-width="2" d="M804.52,-185C804.52,-185 715.52,-185 715.52,-185 709.52,-185 703.52,-179 703.52,-173 703.52,-173 703.52,-156 703.52,-156 703.52,-150 709.52,-144 715.52,-144 715.52,-144 804.52,-144 804.52,-144 810.52,-144 816.52,-150 816.52,-156 816.52,-156 816.52,-173 816.52,-173 816.52,-179 810.52,-185 804.52,-185"/>
<text text-anchor="middle" x="760.02" y="-173" font-family="sans" font-size="10.00">fastqc</text>
<text text-anchor="middle" x="760.02" y="-162" font-family="sans" font-size="10.00">acc: SRR11647662_2</text>
<text text-anchor="middle" x="760.02" y="-151" font-family="sans" font-size="10.00">out_dir: QC/trimmed</text>
</g>
<!-- 22&#45;&gt;23 -->
<g id="edge45" class="edge">
<title>22&#45;&gt;23</title>
<path fill="none" stroke="grey" stroke-width="2" d="M760.02,-220.82C760.02,-213.2 760.02,-204 760.02,-195.32"/>
<polygon fill="grey" stroke="grey" stroke-width="2" points="763.52,-195.12 760.02,-185.12 756.52,-195.12 763.52,-195.12"/>
</g>
<!-- 32 -->
<g id="node33" class="node">
<title>32</title>
<path fill="none" stroke="#70d856" stroke-width="2" d="M1307.02,-182.5C1307.02,-182.5 1269.02,-182.5 1269.02,-182.5 1263.02,-182.5 1257.02,-176.5 1257.02,-170.5 1257.02,-170.5 1257.02,-158.5 1257.02,-158.5 1257.02,-152.5 1263.02,-146.5 1269.02,-146.5 1269.02,-146.5 1307.02,-146.5 1307.02,-146.5 1313.02,-146.5 1319.02,-152.5 1319.02,-158.5 1319.02,-158.5 1319.02,-170.5 1319.02,-170.5 1319.02,-176.5 1313.02,-182.5 1307.02,-182.5"/>
<text text-anchor="middle" x="1288.02" y="-162" font-family="sans" font-size="10.00">map_data</text>
</g>
<!-- 22&#45;&gt;32 -->
<g id="edge59" class="edge">
<title>22&#45;&gt;32</title>
<path fill="none" stroke="grey" stroke-width="2" d="M787.1,-236.29C873.41,-230.66 1142.01,-211.65 1247.05,-184.62"/>
<polygon fill="grey" stroke="grey" stroke-width="2" points="1248.27,-187.91 1256.98,-181.89 1246.41,-181.16 1248.27,-187.91"/>
</g>
<!-- 23&#45;&gt;14 -->
<g id="edge28" class="edge">
<title>23&#45;&gt;14</title>
<path fill="none" stroke="grey" stroke-width="2" d="M724.57,-143.88C707.4,-134.38 686.73,-122.94 669,-113.13"/>
<polygon fill="grey" stroke="grey" stroke-width="2" points="670.48,-109.95 660.04,-108.17 667.09,-116.07 670.48,-109.95"/>
</g>
<!-- 24 -->
<g id="node25" class="node">
<title>24</title>
<path fill="none" stroke="#d8cb56" stroke-width="2" d="M935.52,-185C935.52,-185 846.52,-185 846.52,-185 840.52,-185 834.52,-179 834.52,-173 834.52,-173 834.52,-156 834.52,-156 834.52,-150 840.52,-144 846.52,-144 846.52,-144 935.52,-144 935.52,-144 941.52,-144 947.52,-150 947.52,-156 947.52,-156 947.52,-173 947.52,-173 947.52,-179 941.52,-185 935.52,-185"/>
<text text-anchor="middle" x="891.02" y="-173" font-family="sans" font-size="10.00">fastqc</text>
<text text-anchor="middle" x="891.02" y="-162" font-family="sans" font-size="10.00">acc: SRR11647664_1</text>
<text text-anchor="middle" x="891.02" y="-151" font-family="sans" font-size="10.00">out_dir: QC/trimmed</text>
</g>
<!-- 24&#45;&gt;14 -->
<g id="edge29" class="edge">
<title>24&#45;&gt;14</title>
<path fill="none" stroke="grey" stroke-width="2" d="M834.33,-146.39C831.52,-145.57 828.74,-144.77 826.02,-144 784.27,-132.12 737.35,-119.47 699.77,-109.51"/>
<polygon fill="grey" stroke="grey" stroke-width="2" points="700.5,-106.08 689.93,-106.91 698.7,-112.85 700.5,-106.08"/>
</g>
<!-- 25&#45;&gt;24 -->
<g id="edge46" class="edge">
<title>25&#45;&gt;24</title>
<path fill="none" stroke="grey" stroke-width="2" d="M1012.69,-224.7C992.43,-214.84 964.25,-201.13 940.12,-189.39"/>
<polygon fill="grey" stroke="grey" stroke-width="2" points="941.62,-186.23 931.09,-185 938.56,-192.52 941.62,-186.23"/>
</g>
<!-- 26 -->
<g id="node27" class="node">
<title>26</title>
<path fill="none" stroke="#d8cb56" stroke-width="2" d="M1066.52,-185C1066.52,-185 977.52,-185 977.52,-185 971.52,-185 965.52,-179 965.52,-173 965.52,-173 965.52,-156 965.52,-156 965.52,-150 971.52,-144 977.52,-144 977.52,-144 1066.52,-144 1066.52,-144 1072.52,-144 1078.52,-150 1078.52,-156 1078.52,-156 1078.52,-173 1078.52,-173 1078.52,-179 1072.52,-185 1066.52,-185"/>
<text text-anchor="middle" x="1022.02" y="-173" font-family="sans" font-size="10.00">fastqc</text>
<text text-anchor="middle" x="1022.02" y="-162" font-family="sans" font-size="10.00">acc: SRR11647664_2</text>
<text text-anchor="middle" x="1022.02" y="-151" font-family="sans" font-size="10.00">out_dir: QC/trimmed</text>
</g>
<!-- 25&#45;&gt;26 -->
<g id="edge50" class="edge">
<title>25&#45;&gt;26</title>
<path fill="none" stroke="grey" stroke-width="2" d="M1035.75,-220.82C1033.84,-213.11 1031.53,-203.8 1029.35,-195.03"/>
<polygon fill="grey" stroke="grey" stroke-width="2" points="1032.7,-193.98 1026.89,-185.12 1025.9,-195.67 1032.7,-193.98"/>
</g>
<!-- 33 -->
<g id="node34" class="node">
<title>33</title>
<path fill="none" stroke="#70d856" stroke-width="2" d="M1387.02,-182.5C1387.02,-182.5 1349.02,-182.5 1349.02,-182.5 1343.02,-182.5 1337.02,-176.5 1337.02,-170.5 1337.02,-170.5 1337.02,-158.5 1337.02,-158.5 1337.02,-152.5 1343.02,-146.5 1349.02,-146.5 1349.02,-146.5 1387.02,-146.5 1387.02,-146.5 1393.02,-146.5 1399.02,-152.5 1399.02,-158.5 1399.02,-158.5 1399.02,-170.5 1399.02,-170.5 1399.02,-176.5 1393.02,-182.5 1387.02,-182.5"/>
<text text-anchor="middle" x="1368.02" y="-162" font-family="sans" font-size="10.00">map_data</text>
</g>
<!-- 25&#45;&gt;33 -->
<g id="edge62" class="edge">
<title>25&#45;&gt;33</title>
<path fill="none" stroke="grey" stroke-width="2" d="M1067.23,-235.48C1117.43,-230.31 1227.87,-216.48 1327.32,-184.78"/>
<polygon fill="grey" stroke="grey" stroke-width="2" points="1328.49,-188.08 1336.91,-181.66 1326.32,-181.43 1328.49,-188.08"/>
</g>
<!-- 26&#45;&gt;14 -->
<g id="edge30" class="edge">
<title>26&#45;&gt;14</title>
<path fill="none" stroke="grey" stroke-width="2" d="M965.41,-146.04C962.58,-145.32 959.77,-144.63 957.02,-144 869.19,-123.82 766.4,-108.53 699.62,-99.68"/>
<polygon fill="grey" stroke="grey" stroke-width="2" points="700,-96.2 689.63,-98.37 699.09,-103.14 700,-96.2"/>
</g>
<!-- 27&#45;&gt;0 -->
<g id="edge3" class="edge">
<title>27&#45;&gt;0</title>
<path fill="none" stroke="grey" stroke-width="2" d="M1132.65,-146.36C1139.33,-121.59 1151.76,-75.55 1159.69,-46.13"/>
<polygon fill="grey" stroke="grey" stroke-width="2" points="1163.17,-46.69 1162.4,-36.12 1156.41,-44.86 1163.17,-46.69"/>
</g>
<!-- 28 -->
<g id="node29" class="node">
<title>28</title>
<path fill="none" stroke="#56d873" stroke-width="2" d="M1275.02,-257C1275.02,-257 1231.02,-257 1231.02,-257 1225.02,-257 1219.02,-251 1219.02,-245 1219.02,-245 1219.02,-233 1219.02,-233 1219.02,-227 1225.02,-221 1231.02,-221 1231.02,-221 1275.02,-221 1275.02,-221 1281.02,-221 1287.02,-227 1287.02,-233 1287.02,-233 1287.02,-245 1287.02,-245 1287.02,-251 1281.02,-257 1275.02,-257"/>
<text text-anchor="middle" x="1253.02" y="-236.5" font-family="sans" font-size="10.00">build_index</text>
</g>
<!-- 28&#45;&gt;27 -->
<g id="edge52" class="edge">
<title>28&#45;&gt;27</title>
<path fill="none" stroke="grey" stroke-width="2" d="M1223.4,-220.82C1206.27,-210.89 1184.54,-198.29 1166.15,-187.62"/>
<polygon fill="grey" stroke="grey" stroke-width="2" points="1167.84,-184.55 1157.43,-182.56 1164.32,-190.6 1167.84,-184.55"/>
</g>
<!-- 28&#45;&gt;31 -->
<g id="edge57" class="edge">
<title>28&#45;&gt;31</title>
<path fill="none" stroke="grey" stroke-width="2" d="M1242.35,-220.82C1236.86,-211.97 1230.05,-201 1223.95,-191.17"/>
<polygon fill="grey" stroke="grey" stroke-width="2" points="1226.85,-189.21 1218.61,-182.56 1220.91,-192.9 1226.85,-189.21"/>
</g>
<!-- 28&#45;&gt;32 -->
<g id="edge60" class="edge">
<title>28&#45;&gt;32</title>
<path fill="none" stroke="grey" stroke-width="2" d="M1261.31,-220.82C1265.5,-212.15 1270.66,-201.45 1275.33,-191.78"/>
<polygon fill="grey" stroke="grey" stroke-width="2" points="1278.59,-193.09 1279.78,-182.56 1272.28,-190.04 1278.59,-193.09"/>
</g>
<!-- 28&#45;&gt;33 -->
<g id="edge63" class="edge">
<title>28&#45;&gt;33</title>
<path fill="none" stroke="grey" stroke-width="2" d="M1280.27,-220.82C1295.88,-210.98 1315.65,-198.51 1332.47,-187.91"/>
<polygon fill="grey" stroke="grey" stroke-width="2" points="1334.37,-190.85 1340.96,-182.56 1330.63,-184.93 1334.37,-190.85"/>
</g>
<!-- 29 -->
<g id="node30" class="node">
<title>29</title>
<path fill="none" stroke="#d85656" stroke-width="2" d="M1309.52,-334C1309.52,-334 1196.52,-334 1196.52,-334 1190.52,-334 1184.52,-328 1184.52,-322 1184.52,-322 1184.52,-305 1184.52,-305 1184.52,-299 1190.52,-293 1196.52,-293 1196.52,-293 1309.52,-293 1309.52,-293 1315.52,-293 1321.52,-299 1321.52,-305 1321.52,-305 1321.52,-322 1321.52,-322 1321.52,-328 1315.52,-334 1309.52,-334"/>
<text text-anchor="middle" x="1253.02" y="-322" font-family="sans" font-size="10.00">gunzip</text>
<text text-anchor="middle" x="1253.02" y="-311" font-family="sans" font-size="10.00">file: genome.fa</text>
<text text-anchor="middle" x="1253.02" y="-300" font-family="sans" font-size="10.00">input_dir: data/references</text>
</g>
<!-- 29&#45;&gt;27 -->
<g id="edge53" class="edge">
<title>29&#45;&gt;27</title>
<path fill="none" stroke="grey" stroke-width="2" d="M1232.97,-292.97C1222.55,-282.56 1209.78,-269.38 1199.02,-257 1180.25,-235.42 1160.43,-209.58 1146.51,-190.87"/>
<polygon fill="grey" stroke="grey" stroke-width="2" points="1149.31,-188.78 1140.55,-182.82 1143.68,-192.94 1149.31,-188.78"/>
</g>
<!-- 29&#45;&gt;28 -->
<g id="edge54" class="edge">
<title>29&#45;&gt;28</title>
<path fill="none" stroke="grey" stroke-width="2" d="M1253.02,-292.69C1253.02,-284.91 1253.02,-275.84 1253.02,-267.45"/>
<polygon fill="grey" stroke="grey" stroke-width="2" points="1256.52,-267.32 1253.02,-257.32 1249.52,-267.32 1256.52,-267.32"/>
</g>
<!-- 29&#45;&gt;31 -->
<g id="edge58" class="edge">
<title>29&#45;&gt;31</title>
<path fill="none" stroke="grey" stroke-width="2" d="M1232.74,-292.82C1224.01,-282.97 1214.74,-270.33 1210.02,-257 1202.7,-236.34 1202.69,-211.38 1204.23,-192.75"/>
<polygon fill="grey" stroke="grey" stroke-width="2" points="1207.73,-192.9 1205.28,-182.6 1200.77,-192.19 1207.73,-192.9"/>
</g>
<!-- 29&#45;&gt;32 -->
<g id="edge61" class="edge">
<title>29&#45;&gt;32</title>
<path fill="none" stroke="grey" stroke-width="2" d="M1273.43,-292.86C1282.18,-283.03 1291.44,-270.38 1296.02,-257 1303.17,-236.09 1300.24,-211.01 1296.04,-192.4"/>
<polygon fill="grey" stroke="grey" stroke-width="2" points="1299.39,-191.38 1293.56,-182.53 1292.6,-193.08 1299.39,-191.38"/>
</g>
<!-- 29&#45;&gt;33 -->
<g id="edge64" class="edge">
<title>29&#45;&gt;33</title>
<path fill="none" stroke="grey" stroke-width="2" d="M1276.55,-292.98C1287.97,-282.89 1301.46,-269.99 1312.02,-257 1328.7,-236.48 1344.11,-210.57 1354.52,-191.56"/>
<polygon fill="grey" stroke="grey" stroke-width="2" points="1357.7,-193.05 1359.35,-182.58 1351.53,-189.73 1357.7,-193.05"/>
</g>
<!-- 30 -->
<g id="node31" class="node">
<title>30</title>
<path fill="none" stroke="#56d8a9" stroke-width="2" d="M1279.02,-406C1279.02,-406 1227.02,-406 1227.02,-406 1221.02,-406 1215.02,-400 1215.02,-394 1215.02,-394 1215.02,-382 1215.02,-382 1215.02,-376 1221.02,-370 1227.02,-370 1227.02,-370 1279.02,-370 1279.02,-370 1285.02,-370 1291.02,-376 1291.02,-382 1291.02,-382 1291.02,-394 1291.02,-394 1291.02,-400 1285.02,-406 1279.02,-406"/>
<text text-anchor="middle" x="1253.02" y="-385.5" font-family="sans" font-size="10.00">get_genome</text>
</g>
<!-- 30&#45;&gt;29 -->
<g id="edge55" class="edge">
<title>30&#45;&gt;29</title>
<path fill="none" stroke="grey" stroke-width="2" d="M1253.02,-369.82C1253.02,-362.2 1253.02,-353 1253.02,-344.32"/>
<polygon fill="grey" stroke="grey" stroke-width="2" points="1256.52,-344.12 1253.02,-334.12 1249.52,-344.12 1256.52,-344.12"/>
</g>
<!-- 31&#45;&gt;0 -->
<g id="edge4" class="edge">
<title>31&#45;&gt;0</title>
<path fill="none" stroke="grey" stroke-width="2" d="M1203.15,-146.36C1196.1,-121.48 1182.95,-75.14 1174.61,-45.75"/>
<polygon fill="grey" stroke="grey" stroke-width="2" points="1177.97,-44.79 1171.88,-36.12 1171.24,-46.7 1177.97,-44.79"/>
</g>
<!-- 32&#45;&gt;0 -->
<g id="edge5" class="edge">
<title>32&#45;&gt;0</title>
<path fill="none" stroke="grey" stroke-width="2" d="M1273.66,-146.36C1252.38,-120.94 1212.33,-73.11 1187.83,-43.85"/>
<polygon fill="grey" stroke="grey" stroke-width="2" points="1190.46,-41.54 1181.36,-36.12 1185.09,-46.04 1190.46,-41.54"/>
</g>
<!-- 33&#45;&gt;0 -->
<g id="edge6" class="edge">
<title>33&#45;&gt;0</title>
<path fill="none" stroke="grey" stroke-width="2" d="M1344.17,-146.36C1308.06,-120.39 1239.43,-71.05 1199.01,-42"/>
<polygon fill="grey" stroke="grey" stroke-width="2" points="1201,-39.12 1190.83,-36.12 1196.91,-44.8 1201,-39.12"/>
</g>
</g>
</svg>
