<svg height="660" width="660"
    xmlns="http://www.w3.org/2000/svg"
    xmlns:xlink="http://www.w3.org/1999/xlink"
    xmlns:ev="http://www.w3.org/2001/xml-events">
<title>Original Top Strand</title>
<rect x="0" y="0" width="660" height="660" fill="white" />
<text x="330" y="20" text-anchor="middle">Original Top Strand</text>
<line x1="80" y1="80" x2="80" y2="580" stroke="black" />
<line x1="80" y1="580" x2="580" y2="580" stroke="black" />
<text x="15" y="330" transform="rotate(270 15, 330)" text-anchor="middle" dominant-baseline="text-before-edge">CpG Methylation %</text>
<text x="330" y="620" text-anchor="middle">Position along mapped read (5'->3' of + strand)</text>
<line x1="80" y1="580" x2="80" y2="585" stroke="black" />
<text x="80" y="600" text-anchor="middle">0</text>
<line x1="120.000000" y1="80" x2="120.000000" y2="580" stroke-dasharray="5 5" stroke="grey" />
<line x1="120.000000" y1="580" x2="120.000000" y2="585" stroke="black" />
<text x="120.000000" y="600" text-anchor="middle">10</text>
<line x1="160.000000" y1="80" x2="160.000000" y2="580" stroke-dasharray="5 5" stroke="grey" />
<line x1="160.000000" y1="580" x2="160.000000" y2="585" stroke="black" />
<text x="160.000000" y="600" text-anchor="middle">20</text>
<line x1="200.000000" y1="80" x2="200.000000" y2="580" stroke-dasharray="5 5" stroke="grey" />
<line x1="200.000000" y1="580" x2="200.000000" y2="585" stroke="black" />
<text x="200.000000" y="600" text-anchor="middle">30</text>
<line x1="240.000000" y1="80" x2="240.000000" y2="580" stroke-dasharray="5 5" stroke="grey" />
<line x1="240.000000" y1="580" x2="240.000000" y2="585" stroke="black" />
<text x="240.000000" y="600" text-anchor="middle">40</text>
<line x1="280.000000" y1="80" x2="280.000000" y2="580" stroke-dasharray="5 5" stroke="grey" />
<line x1="280.000000" y1="580" x2="280.000000" y2="585" stroke="black" />
<text x="280.000000" y="600" text-anchor="middle">50</text>
<line x1="320.000000" y1="80" x2="320.000000" y2="580" stroke-dasharray="5 5" stroke="grey" />
<line x1="320.000000" y1="580" x2="320.000000" y2="585" stroke="black" />
<text x="320.000000" y="600" text-anchor="middle">60</text>
<line x1="360.000000" y1="80" x2="360.000000" y2="580" stroke-dasharray="5 5" stroke="grey" />
<line x1="360.000000" y1="580" x2="360.000000" y2="585" stroke="black" />
<text x="360.000000" y="600" text-anchor="middle">70</text>
<line x1="400.000000" y1="80" x2="400.000000" y2="580" stroke-dasharray="5 5" stroke="grey" />
<line x1="400.000000" y1="580" x2="400.000000" y2="585" stroke="black" />
<text x="400.000000" y="600" text-anchor="middle">80</text>
<line x1="440.000000" y1="80" x2="440.000000" y2="580" stroke-dasharray="5 5" stroke="grey" />
<line x1="440.000000" y1="580" x2="440.000000" y2="585" stroke="black" />
<text x="440.000000" y="600" text-anchor="middle">90</text>
<line x1="480.000000" y1="80" x2="480.000000" y2="580" stroke-dasharray="5 5" stroke="grey" />
<line x1="480.000000" y1="580" x2="480.000000" y2="585" stroke="black" />
<text x="480.000000" y="600" text-anchor="middle">100</text>
<line x1="520.000000" y1="80" x2="520.000000" y2="580" stroke-dasharray="5 5" stroke="grey" />
<line x1="520.000000" y1="580" x2="520.000000" y2="585" stroke="black" />
<text x="520.000000" y="600" text-anchor="middle">110</text>
<line x1="560.000000" y1="80" x2="560.000000" y2="580" stroke-dasharray="5 5" stroke="grey" />
<line x1="560.000000" y1="580" x2="560.000000" y2="585" stroke="black" />
<text x="560.000000" y="600" text-anchor="middle">120</text>
<line x1="80" y1="580.000000" x2="75" y2="580.000000" stroke="black" />
<text x="55" y="580.000000" text-anchor="middle" dominant-baseline="middle">0.00</text>
<line x1="80" y1="555.000000" x2="75" y2="555.000000" stroke="black" />
<text x="55" y="555.000000" text-anchor="middle" dominant-baseline="middle">0.05</text>
<line x1="80" y1="530.000000" x2="75" y2="530.000000" stroke="black" />
<text x="55" y="530.000000" text-anchor="middle" dominant-baseline="middle">0.10</text>
<line x1="80" y1="505.000000" x2="75" y2="505.000000" stroke="black" />
<text x="55" y="505.000000" text-anchor="middle" dominant-baseline="middle">0.15</text>
<line x1="80" y1="480.000000" x2="75" y2="480.000000" stroke="black" />
<text x="55" y="480.000000" text-anchor="middle" dominant-baseline="middle">0.20</text>
<line x1="80" y1="455.000000" x2="75" y2="455.000000" stroke="black" />
<text x="55" y="455.000000" text-anchor="middle" dominant-baseline="middle">0.25</text>
<line x1="80" y1="430.000000" x2="75" y2="430.000000" stroke="black" />
<text x="55" y="430.000000" text-anchor="middle" dominant-baseline="middle">0.30</text>
<line x1="80" y1="405.000000" x2="75" y2="405.000000" stroke="black" />
<text x="55" y="405.000000" text-anchor="middle" dominant-baseline="middle">0.35</text>
<line x1="80" y1="380.000000" x2="75" y2="380.000000" stroke="black" />
<text x="55" y="380.000000" text-anchor="middle" dominant-baseline="middle">0.40</text>
<line x1="80" y1="355.000000" x2="75" y2="355.000000" stroke="black" />
<text x="55" y="355.000000" text-anchor="middle" dominant-baseline="middle">0.45</text>
<line x1="80" y1="330.000000" x2="75" y2="330.000000" stroke="black" />
<text x="55" y="330.000000" text-anchor="middle" dominant-baseline="middle">0.50</text>
<line x1="80" y1="305.000000" x2="75" y2="305.000000" stroke="black" />
<text x="55" y="305.000000" text-anchor="middle" dominant-baseline="middle">0.55</text>
<line x1="80" y1="280.000000" x2="75" y2="280.000000" stroke="black" />
<text x="55" y="280.000000" text-anchor="middle" dominant-baseline="middle">0.60</text>
<line x1="80" y1="255.000000" x2="75" y2="255.000000" stroke="black" />
<text x="55" y="255.000000" text-anchor="middle" dominant-baseline="middle">0.65</text>
<line x1="80" y1="230.000000" x2="75" y2="230.000000" stroke="black" />
<text x="55" y="230.000000" text-anchor="middle" dominant-baseline="middle">0.70</text>
<line x1="80" y1="205.000000" x2="75" y2="205.000000" stroke="black" />
<text x="55" y="205.000000" text-anchor="middle" dominant-baseline="middle">0.75</text>
<line x1="80" y1="180.000000" x2="75" y2="180.000000" stroke="black" />
<text x="55" y="180.000000" text-anchor="middle" dominant-baseline="middle">0.80</text>
<line x1="80" y1="155.000000" x2="75" y2="155.000000" stroke="black" />
<text x="55" y="155.000000" text-anchor="middle" dominant-baseline="middle">0.85</text>
<line x1="80" y1="130.000000" x2="75" y2="130.000000" stroke="black" />
<text x="55" y="130.000000" text-anchor="middle" dominant-baseline="middle">0.90</text>
<line x1="80" y1="105.000000" x2="75" y2="105.000000" stroke="black" />
<text x="55" y="105.000000" text-anchor="middle" dominant-baseline="middle">0.95</text>
<line x1="80" y1="80.000000" x2="75" y2="80.000000" stroke="black" />
<text x="55" y="80.000000" text-anchor="middle" dominant-baseline="middle">1.00</text>
<path d="M 84.000000 174.375356
  L 88.000000 186.913406
  L 92.000000 200.648685
  L 96.000000 194.985778
  L 100.000000 186.371953
  L 104.000000 195.410489
  L 108.000000 197.199083
  L 112.000000 198.864716
  L 116.000000 197.885421
  L 120.000000 198.712626
  L 124.000000 198.577885
  L 128.000000 198.131869
  L 132.000000 197.225969
  L 136.000000 197.306991
  L 140.000000 198.272472
  L 144.000000 197.951315
  L 148.000000 197.837784
  L 152.000000 199.970947
  L 156.000000 199.899745
  L 160.000000 199.354935
  L 164.000000 199.260145
  L 168.000000 198.913123
  L 172.000000 197.174241
  L 176.000000 199.301190
  L 180.000000 197.713121
  L 184.000000 199.546635
  L 188.000000 200.251526
  L 192.000000 200.757643
  L 196.000000 200.892372
  L 200.000000 200.451935
  L 204.000000 199.764124
  L 208.000000 199.055900
  L 212.000000 199.239286
  L 216.000000 200.044933
  L 220.000000 198.761637
  L 224.000000 199.540316
  L 228.000000 200.341596
  L 232.000000 200.243291
  L 236.000000 200.346696
  L 240.000000 200.134151
  L 244.000000 200.477372
  L 248.000000 200.858798
  L 252.000000 200.390238
  L 256.000000 200.421614
  L 260.000000 200.130405
  L 264.000000 199.722726
  L 268.000000 200.977307
  L 272.000000 200.821431
  L 276.000000 201.058293
  L 280.000000 201.218175
  L 284.000000 201.739578
  L 288.000000 201.128455
  L 292.000000 200.675892
  L 296.000000 200.693637
  L 300.000000 200.545369
  L 304.000000 200.685687
  L 308.000000 200.643364
  L 312.000000 201.312725
  L 316.000000 201.798793
  L 320.000000 201.996318
  L 324.000000 202.375548
  L 328.000000 201.797909
  L 332.000000 200.561746
  L 336.000000 201.083717
  L 340.000000 201.433926
  L 344.000000 202.241695
  L 348.000000 201.812433
  L 352.000000 202.401586
  L 356.000000 202.850858
  L 360.000000 202.410852
  L 364.000000 202.764296
  L 368.000000 202.549081
  L 372.000000 202.808075
  L 376.000000 202.386870
  L 380.000000 202.455500
  L 384.000000 202.143136
  L 388.000000 203.031345
  L 392.000000 202.977634
  L 396.000000 203.610323
  L 400.000000 203.571281
  L 404.000000 203.655598
  L 408.000000 203.782574
  L 412.000000 203.742660
  L 416.000000 203.613327
  L 420.000000 203.837616
  L 424.000000 203.643990
  L 428.000000 203.411832
  L 432.000000 204.178489
  L 436.000000 204.340029
  L 440.000000 205.058481
  L 444.000000 205.196547
  L 448.000000 205.238546
  L 452.000000 205.375406
  L 456.000000 205.064250
  L 460.000000 204.782035
  L 464.000000 205.159451
  L 468.000000 205.514749
  L 472.000000 205.843800
  L 476.000000 205.999707
  L 480.000000 206.779867
  L 484.000000 207.485138
  L 488.000000 206.495989
  L 492.000000 207.922639
  L 496.000000 207.855620
  L 500.000000 207.223332
  L 504.000000 207.368320
  L 508.000000 208.012789
  L 512.000000 208.057776
  L 516.000000 208.693599
  L 520.000000 208.834489
  L 524.000000 209.239187
  L 528.000000 210.153082
  L 532.000000 209.811345
  L 536.000000 210.174968
  L 540.000000 208.852901
  L 544.000000 206.268742
  L 548.000000 204.870332
  L 552.000000 203.352570
  L 556.000000 204.052558
  L 560.000000 205.063982
  L 564.000000 205.838697
  L 568.000000 207.390229
  L 572.000000 208.177329
  L 576.000000 209.500907
  L 580.000000 198.885276
  L 580.000000 197.605041
  L 576.000000 208.195615
  L 572.000000 206.887609
  L 568.000000 206.108159
  L 564.000000 204.566448
  L 560.000000 203.791433
  L 556.000000 202.785053
  L 552.000000 202.087895
  L 548.000000 203.608283
  L 544.000000 205.004555
  L 540.000000 207.588618
  L 536.000000 208.915421
  L 532.000000 208.554626
  L 528.000000 208.897713
  L 524.000000 207.985564
  L 520.000000 207.582038
  L 516.000000 207.441457
  L 512.000000 206.807031
  L 508.000000 206.765851
  L 504.000000 206.123342
  L 500.000000 205.980199
  L 496.000000 206.606374
  L 492.000000 206.672824
  L 488.000000 205.251926
  L 484.000000 206.239446
  L 480.000000 205.537041
  L 476.000000 204.762829
  L 472.000000 204.608277
  L 468.000000 204.276167
  L 464.000000 203.924287
  L 460.000000 203.550389
  L 456.000000 203.832869
  L 452.000000 204.139029
  L 448.000000 204.002768
  L 444.000000 203.959351
  L 440.000000 203.821220
  L 436.000000 203.107978
  L 432.000000 202.948066
  L 428.000000 202.181526
  L 424.000000 202.415795
  L 420.000000 202.606503
  L 416.000000 202.381342
  L 412.000000 202.510824
  L 408.000000 202.553417
  L 404.000000 202.425529
  L 400.000000 202.340096
  L 396.000000 202.380814
  L 392.000000 201.749964
  L 388.000000 201.802417
  L 384.000000 200.919634
  L 380.000000 201.229660
  L 376.000000 201.160950
  L 372.000000 201.583987
  L 368.000000 201.325805
  L 364.000000 201.536613
  L 360.000000 201.188224
  L 356.000000 201.625130
  L 352.000000 201.178384
  L 348.000000 200.589591
  L 344.000000 201.012989
  L 340.000000 200.211247
  L 336.000000 199.866600
  L 332.000000 199.348227
  L 328.000000 200.577087
  L 324.000000 201.152292
  L 320.000000 200.772722
  L 316.000000 200.577828
  L 312.000000 200.090841
  L 308.000000 199.426753
  L 304.000000 199.468302
  L 300.000000 199.330594
  L 296.000000 199.477884
  L 292.000000 199.456712
  L 288.000000 199.906707
  L 284.000000 200.511975
  L 280.000000 199.998902
  L 276.000000 199.844641
  L 272.000000 199.602994
  L 268.000000 199.754302
  L 264.000000 198.510725
  L 260.000000 198.916286
  L 256.000000 199.202118
  L 252.000000 199.171441
  L 248.000000 199.636564
  L 244.000000 199.262709
  L 240.000000 198.924751
  L 236.000000 199.136127
  L 232.000000 199.029132
  L 228.000000 199.120634
  L 224.000000 198.325075
  L 220.000000 197.556689
  L 216.000000 198.825620
  L 212.000000 198.031081
  L 208.000000 197.851783
  L 204.000000 198.551645
  L 200.000000 199.231603
  L 196.000000 199.666837
  L 192.000000 199.532117
  L 188.000000 199.029560
  L 184.000000 198.326349
  L 180.000000 196.509085
  L 176.000000 198.083268
  L 172.000000 195.979348
  L 168.000000 197.700471
  L 164.000000 198.046164
  L 160.000000 198.138312
  L 156.000000 198.676473
  L 152.000000 198.744655
  L 148.000000 196.633654
  L 144.000000 196.740852
  L 140.000000 197.052717
  L 136.000000 196.093090
  L 132.000000 196.013253
  L 128.000000 196.914304
  L 124.000000 197.359451
  L 120.000000 197.502717
  L 116.000000 196.680524
  L 112.000000 197.626503
  L 108.000000 195.931970
  L 104.000000 194.213904
  L 100.000000 185.201961
  L 96.000000 193.801655
  L 92.000000 199.375174
  L 88.000000 185.535856
  L 84.000000 173.399203
Z" fill="rgb(248,118,109)" fill-opacity="0.2"/>
<path d="M 84.000000 203.530404
  L 88.000000 204.328706
  L 92.000000 204.309397
  L 96.000000 204.054188
  L 100.000000 203.818395
  L 104.000000 203.266483
  L 108.000000 203.544459
  L 112.000000 203.371492
  L 116.000000 203.425133
  L 120.000000 204.536830
  L 124.000000 204.612361
  L 128.000000 204.960032
  L 132.000000 204.471107
  L 136.000000 204.551267
  L 140.000000 204.464266
  L 144.000000 204.232415
  L 148.000000 203.943565
  L 152.000000 203.630169
  L 156.000000 203.816563
  L 160.000000 203.970063
  L 164.000000 204.574877
  L 168.000000 204.561263
  L 172.000000 204.399016
  L 176.000000 204.545273
  L 180.000000 204.433850
  L 184.000000 203.717128
  L 188.000000 203.578019
  L 192.000000 203.594527
  L 196.000000 203.626799
  L 200.000000 203.339793
  L 204.000000 203.191972
  L 208.000000 204.301807
  L 212.000000 204.154894
  L 216.000000 204.611371
  L 220.000000 204.055574
  L 224.000000 203.498733
  L 228.000000 203.488360
  L 232.000000 203.016884
  L 236.000000 202.271157
  L 240.000000 202.978503
  L 244.000000 203.514293
  L 248.000000 203.274648
  L 252.000000 203.336042
  L 256.000000 203.736898
  L 260.000000 203.644452
  L 264.000000 203.393872
  L 268.000000 203.412537
  L 272.000000 202.964223
  L 276.000000 202.447740
  L 280.000000 203.207107
  L 284.000000 202.771626
  L 288.000000 203.114436
  L 292.000000 203.096338
  L 296.000000 203.716155
  L 300.000000 202.973295
  L 304.000000 203.421989
  L 308.000000 202.954921
  L 312.000000 202.946088
  L 316.000000 203.144859
  L 320.000000 202.752446
  L 324.000000 202.587965
  L 328.000000 202.918122
  L 332.000000 202.531824
  L 336.000000 203.558771
  L 340.000000 204.083522
  L 344.000000 203.427234
  L 348.000000 203.243449
  L 352.000000 202.474450
  L 356.000000 202.932456
  L 360.000000 202.334889
  L 364.000000 202.883149
  L 368.000000 203.595082
  L 372.000000 204.250497
  L 376.000000 204.457331
  L 380.000000 203.931535
  L 384.000000 203.826465
  L 388.000000 203.972932
  L 392.000000 204.166425
  L 396.000000 203.290286
  L 400.000000 203.968015
  L 404.000000 203.995008
  L 408.000000 204.349552
  L 412.000000 204.803110
  L 416.000000 204.830657
  L 420.000000 204.939250
  L 424.000000 205.514505
  L 428.000000 205.157931
  L 432.000000 205.850862
  L 436.000000 205.311218
  L 440.000000 205.630299
  L 444.000000 206.490369
  L 448.000000 206.563426
  L 452.000000 206.323225
  L 456.000000 207.481925
  L 460.000000 208.557706
  L 464.000000 209.499491
  L 468.000000 209.803995
  L 472.000000 210.243547
  L 476.000000 210.010228
  L 480.000000 209.400000
  L 484.000000 210.400911
  L 488.000000 210.419922
  L 492.000000 211.780607
  L 496.000000 212.438927
  L 500.000000 213.343392
  L 504.000000 215.443531
  L 508.000000 216.162385
  L 512.000000 215.437829
  L 516.000000 216.165681
  L 520.000000 217.922426
  L 524.000000 217.803513
  L 528.000000 219.936732
  L 532.000000 221.904768
  L 536.000000 223.619596
  L 540.000000 225.773197
  L 544.000000 225.834816
  L 548.000000 226.130706
  L 552.000000 223.226479
  L 556.000000 223.964704
  L 560.000000 226.302718
  L 564.000000 244.322381
  L 568.000000 258.553671
  L 572.000000 253.868678
  L 576.000000 327.396112
  L 580.000000 549.526994
  L 580.000000 548.956868
  L 576.000000 326.106298
  L 572.000000 252.189294
  L 568.000000 257.082876
  L 564.000000 242.960153
  L 560.000000 224.966765
  L 556.000000 222.669489
  L 552.000000 221.856861
  L 548.000000 224.781769
  L 544.000000 224.520161
  L 540.000000 224.456173
  L 536.000000 222.304155
  L 532.000000 220.592104
  L 528.000000 218.633423
  L 524.000000 216.509706
  L 520.000000 216.626204
  L 516.000000 214.880526
  L 512.000000 214.161220
  L 508.000000 214.871276
  L 504.000000 214.158377
  L 500.000000 212.069726
  L 496.000000 211.172661
  L 492.000000 210.516737
  L 488.000000 209.172586
  L 484.000000 209.139228
  L 480.000000 208.150427
  L 476.000000 208.749639
  L 472.000000 208.983629
  L 468.000000 208.544043
  L 464.000000 208.239551
  L 460.000000 207.304206
  L 456.000000 206.237946
  L 452.000000 205.087640
  L 448.000000 205.323968
  L 444.000000 205.245081
  L 440.000000 204.397550
  L 436.000000 204.073796
  L 432.000000 204.609046
  L 428.000000 203.925795
  L 424.000000 204.280903
  L 420.000000 203.708790
  L 416.000000 203.596720
  L 412.000000 203.565799
  L 408.000000 203.113530
  L 404.000000 202.760032
  L 400.000000 202.736017
  L 396.000000 202.065197
  L 392.000000 202.931715
  L 388.000000 202.741355
  L 384.000000 202.599738
  L 380.000000 202.701624
  L 376.000000 203.218825
  L 372.000000 203.015792
  L 368.000000 202.364520
  L 364.000000 201.657224
  L 360.000000 201.112120
  L 356.000000 201.704378
  L 352.000000 201.250331
  L 348.000000 202.012468
  L 344.000000 202.197369
  L 340.000000 202.850474
  L 336.000000 202.329238
  L 332.000000 201.306418
  L 328.000000 201.695332
  L 324.000000 201.362793
  L 320.000000 201.523048
  L 316.000000 201.911372
  L 312.000000 201.718951
  L 308.000000 201.728360
  L 304.000000 202.192033
  L 300.000000 201.747882
  L 296.000000 202.483629
  L 292.000000 201.868655
  L 288.000000 201.889888
  L 284.000000 201.542953
  L 280.000000 201.976141
  L 276.000000 201.222625
  L 272.000000 201.733182
  L 268.000000 202.181937
  L 264.000000 202.164078
  L 260.000000 202.413163
  L 256.000000 202.506190
  L 252.000000 202.108767
  L 248.000000 202.045287
  L 244.000000 202.285110
  L 240.000000 201.750365
  L 236.000000 201.045886
  L 232.000000 201.788483
  L 228.000000 202.257447
  L 224.000000 202.268064
  L 220.000000 202.820314
  L 216.000000 203.375046
  L 212.000000 202.922254
  L 208.000000 203.068186
  L 204.000000 201.965457
  L 200.000000 202.109656
  L 196.000000 202.395162
  L 192.000000 202.361327
  L 188.000000 202.345915
  L 184.000000 202.486395
  L 180.000000 203.197586
  L 176.000000 203.307685
  L 172.000000 203.162854
  L 168.000000 203.320740
  L 164.000000 203.334679
  L 160.000000 202.737048
  L 156.000000 202.582167
  L 152.000000 202.397642
  L 148.000000 202.705625
  L 144.000000 202.995715
  L 140.000000 203.226143
  L 136.000000 203.311964
  L 132.000000 203.234632
  L 128.000000 203.720481
  L 124.000000 203.375567
  L 120.000000 203.296773
  L 116.000000 202.190355
  L 112.000000 202.139615
  L 108.000000 202.310999
  L 104.000000 202.034066
  L 100.000000 202.583221
  L 96.000000 202.819370
  L 92.000000 203.073903
  L 88.000000 203.088161
  L 84.000000 202.297806
Z" fill="rgb(0,191,196)" fill-opacity="0.2"/>
<path d="M 84.000000 173.886304
  L 88.000000 186.223001
  L 92.000000 200.010774
  L 96.000000 194.392639
  L 100.000000 185.785774
  L 104.000000 194.811102
  L 108.000000 196.564328
  L 112.000000 198.244491
  L 116.000000 197.281899
  L 120.000000 198.106601
  L 124.000000 197.967581
  L 128.000000 197.521994
  L 132.000000 196.618514
  L 136.000000 196.698942
  L 140.000000 197.661500
  L 144.000000 197.345001
  L 148.000000 197.234647
  L 152.000000 199.356720
  L 156.000000 199.287033
  L 160.000000 198.745551
  L 164.000000 198.652085
  L 168.000000 198.305725
  L 172.000000 196.575729
  L 176.000000 198.691153
  L 180.000000 197.110029
  L 184.000000 198.935416
  L 188.000000 199.639474
  L 192.000000 200.143812
  L 196.000000 200.278538
  L 200.000000 199.840705
  L 204.000000 199.156825
  L 208.000000 198.452787
  L 212.000000 198.634124
  L 216.000000 199.434209
  L 220.000000 198.158102
  L 224.000000 198.931628
  L 228.000000 199.730049
  L 232.000000 199.635155
  L 236.000000 199.740363
  L 240.000000 199.528402
  L 244.000000 199.868987
  L 248.000000 200.246620
  L 252.000000 199.779778
  L 256.000000 199.810803
  L 260.000000 199.522288
  L 264.000000 199.115666
  L 268.000000 200.364744
  L 272.000000 200.211157
  L 276.000000 200.450424
  L 280.000000 200.607488
  L 284.000000 201.124719
  L 288.000000 200.516525
  L 292.000000 200.065244
  L 296.000000 200.084708
  L 300.000000 199.936929
  L 304.000000 200.075939
  L 308.000000 200.034004
  L 312.000000 200.700729
  L 316.000000 201.187265
  L 320.000000 201.383472
  L 324.000000 201.762879
  L 328.000000 201.186453
  L 332.000000 199.953936
  L 336.000000 200.474109
  L 340.000000 200.821533
  L 344.000000 201.626289
  L 348.000000 201.199963
  L 352.000000 201.788944
  L 356.000000 202.236955
  L 360.000000 201.798498
  L 364.000000 202.149411
  L 368.000000 201.936404
  L 372.000000 202.194994
  L 376.000000 201.772864
  L 380.000000 201.841535
  L 384.000000 201.530340
  L 388.000000 202.415839
  L 392.000000 202.362758
  L 396.000000 202.994534
  L 400.000000 202.954650
  L 404.000000 203.039528
  L 408.000000 203.166964
  L 412.000000 203.125705
  L 416.000000 202.996295
  L 420.000000 203.221025
  L 424.000000 203.028860
  L 428.000000 202.795640
  L 432.000000 203.562249
  L 436.000000 203.722974
  L 440.000000 204.438823
  L 444.000000 204.576922
  L 448.000000 204.619634
  L 452.000000 204.756195
  L 456.000000 204.447541
  L 460.000000 204.165189
  L 464.000000 204.540846
  L 468.000000 204.894433
  L 472.000000 205.225024
  L 476.000000 205.380253
  L 480.000000 206.157440
  L 484.000000 206.861283
  L 488.000000 205.872937
  L 492.000000 207.296722
  L 496.000000 207.229987
  L 500.000000 206.600757
  L 504.000000 206.744821
  L 508.000000 207.388316
  L 512.000000 207.431394
  L 516.000000 208.066525
  L 520.000000 208.207262
  L 524.000000 208.611377
  L 528.000000 209.524408
  L 532.000000 209.181990
  L 536.000000 209.544199
  L 540.000000 208.219739
  L 544.000000 205.635592
  L 548.000000 204.238235
  L 552.000000 202.719133
  L 556.000000 203.417711
  L 560.000000 204.426620
  L 564.000000 205.201497
  L 568.000000 206.748123
  L 572.000000 207.531397
  L 576.000000 208.847182
  L 580.000000 198.243963
" stroke="rgb(248,118,109)" stroke-width="2" fill-opacity="0"/>
<path d="M 84.000000 202.913064
  L 88.000000 203.707390
  L 92.000000 203.690615
  L 96.000000 203.435741
  L 100.000000 203.199766
  L 104.000000 202.649230
  L 108.000000 202.926686
  L 112.000000 202.754511
  L 116.000000 202.806698
  L 120.000000 203.915761
  L 124.000000 203.992931
  L 128.000000 204.339223
  L 132.000000 203.851835
  L 136.000000 203.930577
  L 140.000000 203.844167
  L 144.000000 203.613027
  L 148.000000 203.323550
  L 152.000000 203.012866
  L 156.000000 203.198324
  L 160.000000 203.352519
  L 164.000000 203.953738
  L 168.000000 203.939961
  L 172.000000 203.779900
  L 176.000000 203.925443
  L 180.000000 203.814683
  L 184.000000 203.100726
  L 188.000000 202.960927
  L 192.000000 202.976886
  L 196.000000 203.009942
  L 200.000000 202.723685
  L 204.000000 202.577678
  L 208.000000 203.683964
  L 212.000000 203.537541
  L 216.000000 203.992176
  L 220.000000 203.436905
  L 224.000000 202.882360
  L 228.000000 202.871865
  L 232.000000 202.401642
  L 236.000000 201.657475
  L 240.000000 202.363392
  L 244.000000 202.898665
  L 248.000000 202.658928
  L 252.000000 202.721370
  L 256.000000 203.120509
  L 260.000000 203.027770
  L 264.000000 202.777937
  L 268.000000 202.796197
  L 272.000000 202.347656
  L 276.000000 201.834139
  L 280.000000 202.590581
  L 284.000000 202.156244
  L 288.000000 202.501129
  L 292.000000 202.481457
  L 296.000000 203.098853
  L 300.000000 202.359551
  L 304.000000 202.805972
  L 308.000000 202.340601
  L 312.000000 202.331479
  L 316.000000 202.527067
  L 320.000000 202.136700
  L 324.000000 201.974337
  L 328.000000 202.305693
  L 332.000000 201.918078
  L 336.000000 202.942969
  L 340.000000 203.465963
  L 344.000000 202.811263
  L 348.000000 202.626916
  L 352.000000 201.861349
  L 356.000000 202.317375
  L 360.000000 201.722463
  L 364.000000 202.269148
  L 368.000000 202.978764
  L 372.000000 203.632110
  L 376.000000 203.837039
  L 380.000000 203.315548
  L 384.000000 203.212074
  L 388.000000 203.356110
  L 392.000000 203.548034
  L 396.000000 202.676709
  L 400.000000 203.350982
  L 404.000000 203.376481
  L 408.000000 203.730505
  L 412.000000 204.183422
  L 416.000000 204.212663
  L 420.000000 204.323001
  L 424.000000 204.896688
  L 428.000000 204.540845
  L 432.000000 205.228929
  L 436.000000 204.691482
  L 440.000000 205.012912
  L 444.000000 205.866703
  L 448.000000 205.942686
  L 452.000000 205.704424
  L 456.000000 206.858929
  L 460.000000 207.929949
  L 464.000000 208.868515
  L 468.000000 209.173018
  L 472.000000 209.612593
  L 476.000000 209.378934
  L 480.000000 208.774224
  L 484.000000 209.769074
  L 488.000000 209.795281
  L 492.000000 211.147691
  L 496.000000 211.804818
  L 500.000000 212.705583
  L 504.000000 214.799988
  L 508.000000 215.515865
  L 512.000000 214.798571
  L 516.000000 215.522147
  L 520.000000 217.273364
  L 524.000000 217.155660
  L 528.000000 219.284142
  L 532.000000 221.247511
  L 536.000000 222.960968
  L 540.000000 225.113802
  L 544.000000 225.176609
  L 548.000000 225.455316
  L 552.000000 222.540681
  L 556.000000 223.316221
  L 560.000000 225.633839
  L 564.000000 243.640539
  L 568.000000 257.817592
  L 572.000000 253.028026
  L 576.000000 326.751183
  L 580.000000 549.243165
" stroke="rgb(0,191,196)" stroke-width="2" fill-opacity="0"/>
<text x="650" y="650" text-anchor="end">--OT 2,0,0,120</text>
<line x1="88.000000" y1="580" x2="88.000000" y2="80" stroke-dasharray="5 1" stroke="rgb(248,118,109)" stroke-width="1" />
<line x1="560.000000" y1="580" x2="560.000000" y2="80" stroke-dasharray="5 1" stroke="rgb(0,191,196)" stroke-width="1" />
<rect x="590" y="310" width="20" height="20" fill="rgb(248,118,109)" />
<text x="615" y="320" text-anchor="start" dominant-baseline="middle">#1</text>
<rect x="590" y="330" width="20" height="20" fill="rgb(0,191,196)" />
<text x="615" y="340" text-anchor="start" dominant-baseline="middle">#2</text>
</svg>
