<svg height="660" width="660"
    xmlns="http://www.w3.org/2000/svg"
    xmlns:xlink="http://www.w3.org/1999/xlink"
    xmlns:ev="http://www.w3.org/2001/xml-events">
<title>Original Bottom Strand</title>
<rect x="0" y="0" width="660" height="660" fill="white" />
<text x="330" y="20" text-anchor="middle">Original Bottom Strand</text>
<line x1="80" y1="80" x2="80" y2="580" stroke="black" />
<line x1="80" y1="580" x2="580" y2="580" stroke="black" />
<text x="15" y="330" transform="rotate(270 15, 330)" text-anchor="middle" dominant-baseline="text-before-edge">CpG Methylation %</text>
<text x="330" y="620" text-anchor="middle">Position along mapped read (5'->3' of + strand)</text>
<line x1="80" y1="580" x2="80" y2="585" stroke="black" />
<text x="80" y="600" text-anchor="middle">0</text>
<line x1="120.000000" y1="80" x2="120.000000" y2="580" stroke-dasharray="5 5" stroke="grey" />
<line x1="120.000000" y1="580" x2="120.000000" y2="585" stroke="black" />
<text x="120.000000" y="600" text-anchor="middle">10</text>
<line x1="160.000000" y1="80" x2="160.000000" y2="580" stroke-dasharray="5 5" stroke="grey" />
<line x1="160.000000" y1="580" x2="160.000000" y2="585" stroke="black" />
<text x="160.000000" y="600" text-anchor="middle">20</text>
<line x1="200.000000" y1="80" x2="200.000000" y2="580" stroke-dasharray="5 5" stroke="grey" />
<line x1="200.000000" y1="580" x2="200.000000" y2="585" stroke="black" />
<text x="200.000000" y="600" text-anchor="middle">30</text>
<line x1="240.000000" y1="80" x2="240.000000" y2="580" stroke-dasharray="5 5" stroke="grey" />
<line x1="240.000000" y1="580" x2="240.000000" y2="585" stroke="black" />
<text x="240.000000" y="600" text-anchor="middle">40</text>
<line x1="280.000000" y1="80" x2="280.000000" y2="580" stroke-dasharray="5 5" stroke="grey" />
<line x1="280.000000" y1="580" x2="280.000000" y2="585" stroke="black" />
<text x="280.000000" y="600" text-anchor="middle">50</text>
<line x1="320.000000" y1="80" x2="320.000000" y2="580" stroke-dasharray="5 5" stroke="grey" />
<line x1="320.000000" y1="580" x2="320.000000" y2="585" stroke="black" />
<text x="320.000000" y="600" text-anchor="middle">60</text>
<line x1="360.000000" y1="80" x2="360.000000" y2="580" stroke-dasharray="5 5" stroke="grey" />
<line x1="360.000000" y1="580" x2="360.000000" y2="585" stroke="black" />
<text x="360.000000" y="600" text-anchor="middle">70</text>
<line x1="400.000000" y1="80" x2="400.000000" y2="580" stroke-dasharray="5 5" stroke="grey" />
<line x1="400.000000" y1="580" x2="400.000000" y2="585" stroke="black" />
<text x="400.000000" y="600" text-anchor="middle">80</text>
<line x1="440.000000" y1="80" x2="440.000000" y2="580" stroke-dasharray="5 5" stroke="grey" />
<line x1="440.000000" y1="580" x2="440.000000" y2="585" stroke="black" />
<text x="440.000000" y="600" text-anchor="middle">90</text>
<line x1="480.000000" y1="80" x2="480.000000" y2="580" stroke-dasharray="5 5" stroke="grey" />
<line x1="480.000000" y1="580" x2="480.000000" y2="585" stroke="black" />
<text x="480.000000" y="600" text-anchor="middle">100</text>
<line x1="520.000000" y1="80" x2="520.000000" y2="580" stroke-dasharray="5 5" stroke="grey" />
<line x1="520.000000" y1="580" x2="520.000000" y2="585" stroke="black" />
<text x="520.000000" y="600" text-anchor="middle">110</text>
<line x1="560.000000" y1="80" x2="560.000000" y2="580" stroke-dasharray="5 5" stroke="grey" />
<line x1="560.000000" y1="580" x2="560.000000" y2="585" stroke="black" />
<text x="560.000000" y="600" text-anchor="middle">120</text>
<line x1="80" y1="580.000000" x2="75" y2="580.000000" stroke="black" />
<text x="55" y="580.000000" text-anchor="middle" dominant-baseline="middle">0.00</text>
<line x1="80" y1="555.000000" x2="75" y2="555.000000" stroke="black" />
<text x="55" y="555.000000" text-anchor="middle" dominant-baseline="middle">0.05</text>
<line x1="80" y1="530.000000" x2="75" y2="530.000000" stroke="black" />
<text x="55" y="530.000000" text-anchor="middle" dominant-baseline="middle">0.10</text>
<line x1="80" y1="505.000000" x2="75" y2="505.000000" stroke="black" />
<text x="55" y="505.000000" text-anchor="middle" dominant-baseline="middle">0.15</text>
<line x1="80" y1="480.000000" x2="75" y2="480.000000" stroke="black" />
<text x="55" y="480.000000" text-anchor="middle" dominant-baseline="middle">0.20</text>
<line x1="80" y1="455.000000" x2="75" y2="455.000000" stroke="black" />
<text x="55" y="455.000000" text-anchor="middle" dominant-baseline="middle">0.25</text>
<line x1="80" y1="430.000000" x2="75" y2="430.000000" stroke="black" />
<text x="55" y="430.000000" text-anchor="middle" dominant-baseline="middle">0.30</text>
<line x1="80" y1="405.000000" x2="75" y2="405.000000" stroke="black" />
<text x="55" y="405.000000" text-anchor="middle" dominant-baseline="middle">0.35</text>
<line x1="80" y1="380.000000" x2="75" y2="380.000000" stroke="black" />
<text x="55" y="380.000000" text-anchor="middle" dominant-baseline="middle">0.40</text>
<line x1="80" y1="355.000000" x2="75" y2="355.000000" stroke="black" />
<text x="55" y="355.000000" text-anchor="middle" dominant-baseline="middle">0.45</text>
<line x1="80" y1="330.000000" x2="75" y2="330.000000" stroke="black" />
<text x="55" y="330.000000" text-anchor="middle" dominant-baseline="middle">0.50</text>
<line x1="80" y1="305.000000" x2="75" y2="305.000000" stroke="black" />
<text x="55" y="305.000000" text-anchor="middle" dominant-baseline="middle">0.55</text>
<line x1="80" y1="280.000000" x2="75" y2="280.000000" stroke="black" />
<text x="55" y="280.000000" text-anchor="middle" dominant-baseline="middle">0.60</text>
<line x1="80" y1="255.000000" x2="75" y2="255.000000" stroke="black" />
<text x="55" y="255.000000" text-anchor="middle" dominant-baseline="middle">0.65</text>
<line x1="80" y1="230.000000" x2="75" y2="230.000000" stroke="black" />
<text x="55" y="230.000000" text-anchor="middle" dominant-baseline="middle">0.70</text>
<line x1="80" y1="205.000000" x2="75" y2="205.000000" stroke="black" />
<text x="55" y="205.000000" text-anchor="middle" dominant-baseline="middle">0.75</text>
<line x1="80" y1="180.000000" x2="75" y2="180.000000" stroke="black" />
<text x="55" y="180.000000" text-anchor="middle" dominant-baseline="middle">0.80</text>
<line x1="80" y1="155.000000" x2="75" y2="155.000000" stroke="black" />
<text x="55" y="155.000000" text-anchor="middle" dominant-baseline="middle">0.85</text>
<line x1="80" y1="130.000000" x2="75" y2="130.000000" stroke="black" />
<text x="55" y="130.000000" text-anchor="middle" dominant-baseline="middle">0.90</text>
<line x1="80" y1="105.000000" x2="75" y2="105.000000" stroke="black" />
<text x="55" y="105.000000" text-anchor="middle" dominant-baseline="middle">0.95</text>
<line x1="80" y1="80.000000" x2="75" y2="80.000000" stroke="black" />
<text x="55" y="80.000000" text-anchor="middle" dominant-baseline="middle">1.00</text>
<path d="M 84.000000 205.575234
  L 88.000000 209.576383
  L 92.000000 210.056340
  L 96.000000 210.104310
  L 100.000000 207.745529
  L 104.000000 208.575146
  L 108.000000 209.474630
  L 112.000000 209.807374
  L 116.000000 209.879438
  L 120.000000 210.050033
  L 124.000000 210.164453
  L 128.000000 209.900253
  L 132.000000 209.519093
  L 136.000000 210.428656
  L 140.000000 209.548475
  L 144.000000 209.367079
  L 148.000000 208.312644
  L 152.000000 208.364855
  L 156.000000 206.218762
  L 160.000000 206.890944
  L 164.000000 207.144781
  L 168.000000 207.643144
  L 172.000000 207.398960
  L 176.000000 208.054547
  L 180.000000 207.128552
  L 184.000000 207.275504
  L 188.000000 205.774781
  L 192.000000 205.252390
  L 196.000000 205.348722
  L 200.000000 205.699803
  L 204.000000 205.264326
  L 208.000000 205.813238
  L 212.000000 205.565275
  L 216.000000 205.152997
  L 220.000000 205.134163
  L 224.000000 205.364484
  L 228.000000 204.049463
  L 232.000000 204.600448
  L 236.000000 203.630519
  L 240.000000 203.896839
  L 244.000000 204.242280
  L 248.000000 204.105653
  L 252.000000 203.418181
  L 256.000000 203.835630
  L 260.000000 203.705781
  L 264.000000 203.770323
  L 268.000000 203.320322
  L 272.000000 203.648173
  L 276.000000 203.477851
  L 280.000000 202.870751
  L 284.000000 202.244251
  L 288.000000 202.924130
  L 292.000000 202.609964
  L 296.000000 202.893055
  L 300.000000 203.309721
  L 304.000000 202.891167
  L 308.000000 202.709366
  L 312.000000 202.010212
  L 316.000000 202.166320
  L 320.000000 202.113715
  L 324.000000 202.072222
  L 328.000000 202.181040
  L 332.000000 201.735300
  L 336.000000 202.577495
  L 340.000000 202.441074
  L 344.000000 202.437999
  L 348.000000 201.116366
  L 352.000000 202.133002
  L 356.000000 201.903872
  L 360.000000 201.938024
  L 364.000000 201.119206
  L 368.000000 201.697709
  L 372.000000 201.829000
  L 376.000000 202.069717
  L 380.000000 202.037322
  L 384.000000 201.444231
  L 388.000000 200.985506
  L 392.000000 201.370011
  L 396.000000 201.230151
  L 400.000000 200.623664
  L 404.000000 200.747169
  L 408.000000 200.172560
  L 412.000000 200.744086
  L 416.000000 201.635924
  L 420.000000 201.223365
  L 424.000000 200.827234
  L 428.000000 201.213580
  L 432.000000 200.711530
  L 436.000000 200.881047
  L 440.000000 200.075360
  L 444.000000 199.192703
  L 448.000000 200.720530
  L 452.000000 199.285445
  L 456.000000 199.985673
  L 460.000000 200.860718
  L 464.000000 200.985034
  L 468.000000 201.283827
  L 472.000000 200.449322
  L 476.000000 200.390939
  L 480.000000 199.752000
  L 484.000000 198.676399
  L 488.000000 199.755788
  L 492.000000 198.168929
  L 496.000000 201.009576
  L 500.000000 197.892971
  L 504.000000 202.075934
  L 508.000000 198.522894
  L 512.000000 203.596763
  L 516.000000 198.362789
  L 520.000000 199.979414
  L 524.000000 199.930627
  L 528.000000 199.032587
  L 532.000000 199.251526
  L 536.000000 199.158573
  L 540.000000 198.724077
  L 544.000000 198.271294
  L 548.000000 194.311212
  L 552.000000 197.031803
  L 556.000000 195.929143
  L 560.000000 193.745169
  L 564.000000 184.732285
  L 568.000000 192.983462
  L 572.000000 198.404612
  L 576.000000 184.329012
  L 580.000000 173.416912
  L 580.000000 172.383151
  L 576.000000 182.876656
  L 572.000000 197.060433
  L 568.000000 191.736596
  L 564.000000 183.503993
  L 560.000000 192.499790
  L 556.000000 194.608865
  L 552.000000 195.741990
  L 548.000000 193.071475
  L 544.000000 197.011159
  L 540.000000 197.474046
  L 536.000000 197.912840
  L 532.000000 198.008472
  L 528.000000 197.790478
  L 524.000000 198.682324
  L 520.000000 198.742899
  L 516.000000 197.138440
  L 512.000000 202.344269
  L 508.000000 197.298254
  L 504.000000 200.839421
  L 500.000000 196.680798
  L 496.000000 199.780183
  L 492.000000 196.965018
  L 488.000000 198.531544
  L 484.000000 197.465789
  L 480.000000 198.531188
  L 476.000000 199.168199
  L 472.000000 199.227830
  L 468.000000 200.053239
  L 464.000000 199.757084
  L 460.000000 199.638130
  L 456.000000 198.771339
  L 452.000000 198.073750
  L 448.000000 199.492399
  L 444.000000 197.980669
  L 440.000000 198.853094
  L 436.000000 199.654263
  L 432.000000 199.492579
  L 428.000000 199.990724
  L 424.000000 199.610491
  L 420.000000 200.001075
  L 416.000000 200.406319
  L 412.000000 199.522465
  L 408.000000 198.955487
  L 404.000000 199.529215
  L 400.000000 199.404464
  L 396.000000 200.002399
  L 392.000000 200.146741
  L 388.000000 199.768274
  L 384.000000 200.221535
  L 380.000000 200.811408
  L 376.000000 200.839619
  L 372.000000 200.598910
  L 368.000000 200.469154
  L 364.000000 199.895150
  L 360.000000 200.706383
  L 356.000000 200.675968
  L 352.000000 200.903642
  L 348.000000 199.896545
  L 344.000000 201.209850
  L 340.000000 201.217767
  L 336.000000 201.348675
  L 332.000000 200.515617
  L 328.000000 200.954792
  L 324.000000 200.841959
  L 320.000000 200.885404
  L 316.000000 200.941300
  L 312.000000 200.787430
  L 308.000000 201.479534
  L 304.000000 201.662140
  L 300.000000 202.075103
  L 296.000000 201.665314
  L 292.000000 201.385372
  L 288.000000 201.693327
  L 284.000000 201.021258
  L 280.000000 201.639341
  L 276.000000 202.242990
  L 272.000000 202.413200
  L 268.000000 202.092371
  L 264.000000 202.538190
  L 260.000000 202.476666
  L 256.000000 202.605464
  L 252.000000 202.191340
  L 248.000000 202.874029
  L 244.000000 203.004932
  L 240.000000 202.660390
  L 236.000000 202.396070
  L 232.000000 203.361828
  L 228.000000 202.818038
  L 224.000000 204.122416
  L 220.000000 203.899378
  L 216.000000 203.915092
  L 212.000000 204.326126
  L 208.000000 204.569797
  L 204.000000 204.023562
  L 200.000000 204.456708
  L 196.000000 204.105812
  L 192.000000 204.017275
  L 188.000000 204.535482
  L 184.000000 206.023793
  L 180.000000 205.875874
  L 176.000000 206.795427
  L 172.000000 206.149594
  L 168.000000 206.390467
  L 164.000000 205.899667
  L 160.000000 205.646893
  L 156.000000 204.983877
  L 152.000000 207.108029
  L 148.000000 207.058719
  L 144.000000 208.106863
  L 140.000000 208.293802
  L 136.000000 209.166713
  L 132.000000 208.266853
  L 128.000000 208.645242
  L 124.000000 208.905978
  L 120.000000 208.788574
  L 116.000000 208.635259
  L 112.000000 208.565767
  L 108.000000 208.233360
  L 104.000000 207.359188
  L 100.000000 206.540676
  L 96.000000 208.887679
  L 92.000000 208.848411
  L 88.000000 208.398327
  L 84.000000 204.320382
Z" fill="rgb(248,118,109)" fill-opacity="0.2"/>
<path d="M 84.000000 549.486879
  L 88.000000 327.082962
  L 92.000000 252.141152
  L 96.000000 257.573351
  L 100.000000 243.504374
  L 104.000000 226.050096
  L 108.000000 223.951261
  L 112.000000 223.959687
  L 116.000000 226.798019
  L 120.000000 226.521693
  L 124.000000 226.178736
  L 128.000000 224.460170
  L 132.000000 222.733404
  L 136.000000 220.788276
  L 140.000000 218.749453
  L 144.000000 218.843479
  L 148.000000 217.123968
  L 152.000000 216.259004
  L 156.000000 216.931198
  L 160.000000 216.060776
  L 164.000000 214.347005
  L 168.000000 213.195640
  L 172.000000 212.757460
  L 176.000000 210.771077
  L 180.000000 211.472584
  L 184.000000 209.750341
  L 188.000000 210.341468
  L 192.000000 210.739511
  L 196.000000 210.495518
  L 200.000000 210.321286
  L 204.000000 209.491912
  L 208.000000 208.180383
  L 212.000000 207.167095
  L 216.000000 206.959624
  L 220.000000 207.117524
  L 224.000000 205.839624
  L 228.000000 206.132714
  L 232.000000 206.630911
  L 236.000000 205.782065
  L 240.000000 206.227047
  L 244.000000 205.531821
  L 248.000000 205.253517
  L 252.000000 205.358034
  L 256.000000 205.115370
  L 260.000000 204.681647
  L 264.000000 204.302739
  L 268.000000 204.002369
  L 272.000000 204.556988
  L 276.000000 204.610479
  L 280.000000 204.837963
  L 284.000000 204.817900
  L 288.000000 205.192171
  L 292.000000 204.871882
  L 296.000000 204.256781
  L 300.000000 203.954386
  L 304.000000 203.154460
  L 308.000000 202.978496
  L 312.000000 203.482251
  L 316.000000 204.155951
  L 320.000000 204.393372
  L 324.000000 204.714733
  L 328.000000 204.540641
  L 332.000000 203.977851
  L 336.000000 203.230782
  L 340.000000 203.497266
  L 344.000000 203.537952
  L 348.000000 203.687773
  L 352.000000 203.696603
  L 356.000000 204.032793
  L 360.000000 204.311654
  L 364.000000 203.509578
  L 368.000000 204.133470
  L 372.000000 204.000723
  L 376.000000 203.710889
  L 380.000000 203.578910
  L 384.000000 203.329156
  L 388.000000 203.389988
  L 392.000000 203.614559
  L 396.000000 204.052844
  L 400.000000 204.100250
  L 404.000000 204.303830
  L 408.000000 204.082630
  L 412.000000 203.930395
  L 416.000000 204.028889
  L 420.000000 203.782110
  L 424.000000 203.621221
  L 428.000000 203.102708
  L 432.000000 203.661425
  L 436.000000 203.919078
  L 440.000000 204.196441
  L 444.000000 204.412860
  L 448.000000 204.981575
  L 452.000000 204.722729
  L 456.000000 204.969296
  L 460.000000 204.245523
  L 464.000000 203.846677
  L 468.000000 204.149247
  L 472.000000 204.501089
  L 476.000000 204.010884
  L 480.000000 204.137691
  L 484.000000 205.580655
  L 488.000000 205.086542
  L 492.000000 205.294504
  L 496.000000 205.168705
  L 500.000000 205.423611
  L 504.000000 204.229833
  L 508.000000 204.686099
  L 512.000000 204.586190
  L 516.000000 204.073083
  L 520.000000 205.410616
  L 524.000000 204.697734
  L 528.000000 204.923063
  L 532.000000 205.566540
  L 536.000000 205.442892
  L 540.000000 204.476169
  L 544.000000 205.012881
  L 548.000000 204.209974
  L 552.000000 203.931980
  L 556.000000 203.793653
  L 560.000000 204.116737
  L 564.000000 203.840818
  L 568.000000 204.865755
  L 572.000000 204.954777
  L 576.000000 205.111220
  L 580.000000 204.611599
  L 580.000000 203.363710
  L 576.000000 203.861332
  L 572.000000 203.709390
  L 568.000000 203.623154
  L 564.000000 202.602211
  L 560.000000 202.876222
  L 556.000000 202.555177
  L 552.000000 202.694443
  L 548.000000 202.968038
  L 544.000000 203.766351
  L 540.000000 203.233488
  L 536.000000 204.196973
  L 532.000000 204.321309
  L 528.000000 203.680019
  L 524.000000 203.454318
  L 520.000000 204.165295
  L 516.000000 202.830835
  L 512.000000 203.345515
  L 508.000000 203.445711
  L 504.000000 202.990630
  L 500.000000 204.177333
  L 496.000000 203.922784
  L 492.000000 204.050944
  L 488.000000 203.842712
  L 484.000000 204.335033
  L 480.000000 202.901021
  L 476.000000 202.772619
  L 472.000000 203.260958
  L 468.000000 202.911150
  L 464.000000 202.612313
  L 460.000000 203.010477
  L 456.000000 203.730989
  L 452.000000 203.485725
  L 448.000000 203.739901
  L 444.000000 203.173378
  L 440.000000 202.959569
  L 436.000000 202.683256
  L 432.000000 202.427451
  L 428.000000 201.871078
  L 424.000000 202.387984
  L 420.000000 202.548553
  L 416.000000 202.793026
  L 412.000000 202.697879
  L 408.000000 202.848235
  L 404.000000 203.067034
  L 400.000000 202.864297
  L 396.000000 202.817186
  L 392.000000 202.378886
  L 388.000000 202.158449
  L 384.000000 202.096043
  L 380.000000 202.344762
  L 376.000000 202.478358
  L 372.000000 202.766763
  L 368.000000 202.897043
  L 364.000000 202.278350
  L 360.000000 203.076374
  L 356.000000 202.798613
  L 352.000000 202.463330
  L 348.000000 202.450044
  L 344.000000 202.301818
  L 340.000000 202.265304
  L 336.000000 202.003717
  L 332.000000 202.745390
  L 328.000000 203.304685
  L 324.000000 203.476052
  L 320.000000 203.158790
  L 316.000000 202.919628
  L 312.000000 202.250703
  L 308.000000 201.747045
  L 304.000000 201.925152
  L 300.000000 202.720490
  L 296.000000 203.020966
  L 292.000000 203.630618
  L 288.000000 203.948414
  L 284.000000 203.581129
  L 280.000000 203.604306
  L 276.000000 203.372114
  L 272.000000 203.317279
  L 268.000000 202.772150
  L 264.000000 203.065685
  L 260.000000 203.441116
  L 256.000000 203.873334
  L 252.000000 204.115608
  L 248.000000 204.015242
  L 244.000000 204.296760
  L 240.000000 204.988637
  L 236.000000 204.545092
  L 232.000000 205.382541
  L 228.000000 204.888738
  L 224.000000 204.603504
  L 220.000000 205.867560
  L 216.000000 205.716653
  L 212.000000 205.924305
  L 208.000000 206.930542
  L 204.000000 208.231303
  L 200.000000 209.054896
  L 196.000000 209.229824
  L 192.000000 209.474161
  L 188.000000 209.076333
  L 184.000000 208.496111
  L 180.000000 210.203130
  L 176.000000 209.519212
  L 172.000000 211.486548
  L 168.000000 211.923625
  L 164.000000 213.066830
  L 160.000000 214.772138
  L 156.000000 215.635289
  L 152.000000 214.977171
  L 148.000000 215.831722
  L 144.000000 217.540070
  L 140.000000 217.448282
  L 136.000000 219.479712
  L 132.000000 221.414685
  L 128.000000 223.140518
  L 124.000000 224.858154
  L 120.000000 225.201852
  L 116.000000 225.444525
  L 112.000000 222.583866
  L 108.000000 222.651648
  L 104.000000 224.710832
  L 100.000000 242.138934
  L 96.000000 256.100344
  L 92.000000 250.459494
  L 88.000000 325.793668
  L 84.000000 548.918600
Z" fill="rgb(0,191,196)" fill-opacity="0.2"/>
<path d="M 84.000000 204.946757
  L 88.000000 208.986478
  L 92.000000 209.451459
  L 96.000000 209.495065
  L 100.000000 207.142162
  L 104.000000 207.966220
  L 108.000000 208.853019
  L 112.000000 209.185599
  L 116.000000 209.256374
  L 120.000000 209.418303
  L 124.000000 209.534222
  L 128.000000 209.271756
  L 132.000000 208.891981
  L 136.000000 209.796689
  L 140.000000 208.920143
  L 144.000000 208.735964
  L 148.000000 207.684670
  L 152.000000 207.735426
  L 156.000000 205.600311
  L 160.000000 206.267904
  L 164.000000 206.521211
  L 168.000000 207.015787
  L 172.000000 206.773260
  L 176.000000 207.423964
  L 180.000000 206.501187
  L 184.000000 206.648626
  L 188.000000 205.154109
  L 192.000000 204.633811
  L 196.000000 204.726234
  L 200.000000 205.077226
  L 204.000000 204.642912
  L 208.000000 205.190489
  L 212.000000 204.944676
  L 216.000000 204.533016
  L 220.000000 204.515747
  L 224.000000 204.742418
  L 228.000000 203.432718
  L 232.000000 203.980101
  L 236.000000 203.012251
  L 240.000000 203.277572
  L 244.000000 203.622567
  L 248.000000 203.488810
  L 252.000000 202.803727
  L 256.000000 203.219514
  L 260.000000 203.090190
  L 264.000000 203.153219
  L 268.000000 202.705310
  L 272.000000 203.029643
  L 276.000000 202.859375
  L 280.000000 202.253997
  L 284.000000 201.631712
  L 288.000000 202.307682
  L 292.000000 201.996627
  L 296.000000 202.278143
  L 300.000000 202.691364
  L 304.000000 202.275609
  L 308.000000 202.093402
  L 312.000000 201.397775
  L 316.000000 201.552762
  L 320.000000 201.498506
  L 324.000000 201.456033
  L 328.000000 201.566867
  L 332.000000 201.124414
  L 336.000000 201.962037
  L 340.000000 201.828380
  L 344.000000 201.822876
  L 348.000000 200.505402
  L 352.000000 201.517266
  L 356.000000 201.288864
  L 360.000000 201.321141
  L 364.000000 200.506117
  L 368.000000 201.082371
  L 372.000000 201.212894
  L 376.000000 201.453610
  L 380.000000 201.423314
  L 384.000000 200.831830
  L 388.000000 200.375839
  L 392.000000 200.757321
  L 396.000000 200.615209
  L 400.000000 200.013005
  L 404.000000 200.137137
  L 408.000000 199.562962
  L 412.000000 200.132214
  L 416.000000 201.020059
  L 420.000000 200.611164
  L 424.000000 200.217810
  L 428.000000 200.601094
  L 432.000000 200.100997
  L 436.000000 200.266586
  L 440.000000 199.463154
  L 444.000000 198.585619
  L 448.000000 200.105391
  L 452.000000 198.678532
  L 456.000000 199.377447
  L 460.000000 200.248362
  L 464.000000 200.369989
  L 468.000000 200.667463
  L 472.000000 199.837511
  L 476.000000 199.778501
  L 480.000000 199.140520
  L 484.000000 198.070022
  L 488.000000 199.142585
  L 492.000000 197.565906
  L 496.000000 200.393808
  L 500.000000 197.285798
  L 504.000000 201.456609
  L 508.000000 197.909475
  L 512.000000 202.969442
  L 516.000000 197.749514
  L 520.000000 199.360057
  L 524.000000 199.305354
  L 528.000000 198.410409
  L 532.000000 198.628877
  L 536.000000 198.534578
  L 540.000000 198.097919
  L 544.000000 197.640058
  L 548.000000 193.690151
  L 552.000000 196.385652
  L 556.000000 195.267680
  L 560.000000 193.121267
  L 564.000000 184.116804
  L 568.000000 192.358800
  L 572.000000 197.731195
  L 576.000000 183.600954
  L 580.000000 172.898922
" stroke="rgb(248,118,109)" stroke-width="2" fill-opacity="0"/>
<path d="M 84.000000 549.203964
  L 88.000000 326.438291
  L 92.000000 251.299335
  L 96.000000 256.836153
  L 100.000000 242.820914
  L 104.000000 225.379554
  L 108.000000 223.300573
  L 112.000000 223.270788
  L 116.000000 226.120352
  L 120.000000 225.860894
  L 124.000000 225.517562
  L 128.000000 223.799441
  L 132.000000 222.073122
  L 136.000000 220.133061
  L 140.000000 218.097920
  L 144.000000 218.190825
  L 148.000000 216.476890
  L 152.000000 215.617137
  L 156.000000 216.282280
  L 160.000000 215.415494
  L 164.000000 213.705945
  L 168.000000 212.558657
  L 172.000000 212.121025
  L 176.000000 210.144169
  L 180.000000 210.836863
  L 184.000000 209.122234
  L 188.000000 209.707899
  L 192.000000 210.105839
  L 196.000000 209.861670
  L 200.000000 209.687087
  L 204.000000 208.860601
  L 208.000000 207.554456
  L 212.000000 206.544691
  L 216.000000 206.337127
  L 220.000000 206.491521
  L 224.000000 205.220548
  L 228.000000 205.509701
  L 232.000000 206.005701
  L 236.000000 205.162561
  L 240.000000 205.606828
  L 244.000000 204.913272
  L 248.000000 204.633352
  L 252.000000 204.735788
  L 256.000000 204.493316
  L 260.000000 204.060342
  L 264.000000 203.683174
  L 268.000000 203.386228
  L 272.000000 203.936094
  L 276.000000 203.990260
  L 280.000000 204.220110
  L 284.000000 204.198484
  L 288.000000 204.569255
  L 292.000000 204.250213
  L 296.000000 203.637837
  L 300.000000 203.336400
  L 304.000000 202.538765
  L 308.000000 202.361723
  L 312.000000 202.865437
  L 316.000000 203.536750
  L 320.000000 203.775048
  L 324.000000 204.094357
  L 328.000000 203.921630
  L 332.000000 203.360586
  L 336.000000 202.616213
  L 340.000000 202.880244
  L 344.000000 202.918838
  L 348.000000 203.067861
  L 352.000000 203.078926
  L 356.000000 203.414666
  L 360.000000 203.692979
  L 364.000000 202.892925
  L 368.000000 203.514217
  L 372.000000 203.382706
  L 376.000000 203.093585
  L 380.000000 202.960793
  L 384.000000 202.711555
  L 388.000000 202.773177
  L 392.000000 202.995677
  L 396.000000 203.433976
  L 400.000000 203.481235
  L 404.000000 203.684394
  L 408.000000 203.464395
  L 412.000000 203.313102
  L 416.000000 203.409917
  L 420.000000 203.164292
  L 424.000000 203.003561
  L 428.000000 202.485847
  L 432.000000 203.043396
  L 436.000000 203.300125
  L 440.000000 203.576965
  L 444.000000 203.792078
  L 448.000000 204.359701
  L 452.000000 204.103194
  L 456.000000 204.349111
  L 460.000000 203.626964
  L 464.000000 203.228455
  L 468.000000 203.529157
  L 472.000000 203.879983
  L 476.000000 203.390708
  L 480.000000 203.518316
  L 484.000000 204.956809
  L 488.000000 204.463588
  L 492.000000 204.671689
  L 496.000000 204.544703
  L 500.000000 204.799434
  L 504.000000 203.609189
  L 508.000000 204.064866
  L 512.000000 203.964812
  L 516.000000 203.450909
  L 520.000000 204.786918
  L 524.000000 204.074983
  L 528.000000 204.300501
  L 532.000000 204.942890
  L 536.000000 204.818895
  L 540.000000 203.853783
  L 544.000000 204.388571
  L 548.000000 203.587958
  L 552.000000 203.312167
  L 556.000000 203.173367
  L 560.000000 203.495433
  L 564.000000 203.220467
  L 568.000000 204.243415
  L 572.000000 204.331040
  L 576.000000 204.485228
  L 580.000000 203.986602
" stroke="rgb(0,191,196)" stroke-width="2" fill-opacity="0"/>
<text x="650" y="650" text-anchor="end">--OB 0,124,6,0</text>
<line x1="576.000000" y1="580" x2="576.000000" y2="80" stroke-dasharray="5 1" stroke="rgb(248,118,109)" stroke-width="1" />
<line x1="104.000000" y1="580" x2="104.000000" y2="80" stroke-dasharray="5 1" stroke="rgb(0,191,196)" stroke-width="1" />
<rect x="590" y="310" width="20" height="20" fill="rgb(248,118,109)" />
<text x="615" y="320" text-anchor="start" dominant-baseline="middle">#1</text>
<rect x="590" y="330" width="20" height="20" fill="rgb(0,191,196)" />
<text x="615" y="340" text-anchor="start" dominant-baseline="middle">#2</text>
</svg>
