<svg height="660" width="660"
    xmlns="http://www.w3.org/2000/svg"
    xmlns:xlink="http://www.w3.org/1999/xlink"
    xmlns:ev="http://www.w3.org/2001/xml-events">
<title>Original Top Strand</title>
<rect x="0" y="0" width="660" height="660" fill="white" />
<text x="330" y="20" text-anchor="middle">Original Top Strand</text>
<line x1="80" y1="80" x2="80" y2="580" stroke="black" />
<line x1="80" y1="580" x2="580" y2="580" stroke="black" />
<text x="15" y="330" transform="rotate(270 15, 330)" text-anchor="middle" dominant-baseline="text-before-edge">CpG Methylation %</text>
<text x="330" y="620" text-anchor="middle">Position along mapped read (5'->3' of + strand)</text>
<line x1="80" y1="580" x2="80" y2="585" stroke="black" />
<text x="80" y="600" text-anchor="middle">0</text>
<line x1="120.000000" y1="80" x2="120.000000" y2="580" stroke-dasharray="5 5" stroke="grey" />
<line x1="120.000000" y1="580" x2="120.000000" y2="585" stroke="black" />
<text x="120.000000" y="600" text-anchor="middle">10</text>
<line x1="160.000000" y1="80" x2="160.000000" y2="580" stroke-dasharray="5 5" stroke="grey" />
<line x1="160.000000" y1="580" x2="160.000000" y2="585" stroke="black" />
<text x="160.000000" y="600" text-anchor="middle">20</text>
<line x1="200.000000" y1="80" x2="200.000000" y2="580" stroke-dasharray="5 5" stroke="grey" />
<line x1="200.000000" y1="580" x2="200.000000" y2="585" stroke="black" />
<text x="200.000000" y="600" text-anchor="middle">30</text>
<line x1="240.000000" y1="80" x2="240.000000" y2="580" stroke-dasharray="5 5" stroke="grey" />
<line x1="240.000000" y1="580" x2="240.000000" y2="585" stroke="black" />
<text x="240.000000" y="600" text-anchor="middle">40</text>
<line x1="280.000000" y1="80" x2="280.000000" y2="580" stroke-dasharray="5 5" stroke="grey" />
<line x1="280.000000" y1="580" x2="280.000000" y2="585" stroke="black" />
<text x="280.000000" y="600" text-anchor="middle">50</text>
<line x1="320.000000" y1="80" x2="320.000000" y2="580" stroke-dasharray="5 5" stroke="grey" />
<line x1="320.000000" y1="580" x2="320.000000" y2="585" stroke="black" />
<text x="320.000000" y="600" text-anchor="middle">60</text>
<line x1="360.000000" y1="80" x2="360.000000" y2="580" stroke-dasharray="5 5" stroke="grey" />
<line x1="360.000000" y1="580" x2="360.000000" y2="585" stroke="black" />
<text x="360.000000" y="600" text-anchor="middle">70</text>
<line x1="400.000000" y1="80" x2="400.000000" y2="580" stroke-dasharray="5 5" stroke="grey" />
<line x1="400.000000" y1="580" x2="400.000000" y2="585" stroke="black" />
<text x="400.000000" y="600" text-anchor="middle">80</text>
<line x1="440.000000" y1="80" x2="440.000000" y2="580" stroke-dasharray="5 5" stroke="grey" />
<line x1="440.000000" y1="580" x2="440.000000" y2="585" stroke="black" />
<text x="440.000000" y="600" text-anchor="middle">90</text>
<line x1="480.000000" y1="80" x2="480.000000" y2="580" stroke-dasharray="5 5" stroke="grey" />
<line x1="480.000000" y1="580" x2="480.000000" y2="585" stroke="black" />
<text x="480.000000" y="600" text-anchor="middle">100</text>
<line x1="520.000000" y1="80" x2="520.000000" y2="580" stroke-dasharray="5 5" stroke="grey" />
<line x1="520.000000" y1="580" x2="520.000000" y2="585" stroke="black" />
<text x="520.000000" y="600" text-anchor="middle">110</text>
<line x1="560.000000" y1="80" x2="560.000000" y2="580" stroke-dasharray="5 5" stroke="grey" />
<line x1="560.000000" y1="580" x2="560.000000" y2="585" stroke="black" />
<text x="560.000000" y="600" text-anchor="middle">120</text>
<line x1="80" y1="580.000000" x2="75" y2="580.000000" stroke="black" />
<text x="55" y="580.000000" text-anchor="middle" dominant-baseline="middle">0.00</text>
<line x1="80" y1="548.750000" x2="75" y2="548.750000" stroke="black" />
<text x="55" y="548.750000" text-anchor="middle" dominant-baseline="middle">0.05</text>
<line x1="80" y1="517.500000" x2="75" y2="517.500000" stroke="black" />
<text x="55" y="517.500000" text-anchor="middle" dominant-baseline="middle">0.10</text>
<line x1="80" y1="486.250000" x2="75" y2="486.250000" stroke="black" />
<text x="55" y="486.250000" text-anchor="middle" dominant-baseline="middle">0.15</text>
<line x1="80" y1="455.000000" x2="75" y2="455.000000" stroke="black" />
<text x="55" y="455.000000" text-anchor="middle" dominant-baseline="middle">0.20</text>
<line x1="80" y1="423.750000" x2="75" y2="423.750000" stroke="black" />
<text x="55" y="423.750000" text-anchor="middle" dominant-baseline="middle">0.25</text>
<line x1="80" y1="392.500000" x2="75" y2="392.500000" stroke="black" />
<text x="55" y="392.500000" text-anchor="middle" dominant-baseline="middle">0.30</text>
<line x1="80" y1="361.250000" x2="75" y2="361.250000" stroke="black" />
<text x="55" y="361.250000" text-anchor="middle" dominant-baseline="middle">0.35</text>
<line x1="80" y1="330.000000" x2="75" y2="330.000000" stroke="black" />
<text x="55" y="330.000000" text-anchor="middle" dominant-baseline="middle">0.40</text>
<line x1="80" y1="298.750000" x2="75" y2="298.750000" stroke="black" />
<text x="55" y="298.750000" text-anchor="middle" dominant-baseline="middle">0.45</text>
<line x1="80" y1="267.500000" x2="75" y2="267.500000" stroke="black" />
<text x="55" y="267.500000" text-anchor="middle" dominant-baseline="middle">0.50</text>
<line x1="80" y1="236.250000" x2="75" y2="236.250000" stroke="black" />
<text x="55" y="236.250000" text-anchor="middle" dominant-baseline="middle">0.55</text>
<line x1="80" y1="205.000000" x2="75" y2="205.000000" stroke="black" />
<text x="55" y="205.000000" text-anchor="middle" dominant-baseline="middle">0.60</text>
<line x1="80" y1="173.750000" x2="75" y2="173.750000" stroke="black" />
<text x="55" y="173.750000" text-anchor="middle" dominant-baseline="middle">0.65</text>
<line x1="80" y1="142.500000" x2="75" y2="142.500000" stroke="black" />
<text x="55" y="142.500000" text-anchor="middle" dominant-baseline="middle">0.70</text>
<line x1="80" y1="111.250000" x2="75" y2="111.250000" stroke="black" />
<text x="55" y="111.250000" text-anchor="middle" dominant-baseline="middle">0.75</text>
<line x1="80" y1="80.000000" x2="75" y2="80.000000" stroke="black" />
<text x="55" y="80.000000" text-anchor="middle" dominant-baseline="middle">0.80</text>
<path d="M 84.000000 108.884490
  L 88.000000 130.597770
  L 92.000000 161.385218
  L 96.000000 156.264974
  L 100.000000 138.148283
  L 104.000000 153.115579
  L 108.000000 154.871168
  L 112.000000 158.358159
  L 116.000000 156.094251
  L 120.000000 160.270672
  L 124.000000 159.187349
  L 128.000000 157.184225
  L 132.000000 154.836298
  L 136.000000 156.138542
  L 140.000000 156.399331
  L 144.000000 157.384830
  L 148.000000 157.033885
  L 152.000000 161.016167
  L 156.000000 160.592653
  L 160.000000 159.798806
  L 164.000000 159.776889
  L 168.000000 159.813997
  L 172.000000 157.633550
  L 176.000000 158.753249
  L 180.000000 157.605208
  L 184.000000 160.419706
  L 188.000000 162.470529
  L 192.000000 162.193429
  L 196.000000 162.304640
  L 200.000000 162.282286
  L 204.000000 160.955470
  L 208.000000 159.558166
  L 212.000000 160.378052
  L 216.000000 159.199973
  L 220.000000 160.001835
  L 224.000000 160.711296
  L 228.000000 161.696232
  L 232.000000 161.219768
  L 236.000000 161.923064
  L 240.000000 161.072856
  L 244.000000 161.038360
  L 248.000000 161.764997
  L 252.000000 161.333662
  L 256.000000 159.561688
  L 260.000000 160.212525
  L 264.000000 159.549683
  L 268.000000 161.548506
  L 272.000000 162.749634
  L 276.000000 162.167235
  L 280.000000 161.542939
  L 284.000000 162.268173
  L 288.000000 162.984527
  L 292.000000 161.274304
  L 296.000000 160.660731
  L 300.000000 160.151626
  L 304.000000 160.643333
  L 308.000000 161.026451
  L 312.000000 162.763742
  L 316.000000 163.979310
  L 320.000000 163.953726
  L 324.000000 163.243521
  L 328.000000 163.321724
  L 332.000000 161.816534
  L 336.000000 162.195392
  L 340.000000 162.751920
  L 344.000000 163.113006
  L 348.000000 163.722305
  L 352.000000 165.130123
  L 356.000000 165.256974
  L 360.000000 164.350767
  L 364.000000 164.261568
  L 368.000000 165.343658
  L 372.000000 164.869265
  L 376.000000 164.701215
  L 380.000000 164.929888
  L 384.000000 164.231314
  L 388.000000 164.979923
  L 392.000000 166.289954
  L 396.000000 166.793951
  L 400.000000 166.775961
  L 404.000000 166.486929
  L 408.000000 166.614191
  L 412.000000 167.152519
  L 416.000000 167.138850
  L 420.000000 166.897986
  L 424.000000 165.958657
  L 428.000000 166.798979
  L 432.000000 167.887469
  L 436.000000 168.414511
  L 440.000000 170.421196
  L 444.000000 169.725679
  L 448.000000 170.696761
  L 452.000000 170.088062
  L 456.000000 169.195596
  L 460.000000 169.112784
  L 464.000000 169.605651
  L 468.000000 170.250891
  L 472.000000 170.960811
  L 476.000000 172.553672
  L 480.000000 173.220560
  L 484.000000 173.673513
  L 488.000000 173.065558
  L 492.000000 173.829070
  L 496.000000 173.724435
  L 500.000000 174.265324
  L 504.000000 174.408184
  L 508.000000 174.525631
  L 512.000000 175.687088
  L 516.000000 177.230298
  L 520.000000 177.421689
  L 524.000000 177.565507
  L 528.000000 178.458611
  L 532.000000 178.286877
  L 536.000000 179.152169
  L 540.000000 178.200167
  L 544.000000 175.694407
  L 548.000000 173.900461
  L 552.000000 172.229621
  L 556.000000 173.063132
  L 560.000000 174.952615
  L 564.000000 177.526574
  L 568.000000 178.393729
  L 572.000000 180.048244
  L 576.000000 182.781203
  L 580.000000 166.331376
  L 580.000000 164.590534
  L 576.000000 181.037108
  L 572.000000 178.325412
  L 568.000000 176.681196
  L 564.000000 175.822147
  L 560.000000 173.248650
  L 556.000000 171.368282
  L 552.000000 170.536380
  L 548.000000 172.214196
  L 544.000000 174.010995
  L 540.000000 176.526364
  L 536.000000 177.489019
  L 532.000000 176.624695
  L 528.000000 176.800066
  L 524.000000 175.910585
  L 520.000000 175.763375
  L 516.000000 175.569246
  L 512.000000 174.031490
  L 508.000000 172.874860
  L 504.000000 172.762427
  L 500.000000 172.619348
  L 496.000000 172.074936
  L 492.000000 172.177956
  L 488.000000 171.418182
  L 484.000000 172.023697
  L 480.000000 171.570641
  L 476.000000 170.908694
  L 472.000000 169.320205
  L 468.000000 168.609177
  L 464.000000 167.968252
  L 460.000000 167.483207
  L 456.000000 167.566045
  L 452.000000 168.453411
  L 448.000000 169.054582
  L 444.000000 168.083579
  L 440.000000 168.776061
  L 436.000000 166.778521
  L 432.000000 166.257325
  L 428.000000 165.169908
  L 424.000000 164.328633
  L 420.000000 165.266053
  L 416.000000 165.505892
  L 412.000000 165.518444
  L 408.000000 164.982159
  L 404.000000 164.857202
  L 400.000000 165.140561
  L 396.000000 165.162444
  L 392.000000 164.661603
  L 388.000000 163.355296
  L 384.000000 162.605133
  L 380.000000 163.300702
  L 376.000000 163.070243
  L 372.000000 163.247191
  L 368.000000 163.720068
  L 364.000000 162.636173
  L 360.000000 162.724446
  L 356.000000 163.627642
  L 352.000000 163.500756
  L 348.000000 162.098382
  L 344.000000 161.481685
  L 340.000000 161.127728
  L 336.000000 160.580983
  L 332.000000 160.205415
  L 328.000000 161.700369
  L 324.000000 161.623688
  L 320.000000 162.322928
  L 316.000000 162.351806
  L 312.000000 161.138736
  L 308.000000 159.417446
  L 304.000000 159.031116
  L 300.000000 158.539708
  L 296.000000 159.049908
  L 292.000000 159.660437
  L 288.000000 161.355018
  L 284.000000 160.637067
  L 280.000000 159.924162
  L 276.000000 160.554605
  L 272.000000 161.121278
  L 268.000000 159.925714
  L 264.000000 157.939863
  L 260.000000 158.590983
  L 256.000000 157.947759
  L 252.000000 159.713007
  L 248.000000 160.138547
  L 244.000000 159.420971
  L 240.000000 159.454109
  L 236.000000 160.298336
  L 232.000000 159.597200
  L 228.000000 160.069983
  L 224.000000 159.088141
  L 220.000000 158.372740
  L 216.000000 157.579417
  L 212.000000 158.761395
  L 208.000000 157.946378
  L 204.000000 159.339734
  L 200.000000 160.649180
  L 196.000000 160.669076
  L 192.000000 160.555482
  L 188.000000 160.829443
  L 184.000000 158.799993
  L 180.000000 155.996090
  L 176.000000 157.124182
  L 172.000000 156.031438
  L 168.000000 158.190528
  L 164.000000 158.151374
  L 160.000000 158.168928
  L 156.000000 158.951782
  L 152.000000 159.376507
  L 148.000000 155.427299
  L 144.000000 155.766108
  L 140.000000 154.780011
  L 136.000000 154.516913
  L 132.000000 153.228870
  L 128.000000 155.562471
  L 124.000000 157.560268
  L 120.000000 158.646285
  L 116.000000 154.493707
  L 112.000000 156.718563
  L 108.000000 153.223535
  L 104.000000 151.537577
  L 100.000000 136.580656
  L 96.000000 154.624814
  L 92.000000 159.660332
  L 88.000000 128.728998
  L 84.000000 107.588074
Z" fill="rgb(248,118,109)" fill-opacity="0.2"/>
<path d="M 84.000000 161.553610
  L 88.000000 163.155867
  L 92.000000 164.145432
  L 96.000000 163.658814
  L 100.000000 163.266876
  L 104.000000 162.853589
  L 108.000000 163.151984
  L 112.000000 163.263955
  L 116.000000 163.832167
  L 120.000000 164.031044
  L 124.000000 163.971645
  L 128.000000 164.564273
  L 132.000000 164.528799
  L 136.000000 164.922844
  L 140.000000 164.677547
  L 144.000000 165.505769
  L 148.000000 164.731407
  L 152.000000 163.793843
  L 156.000000 163.785178
  L 160.000000 164.513676
  L 164.000000 164.549425
  L 168.000000 164.978055
  L 172.000000 164.614424
  L 176.000000 165.196597
  L 180.000000 165.374691
  L 184.000000 165.762159
  L 188.000000 164.778498
  L 192.000000 164.087752
  L 196.000000 163.606828
  L 200.000000 163.190846
  L 204.000000 163.750529
  L 208.000000 165.299545
  L 212.000000 165.493786
  L 216.000000 165.945093
  L 220.000000 165.686175
  L 224.000000 165.483658
  L 228.000000 164.277301
  L 232.000000 163.363603
  L 236.000000 163.825462
  L 240.000000 163.992501
  L 244.000000 164.280883
  L 248.000000 165.237105
  L 252.000000 164.882387
  L 256.000000 165.461366
  L 260.000000 166.475753
  L 264.000000 166.460386
  L 268.000000 166.495132
  L 272.000000 165.078751
  L 276.000000 165.371563
  L 280.000000 165.495537
  L 284.000000 165.626144
  L 288.000000 166.411587
  L 292.000000 166.935773
  L 296.000000 166.060968
  L 300.000000 166.133642
  L 304.000000 167.275692
  L 308.000000 167.538218
  L 312.000000 166.681952
  L 316.000000 166.866451
  L 320.000000 166.980283
  L 324.000000 166.601022
  L 328.000000 166.789487
  L 332.000000 167.497126
  L 336.000000 168.147733
  L 340.000000 168.836322
  L 344.000000 169.553920
  L 348.000000 168.948403
  L 352.000000 167.868122
  L 356.000000 167.934950
  L 360.000000 167.861548
  L 364.000000 168.704934
  L 368.000000 169.783398
  L 372.000000 170.986337
  L 376.000000 170.317760
  L 380.000000 170.834166
  L 384.000000 171.073915
  L 388.000000 171.860041
  L 392.000000 171.420025
  L 396.000000 170.164875
  L 400.000000 171.291577
  L 404.000000 170.925894
  L 408.000000 172.768399
  L 412.000000 173.224326
  L 416.000000 173.593418
  L 420.000000 174.062202
  L 424.000000 174.748440
  L 428.000000 175.155779
  L 432.000000 176.503222
  L 436.000000 176.464920
  L 440.000000 176.198647
  L 444.000000 176.790435
  L 448.000000 178.139456
  L 452.000000 178.225565
  L 456.000000 179.856770
  L 460.000000 180.530308
  L 464.000000 181.739955
  L 468.000000 182.881202
  L 472.000000 183.930841
  L 476.000000 183.525504
  L 480.000000 181.594265
  L 484.000000 184.004898
  L 488.000000 184.633746
  L 492.000000 185.589355
  L 496.000000 185.879811
  L 500.000000 186.958898
  L 504.000000 188.643928
  L 508.000000 190.336433
  L 512.000000 189.438019
  L 516.000000 190.174432
  L 520.000000 192.477573
  L 524.000000 191.379912
  L 528.000000 194.932415
  L 532.000000 195.832164
  L 536.000000 199.423543
  L 540.000000 201.598759
  L 544.000000 201.559071
  L 548.000000 202.990630
  L 552.000000 202.501784
  L 556.000000 200.783440
  L 560.000000 203.156849
  L 564.000000 224.082918
  L 568.000000 238.998971
  L 572.000000 225.209314
  L 576.000000 306.382110
  L 580.000000 550.314042
  L 580.000000 549.683812
  L 576.000000 304.838830
  L 572.000000 223.064550
  L 568.000000 237.125388
  L 564.000000 222.299653
  L 560.000000 201.431251
  L 556.000000 199.113638
  L 552.000000 200.753741
  L 548.000000 201.250415
  L 544.000000 199.855507
  L 540.000000 199.880029
  L 536.000000 197.709068
  L 532.000000 194.121448
  L 528.000000 193.232303
  L 524.000000 189.680326
  L 520.000000 190.777235
  L 516.000000 188.476344
  L 512.000000 187.755218
  L 508.000000 188.631579
  L 504.000000 186.943132
  L 500.000000 185.266961
  L 496.000000 184.197015
  L 492.000000 183.906708
  L 488.000000 182.970253
  L 484.000000 182.320626
  L 480.000000 179.931843
  L 476.000000 181.856816
  L 472.000000 182.246527
  L 468.000000 181.200643
  L 464.000000 180.062013
  L 460.000000 178.856828
  L 456.000000 178.197760
  L 452.000000 176.569192
  L 448.000000 176.483758
  L 444.000000 175.133669
  L 440.000000 174.537280
  L 436.000000 174.808555
  L 432.000000 174.846574
  L 428.000000 173.507689
  L 424.000000 173.094608
  L 420.000000 172.416218
  L 416.000000 171.947512
  L 412.000000 171.573674
  L 408.000000 171.121760
  L 404.000000 169.287617
  L 400.000000 169.644428
  L 396.000000 168.532872
  L 392.000000 169.778030
  L 388.000000 170.211820
  L 384.000000 169.440384
  L 380.000000 169.197505
  L 376.000000 168.672094
  L 372.000000 169.338514
  L 368.000000 168.151689
  L 364.000000 167.072286
  L 360.000000 166.230715
  L 356.000000 166.303300
  L 352.000000 166.243100
  L 348.000000 167.310326
  L 344.000000 167.912747
  L 340.000000 167.192766
  L 336.000000 166.515582
  L 332.000000 165.862552
  L 328.000000 165.165516
  L 324.000000 164.973001
  L 320.000000 165.345428
  L 316.000000 165.227913
  L 312.000000 165.049573
  L 308.000000 165.903837
  L 304.000000 165.641400
  L 300.000000 164.504656
  L 296.000000 164.428467
  L 292.000000 165.305582
  L 288.000000 164.785172
  L 284.000000 163.992303
  L 280.000000 163.864082
  L 276.000000 163.743090
  L 272.000000 163.453545
  L 268.000000 164.864610
  L 264.000000 164.829708
  L 260.000000 164.839394
  L 256.000000 163.832978
  L 252.000000 163.254886
  L 248.000000 163.608234
  L 244.000000 162.654165
  L 240.000000 162.365092
  L 236.000000 162.199255
  L 232.000000 161.739843
  L 228.000000 162.650682
  L 224.000000 163.852550
  L 220.000000 164.048563
  L 216.000000 164.308687
  L 212.000000 163.859929
  L 208.000000 163.671672
  L 204.000000 162.129188
  L 200.000000 161.571303
  L 196.000000 161.978095
  L 192.000000 162.456306
  L 188.000000 163.145699
  L 184.000000 164.128245
  L 180.000000 163.737653
  L 176.000000 163.560286
  L 172.000000 162.981831
  L 168.000000 163.342674
  L 164.000000 162.915487
  L 160.000000 162.885347
  L 156.000000 162.157485
  L 152.000000 162.161777
  L 148.000000 163.094293
  L 144.000000 163.867351
  L 140.000000 163.042325
  L 136.000000 163.288482
  L 132.000000 162.894198
  L 128.000000 162.929078
  L 124.000000 162.340075
  L 120.000000 162.397648
  L 116.000000 162.197116
  L 112.000000 161.631584
  L 108.000000 161.519848
  L 104.000000 161.225354
  L 100.000000 161.632903
  L 96.000000 162.022484
  L 92.000000 162.509493
  L 88.000000 161.514232
  L 84.000000 159.929047
Z" fill="rgb(0,191,196)" fill-opacity="0.2"/>
<path d="M 84.000000 108.235356
  L 88.000000 129.661854
  L 92.000000 160.521852
  L 96.000000 155.444009
  L 100.000000 137.363479
  L 104.000000 152.325729
  L 108.000000 154.046443
  L 112.000000 157.537497
  L 116.000000 155.293134
  L 120.000000 159.457649
  L 124.000000 158.372966
  L 128.000000 156.372491
  L 132.000000 154.031720
  L 136.000000 155.326861
  L 140.000000 155.588809
  L 144.000000 156.574618
  L 148.000000 156.229750
  L 152.000000 160.195500
  L 156.000000 159.771375
  L 160.000000 158.983027
  L 164.000000 158.963297
  L 168.000000 159.001430
  L 172.000000 156.831663
  L 176.000000 157.937867
  L 180.000000 156.799810
  L 184.000000 159.609027
  L 188.000000 161.649162
  L 192.000000 161.373632
  L 196.000000 161.486037
  L 200.000000 161.464915
  L 204.000000 160.146789
  L 208.000000 158.751449
  L 212.000000 159.568904
  L 216.000000 158.388860
  L 220.000000 159.186451
  L 224.000000 159.898895
  L 228.000000 160.882290
  L 232.000000 160.407666
  L 236.000000 161.109887
  L 240.000000 160.262667
  L 244.000000 160.228851
  L 248.000000 160.950955
  L 252.000000 160.522519
  L 256.000000 158.753899
  L 260.000000 159.400928
  L 264.000000 158.743952
  L 268.000000 160.736295
  L 272.000000 161.934647
  L 276.000000 161.360122
  L 280.000000 160.732740
  L 284.000000 161.451804
  L 288.000000 162.168965
  L 292.000000 160.466562
  L 296.000000 159.854508
  L 300.000000 159.344849
  L 304.000000 159.836412
  L 308.000000 160.221143
  L 312.000000 161.950434
  L 316.000000 163.164762
  L 320.000000 163.137527
  L 324.000000 162.432809
  L 328.000000 162.510250
  L 332.000000 161.010174
  L 336.000000 161.387387
  L 340.000000 161.939019
  L 344.000000 162.296537
  L 348.000000 162.909549
  L 352.000000 164.314652
  L 356.000000 164.441522
  L 360.000000 163.536815
  L 364.000000 163.448079
  L 368.000000 164.531083
  L 372.000000 164.057446
  L 376.000000 163.884937
  L 380.000000 164.114506
  L 384.000000 163.417431
  L 388.000000 164.166825
  L 392.000000 165.475003
  L 396.000000 165.977424
  L 400.000000 165.957484
  L 404.000000 165.671291
  L 408.000000 165.797400
  L 412.000000 166.334709
  L 416.000000 166.321600
  L 420.000000 166.081246
  L 424.000000 165.142865
  L 428.000000 165.983673
  L 432.000000 167.071635
  L 436.000000 167.595754
  L 440.000000 169.597876
  L 444.000000 168.903873
  L 448.000000 169.874924
  L 452.000000 169.269991
  L 456.000000 168.380071
  L 460.000000 168.297246
  L 464.000000 168.786198
  L 468.000000 169.429283
  L 472.000000 170.139765
  L 476.000000 171.730451
  L 480.000000 172.394870
  L 484.000000 172.847879
  L 488.000000 172.241140
  L 492.000000 173.002787
  L 496.000000 172.898960
  L 500.000000 173.441618
  L 504.000000 173.584589
  L 508.000000 173.699526
  L 512.000000 174.858576
  L 516.000000 176.399069
  L 520.000000 176.591833
  L 524.000000 176.737351
  L 528.000000 177.628648
  L 532.000000 177.455092
  L 536.000000 178.319907
  L 540.000000 177.362560
  L 544.000000 174.851964
  L 548.000000 173.056572
  L 552.000000 171.382221
  L 556.000000 172.214935
  L 560.000000 174.099870
  L 564.000000 176.673623
  L 568.000000 177.536726
  L 572.000000 179.186099
  L 576.000000 181.908435
  L 580.000000 165.460069
" stroke="rgb(248,118,109)" stroke-width="2" fill-opacity="0"/>
<path d="M 84.000000 160.740512
  L 88.000000 162.334231
  L 92.000000 163.326659
  L 96.000000 162.839841
  L 100.000000 162.449080
  L 104.000000 162.038664
  L 108.000000 162.335107
  L 112.000000 162.446962
  L 116.000000 163.013836
  L 120.000000 163.213545
  L 124.000000 163.155060
  L 128.000000 163.745877
  L 132.000000 163.710701
  L 136.000000 164.104869
  L 140.000000 163.859139
  L 144.000000 164.685768
  L 148.000000 163.912051
  L 152.000000 162.977007
  L 156.000000 162.970533
  L 160.000000 163.698720
  L 164.000000 163.731659
  L 168.000000 164.159570
  L 172.000000 163.797332
  L 176.000000 164.377649
  L 180.000000 164.555380
  L 184.000000 164.944417
  L 188.000000 163.961305
  L 192.000000 163.271230
  L 196.000000 162.791661
  L 200.000000 162.380279
  L 204.000000 162.939066
  L 208.000000 164.484824
  L 212.000000 164.676069
  L 216.000000 165.126104
  L 220.000000 164.866579
  L 224.000000 164.667319
  L 228.000000 163.463199
  L 232.000000 162.550925
  L 236.000000 163.011562
  L 240.000000 163.178000
  L 244.000000 163.466732
  L 248.000000 164.421884
  L 252.000000 164.067849
  L 256.000000 164.646389
  L 260.000000 165.656792
  L 264.000000 165.644271
  L 268.000000 165.679096
  L 272.000000 164.265364
  L 276.000000 164.556543
  L 280.000000 164.679024
  L 284.000000 164.808437
  L 288.000000 165.597607
  L 292.000000 166.119907
  L 296.000000 165.243936
  L 300.000000 165.318372
  L 304.000000 166.457774
  L 308.000000 166.720258
  L 312.000000 165.864987
  L 316.000000 166.046402
  L 320.000000 166.162081
  L 324.000000 165.786240
  L 328.000000 165.976735
  L 332.000000 166.679070
  L 336.000000 167.330896
  L 340.000000 168.013778
  L 344.000000 168.732577
  L 348.000000 168.128605
  L 352.000000 167.054854
  L 356.000000 167.118362
  L 360.000000 167.045369
  L 364.000000 167.887853
  L 368.000000 168.966798
  L 372.000000 170.161676
  L 376.000000 169.494173
  L 380.000000 170.015095
  L 384.000000 170.256414
  L 388.000000 171.035189
  L 392.000000 170.598288
  L 396.000000 169.348131
  L 400.000000 170.467257
  L 404.000000 170.106014
  L 408.000000 171.944348
  L 412.000000 172.398269
  L 416.000000 172.769741
  L 420.000000 173.238490
  L 424.000000 173.920804
  L 428.000000 174.331023
  L 432.000000 175.674192
  L 436.000000 175.636032
  L 440.000000 175.367251
  L 444.000000 175.961348
  L 448.000000 177.310916
  L 452.000000 177.396688
  L 456.000000 179.026587
  L 460.000000 179.692884
  L 464.000000 180.900308
  L 468.000000 182.040255
  L 472.000000 183.088023
  L 476.000000 182.690507
  L 480.000000 180.762389
  L 484.000000 183.162102
  L 488.000000 183.801361
  L 492.000000 184.747387
  L 496.000000 185.037771
  L 500.000000 186.112290
  L 504.000000 187.792898
  L 508.000000 189.483387
  L 512.000000 188.596008
  L 516.000000 189.324773
  L 520.000000 191.626807
  L 524.000000 190.529513
  L 528.000000 194.081784
  L 532.000000 194.976232
  L 536.000000 198.565760
  L 540.000000 200.738865
  L 544.000000 200.706769
  L 548.000000 202.119993
  L 552.000000 201.627223
  L 556.000000 199.948033
  L 560.000000 202.293530
  L 564.000000 223.190918
  L 568.000000 238.061913
  L 572.000000 224.136411
  L 576.000000 305.610706
  L 580.000000 550.000498
" stroke="rgb(0,191,196)" stroke-width="2" fill-opacity="0"/>
<text x="650" y="650" text-anchor="end">--OT 3,0,0,114</text>
<line x1="92.000000" y1="580" x2="92.000000" y2="80" stroke-dasharray="5 1" stroke="rgb(248,118,109)" stroke-width="1" />
<line x1="536.000000" y1="580" x2="536.000000" y2="80" stroke-dasharray="5 1" stroke="rgb(0,191,196)" stroke-width="1" />
<rect x="590" y="310" width="20" height="20" fill="rgb(248,118,109)" />
<text x="615" y="320" text-anchor="start" dominant-baseline="middle">#1</text>
<rect x="590" y="330" width="20" height="20" fill="rgb(0,191,196)" />
<text x="615" y="340" text-anchor="start" dominant-baseline="middle">#2</text>
</svg>
