<svg height="660" width="660"
    xmlns="http://www.w3.org/2000/svg"
    xmlns:xlink="http://www.w3.org/1999/xlink"
    xmlns:ev="http://www.w3.org/2001/xml-events">
<title>Original Top Strand</title>
<rect x="0" y="0" width="660" height="660" fill="white" />
<text x="330" y="20" text-anchor="middle">Original Top Strand</text>
<line x1="80" y1="80" x2="80" y2="580" stroke="black" />
<line x1="80" y1="580" x2="580" y2="580" stroke="black" />
<text x="15" y="330" transform="rotate(270 15, 330)" text-anchor="middle" dominant-baseline="text-before-edge">CpG Methylation %</text>
<text x="330" y="620" text-anchor="middle">Position along mapped read (5'->3' of + strand)</text>
<line x1="80" y1="580" x2="80" y2="585" stroke="black" />
<text x="80" y="600" text-anchor="middle">0</text>
<line x1="120.000000" y1="80" x2="120.000000" y2="580" stroke-dasharray="5 5" stroke="grey" />
<line x1="120.000000" y1="580" x2="120.000000" y2="585" stroke="black" />
<text x="120.000000" y="600" text-anchor="middle">10</text>
<line x1="160.000000" y1="80" x2="160.000000" y2="580" stroke-dasharray="5 5" stroke="grey" />
<line x1="160.000000" y1="580" x2="160.000000" y2="585" stroke="black" />
<text x="160.000000" y="600" text-anchor="middle">20</text>
<line x1="200.000000" y1="80" x2="200.000000" y2="580" stroke-dasharray="5 5" stroke="grey" />
<line x1="200.000000" y1="580" x2="200.000000" y2="585" stroke="black" />
<text x="200.000000" y="600" text-anchor="middle">30</text>
<line x1="240.000000" y1="80" x2="240.000000" y2="580" stroke-dasharray="5 5" stroke="grey" />
<line x1="240.000000" y1="580" x2="240.000000" y2="585" stroke="black" />
<text x="240.000000" y="600" text-anchor="middle">40</text>
<line x1="280.000000" y1="80" x2="280.000000" y2="580" stroke-dasharray="5 5" stroke="grey" />
<line x1="280.000000" y1="580" x2="280.000000" y2="585" stroke="black" />
<text x="280.000000" y="600" text-anchor="middle">50</text>
<line x1="320.000000" y1="80" x2="320.000000" y2="580" stroke-dasharray="5 5" stroke="grey" />
<line x1="320.000000" y1="580" x2="320.000000" y2="585" stroke="black" />
<text x="320.000000" y="600" text-anchor="middle">60</text>
<line x1="360.000000" y1="80" x2="360.000000" y2="580" stroke-dasharray="5 5" stroke="grey" />
<line x1="360.000000" y1="580" x2="360.000000" y2="585" stroke="black" />
<text x="360.000000" y="600" text-anchor="middle">70</text>
<line x1="400.000000" y1="80" x2="400.000000" y2="580" stroke-dasharray="5 5" stroke="grey" />
<line x1="400.000000" y1="580" x2="400.000000" y2="585" stroke="black" />
<text x="400.000000" y="600" text-anchor="middle">80</text>
<line x1="440.000000" y1="80" x2="440.000000" y2="580" stroke-dasharray="5 5" stroke="grey" />
<line x1="440.000000" y1="580" x2="440.000000" y2="585" stroke="black" />
<text x="440.000000" y="600" text-anchor="middle">90</text>
<line x1="480.000000" y1="80" x2="480.000000" y2="580" stroke-dasharray="5 5" stroke="grey" />
<line x1="480.000000" y1="580" x2="480.000000" y2="585" stroke="black" />
<text x="480.000000" y="600" text-anchor="middle">100</text>
<line x1="520.000000" y1="80" x2="520.000000" y2="580" stroke-dasharray="5 5" stroke="grey" />
<line x1="520.000000" y1="580" x2="520.000000" y2="585" stroke="black" />
<text x="520.000000" y="600" text-anchor="middle">110</text>
<line x1="560.000000" y1="80" x2="560.000000" y2="580" stroke-dasharray="5 5" stroke="grey" />
<line x1="560.000000" y1="580" x2="560.000000" y2="585" stroke="black" />
<text x="560.000000" y="600" text-anchor="middle">120</text>
<line x1="80" y1="580.000000" x2="75" y2="580.000000" stroke="black" />
<text x="55" y="580.000000" text-anchor="middle" dominant-baseline="middle">0.00</text>
<line x1="80" y1="555.000000" x2="75" y2="555.000000" stroke="black" />
<text x="55" y="555.000000" text-anchor="middle" dominant-baseline="middle">0.05</text>
<line x1="80" y1="530.000000" x2="75" y2="530.000000" stroke="black" />
<text x="55" y="530.000000" text-anchor="middle" dominant-baseline="middle">0.10</text>
<line x1="80" y1="505.000000" x2="75" y2="505.000000" stroke="black" />
<text x="55" y="505.000000" text-anchor="middle" dominant-baseline="middle">0.15</text>
<line x1="80" y1="480.000000" x2="75" y2="480.000000" stroke="black" />
<text x="55" y="480.000000" text-anchor="middle" dominant-baseline="middle">0.20</text>
<line x1="80" y1="455.000000" x2="75" y2="455.000000" stroke="black" />
<text x="55" y="455.000000" text-anchor="middle" dominant-baseline="middle">0.25</text>
<line x1="80" y1="430.000000" x2="75" y2="430.000000" stroke="black" />
<text x="55" y="430.000000" text-anchor="middle" dominant-baseline="middle">0.30</text>
<line x1="80" y1="405.000000" x2="75" y2="405.000000" stroke="black" />
<text x="55" y="405.000000" text-anchor="middle" dominant-baseline="middle">0.35</text>
<line x1="80" y1="380.000000" x2="75" y2="380.000000" stroke="black" />
<text x="55" y="380.000000" text-anchor="middle" dominant-baseline="middle">0.40</text>
<line x1="80" y1="355.000000" x2="75" y2="355.000000" stroke="black" />
<text x="55" y="355.000000" text-anchor="middle" dominant-baseline="middle">0.45</text>
<line x1="80" y1="330.000000" x2="75" y2="330.000000" stroke="black" />
<text x="55" y="330.000000" text-anchor="middle" dominant-baseline="middle">0.50</text>
<line x1="80" y1="305.000000" x2="75" y2="305.000000" stroke="black" />
<text x="55" y="305.000000" text-anchor="middle" dominant-baseline="middle">0.55</text>
<line x1="80" y1="280.000000" x2="75" y2="280.000000" stroke="black" />
<text x="55" y="280.000000" text-anchor="middle" dominant-baseline="middle">0.60</text>
<line x1="80" y1="255.000000" x2="75" y2="255.000000" stroke="black" />
<text x="55" y="255.000000" text-anchor="middle" dominant-baseline="middle">0.65</text>
<line x1="80" y1="230.000000" x2="75" y2="230.000000" stroke="black" />
<text x="55" y="230.000000" text-anchor="middle" dominant-baseline="middle">0.70</text>
<line x1="80" y1="205.000000" x2="75" y2="205.000000" stroke="black" />
<text x="55" y="205.000000" text-anchor="middle" dominant-baseline="middle">0.75</text>
<line x1="80" y1="180.000000" x2="75" y2="180.000000" stroke="black" />
<text x="55" y="180.000000" text-anchor="middle" dominant-baseline="middle">0.80</text>
<line x1="80" y1="155.000000" x2="75" y2="155.000000" stroke="black" />
<text x="55" y="155.000000" text-anchor="middle" dominant-baseline="middle">0.85</text>
<line x1="80" y1="130.000000" x2="75" y2="130.000000" stroke="black" />
<text x="55" y="130.000000" text-anchor="middle" dominant-baseline="middle">0.90</text>
<line x1="80" y1="105.000000" x2="75" y2="105.000000" stroke="black" />
<text x="55" y="105.000000" text-anchor="middle" dominant-baseline="middle">0.95</text>
<line x1="80" y1="80.000000" x2="75" y2="80.000000" stroke="black" />
<text x="55" y="80.000000" text-anchor="middle" dominant-baseline="middle">1.00</text>
<path d="M 84.000000 170.062455
  L 88.000000 199.631385
  L 92.000000 205.592840
  L 96.000000 194.680418
  L 100.000000 188.889204
  L 104.000000 197.388250
  L 108.000000 200.134382
  L 112.000000 201.467576
  L 116.000000 200.752274
  L 120.000000 201.557131
  L 124.000000 200.988507
  L 128.000000 200.344594
  L 132.000000 199.748043
  L 136.000000 199.866028
  L 140.000000 200.042993
  L 144.000000 200.000513
  L 148.000000 199.925938
  L 152.000000 202.368227
  L 156.000000 202.333797
  L 160.000000 201.807470
  L 164.000000 201.356310
  L 168.000000 201.155481
  L 172.000000 198.680662
  L 176.000000 200.369317
  L 180.000000 199.829490
  L 184.000000 201.637156
  L 188.000000 201.624607
  L 192.000000 202.705349
  L 196.000000 203.221195
  L 200.000000 203.111378
  L 204.000000 202.681722
  L 208.000000 201.254254
  L 212.000000 200.480189
  L 216.000000 201.817334
  L 220.000000 200.231064
  L 224.000000 201.658795
  L 228.000000 202.938409
  L 232.000000 202.730400
  L 236.000000 202.652651
  L 240.000000 202.985299
  L 244.000000 203.519241
  L 248.000000 203.325319
  L 252.000000 202.906764
  L 256.000000 202.759218
  L 260.000000 202.097380
  L 264.000000 202.267425
  L 268.000000 203.252617
  L 272.000000 203.501010
  L 276.000000 203.690093
  L 280.000000 204.491701
  L 284.000000 204.788375
  L 288.000000 204.366887
  L 292.000000 204.417036
  L 296.000000 203.496760
  L 300.000000 203.085852
  L 304.000000 203.333456
  L 308.000000 203.378438
  L 312.000000 204.530813
  L 316.000000 204.728303
  L 320.000000 205.596740
  L 324.000000 206.001630
  L 328.000000 204.893098
  L 332.000000 203.794255
  L 336.000000 204.145539
  L 340.000000 204.248849
  L 344.000000 204.996283
  L 348.000000 204.617543
  L 352.000000 205.616173
  L 356.000000 206.160721
  L 360.000000 206.218492
  L 364.000000 206.285961
  L 368.000000 206.388645
  L 372.000000 205.526480
  L 376.000000 205.679096
  L 380.000000 205.121197
  L 384.000000 205.544955
  L 388.000000 206.338910
  L 392.000000 206.065806
  L 396.000000 206.849544
  L 400.000000 207.583653
  L 404.000000 207.413894
  L 408.000000 207.211087
  L 412.000000 207.385935
  L 416.000000 207.534596
  L 420.000000 206.964207
  L 424.000000 206.758447
  L 428.000000 206.696733
  L 432.000000 207.412322
  L 436.000000 207.474160
  L 440.000000 208.487850
  L 444.000000 209.146201
  L 448.000000 209.015171
  L 452.000000 209.322512
  L 456.000000 208.403349
  L 460.000000 208.525407
  L 464.000000 208.843027
  L 468.000000 208.857757
  L 472.000000 208.559542
  L 476.000000 209.792153
  L 480.000000 210.191058
  L 484.000000 210.953354
  L 488.000000 211.134056
  L 492.000000 211.789585
  L 496.000000 211.474816
  L 500.000000 210.695911
  L 504.000000 211.362833
  L 508.000000 210.938087
  L 512.000000 211.503436
  L 516.000000 212.322462
  L 520.000000 212.546607
  L 524.000000 213.271598
  L 528.000000 213.842476
  L 532.000000 213.756784
  L 536.000000 213.767767
  L 540.000000 212.498493
  L 544.000000 209.697439
  L 548.000000 208.340229
  L 552.000000 207.000044
  L 556.000000 208.086435
  L 560.000000 208.678585
  L 564.000000 209.291030
  L 568.000000 211.021001
  L 572.000000 212.218040
  L 576.000000 213.557326
  L 580.000000 202.708166
  L 580.000000 201.445395
  L 576.000000 212.270205
  L 572.000000 210.946491
  L 568.000000 209.760054
  L 564.000000 208.040634
  L 560.000000 207.426011
  L 556.000000 206.836562
  L 552.000000 205.754286
  L 548.000000 207.097287
  L 544.000000 208.452443
  L 540.000000 211.251607
  L 536.000000 212.527918
  L 532.000000 212.520360
  L 528.000000 212.606091
  L 524.000000 212.035182
  L 520.000000 211.312395
  L 516.000000 211.087409
  L 512.000000 210.269544
  L 508.000000 209.710741
  L 504.000000 210.135424
  L 500.000000 209.471100
  L 496.000000 210.242481
  L 492.000000 210.552226
  L 488.000000 209.903606
  L 484.000000 209.723616
  L 480.000000 208.966023
  L 476.000000 208.571562
  L 472.000000 207.345047
  L 468.000000 207.637286
  L 464.000000 207.622402
  L 460.000000 207.307436
  L 456.000000 207.187340
  L 452.000000 208.101664
  L 448.000000 207.796958
  L 444.000000 207.926180
  L 440.000000 207.269409
  L 436.000000 206.259135
  L 432.000000 206.199016
  L 428.000000 205.484042
  L 424.000000 205.546517
  L 420.000000 205.751541
  L 416.000000 206.319272
  L 412.000000 206.170576
  L 408.000000 205.998497
  L 404.000000 206.200519
  L 400.000000 206.369871
  L 396.000000 205.637680
  L 392.000000 204.853845
  L 388.000000 205.127375
  L 384.000000 204.336907
  L 380.000000 203.913355
  L 376.000000 204.469754
  L 372.000000 204.322862
  L 368.000000 205.179423
  L 364.000000 205.072441
  L 360.000000 205.007311
  L 356.000000 204.949640
  L 352.000000 204.410810
  L 348.000000 203.418605
  L 344.000000 203.786392
  L 340.000000 203.045085
  L 336.000000 202.945943
  L 332.000000 202.599958
  L 328.000000 203.690391
  L 324.000000 204.795474
  L 320.000000 204.389407
  L 316.000000 203.528436
  L 312.000000 203.327341
  L 308.000000 202.183948
  L 304.000000 202.133601
  L 300.000000 201.893604
  L 296.000000 202.296988
  L 292.000000 203.212808
  L 288.000000 203.162580
  L 284.000000 203.577618
  L 280.000000 203.290126
  L 276.000000 202.498145
  L 272.000000 202.306659
  L 268.000000 202.051257
  L 264.000000 201.074462
  L 260.000000 200.904857
  L 256.000000 201.559954
  L 252.000000 201.710707
  L 248.000000 202.125475
  L 244.000000 202.324499
  L 240.000000 201.797232
  L 236.000000 201.471876
  L 232.000000 201.538811
  L 228.000000 201.737712
  L 224.000000 200.470829
  L 220.000000 199.063500
  L 216.000000 200.625628
  L 212.000000 199.307515
  L 208.000000 200.075041
  L 204.000000 201.490993
  L 200.000000 201.913046
  L 196.000000 202.023515
  L 192.000000 201.511766
  L 188.000000 200.440302
  L 184.000000 200.441752
  L 180.000000 198.652643
  L 176.000000 199.184665
  L 172.000000 197.523114
  L 168.000000 199.970460
  L 164.000000 200.167478
  L 160.000000 200.616340
  L 156.000000 201.141017
  L 152.000000 201.168748
  L 148.000000 198.750405
  L 144.000000 198.815881
  L 140.000000 198.853178
  L 136.000000 198.674497
  L 132.000000 198.559515
  L 128.000000 199.154179
  L 124.000000 199.798358
  L 120.000000 200.372013
  L 116.000000 199.570004
  L 112.000000 200.236184
  L 108.000000 198.857105
  L 104.000000 196.180606
  L 100.000000 187.720095
  L 96.000000 193.545616
  L 92.000000 204.359953
  L 88.000000 198.194386
  L 84.000000 169.158186
Z" fill="rgb(248,118,109)" fill-opacity="0.2"/>
<path d="M 84.000000 206.898412
  L 88.000000 208.221466
  L 92.000000 208.049569
  L 96.000000 207.437728
  L 100.000000 207.273545
  L 104.000000 206.876226
  L 108.000000 206.626985
  L 112.000000 206.195636
  L 116.000000 206.913498
  L 120.000000 207.601613
  L 124.000000 208.271382
  L 128.000000 208.256398
  L 132.000000 208.364622
  L 136.000000 208.136565
  L 140.000000 208.061611
  L 144.000000 207.511131
  L 148.000000 207.507555
  L 152.000000 207.299276
  L 156.000000 207.249081
  L 160.000000 207.428460
  L 164.000000 208.185544
  L 168.000000 208.511598
  L 172.000000 208.140761
  L 176.000000 208.020971
  L 180.000000 208.317389
  L 184.000000 207.409797
  L 188.000000 206.699899
  L 192.000000 206.867951
  L 196.000000 207.179778
  L 200.000000 206.830687
  L 204.000000 206.822006
  L 208.000000 207.951604
  L 212.000000 207.737520
  L 216.000000 208.316657
  L 220.000000 207.241060
  L 224.000000 207.021196
  L 228.000000 206.784659
  L 232.000000 206.140305
  L 236.000000 206.487331
  L 240.000000 206.695717
  L 244.000000 207.240303
  L 248.000000 207.398848
  L 252.000000 206.957269
  L 256.000000 207.463553
  L 260.000000 207.301639
  L 264.000000 207.371322
  L 268.000000 206.806432
  L 272.000000 206.587705
  L 276.000000 206.308066
  L 280.000000 206.543281
  L 284.000000 206.537482
  L 288.000000 207.100408
  L 292.000000 207.226972
  L 296.000000 207.548074
  L 300.000000 207.387187
  L 304.000000 207.326261
  L 308.000000 207.001307
  L 312.000000 206.209456
  L 316.000000 206.070707
  L 320.000000 206.035648
  L 324.000000 206.316788
  L 328.000000 205.973486
  L 332.000000 207.135159
  L 336.000000 207.813679
  L 340.000000 208.554802
  L 344.000000 206.438022
  L 348.000000 207.169857
  L 352.000000 206.147152
  L 356.000000 206.688868
  L 360.000000 206.201862
  L 364.000000 206.883724
  L 368.000000 207.740108
  L 372.000000 208.100900
  L 376.000000 208.765783
  L 380.000000 208.578694
  L 384.000000 208.111238
  L 388.000000 208.426582
  L 392.000000 207.928997
  L 396.000000 207.031300
  L 400.000000 208.386526
  L 404.000000 208.513788
  L 408.000000 209.666075
  L 412.000000 209.837762
  L 416.000000 210.311124
  L 420.000000 210.201084
  L 424.000000 210.270529
  L 428.000000 210.506881
  L 432.000000 211.005650
  L 436.000000 210.647846
  L 440.000000 210.179997
  L 444.000000 212.186480
  L 448.000000 211.786338
  L 452.000000 213.092753
  L 456.000000 214.564816
  L 460.000000 216.493027
  L 464.000000 216.936701
  L 468.000000 217.473066
  L 472.000000 217.460216
  L 476.000000 217.577370
  L 480.000000 217.622599
  L 484.000000 219.790048
  L 488.000000 219.311519
  L 492.000000 222.298124
  L 496.000000 222.598519
  L 500.000000 224.787473
  L 504.000000 226.859640
  L 508.000000 228.143084
  L 512.000000 227.456107
  L 516.000000 229.106875
  L 520.000000 231.442413
  L 524.000000 232.538229
  L 528.000000 234.796696
  L 532.000000 238.251646
  L 536.000000 241.208048
  L 540.000000 244.021164
  L 544.000000 244.023809
  L 548.000000 243.854236
  L 552.000000 240.716580
  L 556.000000 241.988911
  L 560.000000 247.158798
  L 564.000000 267.899772
  L 568.000000 283.773794
  L 572.000000 280.282020
  L 576.000000 341.006996
  L 580.000000 552.158086
  L 580.000000 551.585279
  L 576.000000 339.783610
  L 572.000000 278.553176
  L 568.000000 282.336526
  L 564.000000 266.557406
  L 560.000000 245.790024
  L 556.000000 240.648002
  L 552.000000 239.299768
  L 548.000000 242.485381
  L 544.000000 242.702891
  L 540.000000 242.700640
  L 536.000000 239.890955
  L 532.000000 236.937329
  L 528.000000 233.494881
  L 524.000000 231.240019
  L 520.000000 230.148030
  L 516.000000 227.822850
  L 512.000000 226.184553
  L 508.000000 226.858510
  L 504.000000 225.585633
  L 500.000000 223.517923
  L 496.000000 221.337952
  L 492.000000 221.043912
  L 488.000000 218.084717
  L 484.000000 218.537826
  L 480.000000 216.384429
  L 476.000000 216.326701
  L 472.000000 216.223012
  L 468.000000 216.228232
  L 464.000000 215.693460
  L 460.000000 215.248487
  L 456.000000 213.331116
  L 452.000000 211.869833
  L 448.000000 210.572595
  L 444.000000 210.959092
  L 440.000000 208.979430
  L 436.000000 209.429429
  L 432.000000 209.778229
  L 428.000000 209.288678
  L 424.000000 209.063143
  L 420.000000 208.987413
  L 416.000000 209.090562
  L 412.000000 208.615492
  L 408.000000 208.443361
  L 404.000000 207.293082
  L 400.000000 207.169103
  L 396.000000 205.822116
  L 392.000000 206.712157
  L 388.000000 207.214397
  L 384.000000 206.901680
  L 380.000000 207.361401
  L 376.000000 207.541023
  L 372.000000 206.883155
  L 368.000000 206.522715
  L 364.000000 205.671411
  L 360.000000 204.997421
  L 356.000000 205.475620
  L 352.000000 204.941076
  L 348.000000 205.956014
  L 344.000000 205.231405
  L 340.000000 207.336348
  L 336.000000 206.599427
  L 332.000000 205.922912
  L 328.000000 204.771353
  L 324.000000 205.106415
  L 320.000000 204.824286
  L 316.000000 204.856430
  L 312.000000 205.005159
  L 308.000000 205.789770
  L 304.000000 206.110367
  L 300.000000 206.171984
  L 296.000000 206.330989
  L 292.000000 206.012216
  L 288.000000 205.891478
  L 284.000000 205.324286
  L 280.000000 205.327981
  L 276.000000 205.096362
  L 272.000000 205.372342
  L 268.000000 205.591990
  L 264.000000 206.156826
  L 260.000000 206.087178
  L 256.000000 206.249790
  L 252.000000 205.745777
  L 248.000000 206.183707
  L 244.000000 206.026667
  L 240.000000 205.484485
  L 236.000000 205.276652
  L 232.000000 204.928598
  L 228.000000 205.572272
  L 224.000000 205.807240
  L 220.000000 206.025465
  L 216.000000 207.097901
  L 212.000000 206.522240
  L 208.000000 206.734225
  L 204.000000 205.610625
  L 200.000000 205.616477
  L 196.000000 205.962953
  L 192.000000 205.652764
  L 188.000000 205.488790
  L 184.000000 206.196733
  L 180.000000 207.096382
  L 176.000000 206.799638
  L 172.000000 206.918566
  L 168.000000 207.284337
  L 164.000000 206.962445
  L 160.000000 206.212445
  L 156.000000 206.032960
  L 152.000000 206.082497
  L 148.000000 206.285337
  L 144.000000 206.291232
  L 140.000000 206.838371
  L 136.000000 206.914641
  L 132.000000 207.145767
  L 128.000000 207.036439
  L 124.000000 207.050456
  L 120.000000 206.378605
  L 116.000000 205.695003
  L 112.000000 204.983151
  L 108.000000 205.412638
  L 104.000000 205.661727
  L 100.000000 206.057915
  L 96.000000 206.224761
  L 92.000000 206.829517
  L 88.000000 206.997822
  L 84.000000 205.685979
Z" fill="rgb(0,191,196)" fill-opacity="0.2"/>
<path d="M 84.000000 169.609429
  L 88.000000 198.911392
  L 92.000000 204.975383
  L 96.000000 194.112024
  L 100.000000 188.303508
  L 104.000000 196.783343
  L 108.000000 199.494573
  L 112.000000 200.850812
  L 116.000000 200.160145
  L 120.000000 200.963584
  L 124.000000 200.392429
  L 128.000000 199.748373
  L 132.000000 199.152761
  L 136.000000 199.269241
  L 140.000000 199.447069
  L 144.000000 199.407189
  L 148.000000 199.337178
  L 152.000000 201.767486
  L 156.000000 201.736417
  L 160.000000 201.210910
  L 164.000000 200.760897
  L 168.000000 200.561977
  L 172.000000 198.100909
  L 176.000000 199.775987
  L 180.000000 199.240069
  L 184.000000 201.038450
  L 188.000000 201.031469
  L 192.000000 202.107571
  L 196.000000 202.621368
  L 200.000000 202.511222
  L 204.000000 202.085375
  L 208.000000 200.663665
  L 212.000000 199.892871
  L 216.000000 201.220485
  L 220.000000 199.646305
  L 224.000000 201.063821
  L 228.000000 202.337065
  L 232.000000 202.133622
  L 236.000000 202.061297
  L 240.000000 202.390291
  L 244.000000 202.920891
  L 248.000000 202.724408
  L 252.000000 202.307747
  L 256.000000 202.158590
  L 260.000000 201.500125
  L 264.000000 201.669952
  L 268.000000 202.650944
  L 272.000000 202.902856
  L 276.000000 203.093147
  L 280.000000 203.889937
  L 284.000000 204.182009
  L 288.000000 203.763750
  L 292.000000 203.813940
  L 296.000000 202.895887
  L 300.000000 202.488748
  L 304.000000 202.732539
  L 308.000000 202.780213
  L 312.000000 203.928098
  L 316.000000 204.127399
  L 320.000000 204.992102
  L 324.000000 205.397587
  L 328.000000 204.290771
  L 332.000000 203.196133
  L 336.000000 203.544763
  L 340.000000 203.645984
  L 344.000000 204.390353
  L 348.000000 204.017103
  L 352.000000 205.012523
  L 356.000000 205.554210
  L 360.000000 205.611932
  L 364.000000 205.678228
  L 368.000000 205.783069
  L 372.000000 204.923704
  L 376.000000 205.073451
  L 380.000000 204.516297
  L 384.000000 204.939957
  L 388.000000 205.732173
  L 392.000000 205.458852
  L 396.000000 206.242649
  L 400.000000 206.975805
  L 404.000000 206.806248
  L 408.000000 206.603832
  L 412.000000 206.777294
  L 416.000000 206.925974
  L 420.000000 206.356911
  L 424.000000 206.151517
  L 428.000000 206.089421
  L 432.000000 206.804711
  L 436.000000 206.865688
  L 440.000000 207.877677
  L 444.000000 208.535244
  L 448.000000 208.405119
  L 452.000000 208.711142
  L 456.000000 207.794394
  L 460.000000 207.915470
  L 464.000000 208.231763
  L 468.000000 208.246571
  L 472.000000 207.951349
  L 476.000000 209.180918
  L 480.000000 209.577599
  L 484.000000 210.337546
  L 488.000000 210.517893
  L 492.000000 211.169965
  L 496.000000 210.857712
  L 500.000000 210.082571
  L 504.000000 210.748198
  L 508.000000 210.323479
  L 512.000000 210.885551
  L 516.000000 211.704005
  L 520.000000 211.928575
  L 524.000000 212.652470
  L 528.000000 213.223371
  L 532.000000 213.137658
  L 536.000000 213.146923
  L 540.000000 211.874104
  L 544.000000 209.073962
  L 548.000000 207.717764
  L 552.000000 206.376149
  L 556.000000 207.460490
  L 560.000000 208.051294
  L 564.000000 208.664840
  L 568.000000 210.389541
  L 572.000000 211.581278
  L 576.000000 212.912772
  L 580.000000 202.075675
" stroke="rgb(248,118,109)" stroke-width="2" fill-opacity="0"/>
<path d="M 84.000000 206.291232
  L 88.000000 207.608680
  L 92.000000 207.438582
  L 96.000000 206.830287
  L 100.000000 206.664767
  L 104.000000 206.268010
  L 108.000000 206.018842
  L 112.000000 205.588421
  L 116.000000 206.303278
  L 120.000000 206.989138
  L 124.000000 207.659960
  L 128.000000 207.645461
  L 132.000000 207.754240
  L 136.000000 207.524640
  L 140.000000 207.449026
  L 144.000000 206.900214
  L 148.000000 206.895475
  L 152.000000 206.689922
  L 156.000000 206.640056
  L 160.000000 206.819491
  L 164.000000 207.573031
  L 168.000000 207.897001
  L 172.000000 207.528701
  L 176.000000 207.409342
  L 180.000000 207.705927
  L 184.000000 206.802307
  L 188.000000 206.093381
  L 192.000000 206.259389
  L 196.000000 206.570399
  L 200.000000 206.222615
  L 204.000000 206.215353
  L 208.000000 207.341957
  L 212.000000 207.128923
  L 216.000000 207.706324
  L 220.000000 206.632298
  L 224.000000 206.413254
  L 228.000000 206.177501
  L 232.000000 205.533480
  L 236.000000 205.881026
  L 240.000000 206.089137
  L 244.000000 206.632524
  L 248.000000 206.790316
  L 252.000000 206.350562
  L 256.000000 206.855713
  L 260.000000 206.693447
  L 264.000000 206.763113
  L 268.000000 206.198243
  L 272.000000 205.979051
  L 276.000000 205.701244
  L 280.000000 205.934658
  L 284.000000 205.929915
  L 288.000000 206.494988
  L 292.000000 206.618631
  L 296.000000 206.938569
  L 300.000000 206.778624
  L 304.000000 206.717351
  L 308.000000 206.394578
  L 312.000000 205.606348
  L 316.000000 205.462591
  L 320.000000 205.428994
  L 324.000000 205.710634
  L 328.000000 205.371461
  L 332.000000 206.528076
  L 336.000000 207.205599
  L 340.000000 207.944623
  L 344.000000 205.833753
  L 348.000000 206.561974
  L 352.000000 205.543151
  L 356.000000 206.081277
  L 360.000000 205.598683
  L 364.000000 206.276604
  L 368.000000 207.130451
  L 372.000000 207.491071
  L 376.000000 208.152444
  L 380.000000 207.969098
  L 384.000000 207.505516
  L 388.000000 207.819546
  L 392.000000 207.319620
  L 396.000000 206.425752
  L 400.000000 207.776862
  L 404.000000 207.902479
  L 408.000000 209.053774
  L 412.000000 209.225685
  L 416.000000 209.699910
  L 420.000000 209.593325
  L 424.000000 209.665923
  L 428.000000 209.896853
  L 432.000000 210.391005
  L 436.000000 210.037712
  L 440.000000 209.578810
  L 444.000000 211.571866
  L 448.000000 211.178562
  L 452.000000 212.480390
  L 456.000000 213.947066
  L 460.000000 215.869864
  L 464.000000 216.314194
  L 468.000000 216.849767
  L 472.000000 216.840743
  L 476.000000 216.951147
  L 480.000000 217.002643
  L 484.000000 219.163071
  L 488.000000 218.697282
  L 492.000000 221.670178
  L 496.000000 221.967391
  L 500.000000 224.151866
  L 504.000000 226.221822
  L 508.000000 227.499984
  L 512.000000 226.819526
  L 516.000000 228.464061
  L 520.000000 230.794432
  L 524.000000 231.888342
  L 528.000000 234.145026
  L 532.000000 237.593748
  L 536.000000 240.548790
  L 540.000000 243.360215
  L 544.000000 243.362663
  L 548.000000 243.169069
  L 552.000000 240.007344
  L 556.000000 241.317727
  L 560.000000 246.473707
  L 564.000000 267.228106
  L 568.000000 283.054758
  L 572.000000 279.416967
  L 576.000000 340.395366
  L 580.000000 551.873054
" stroke="rgb(0,191,196)" stroke-width="2" fill-opacity="0"/>
<text x="650" y="650" text-anchor="end">--OT 2,0,0,111</text>
<line x1="88.000000" y1="580" x2="88.000000" y2="80" stroke-dasharray="5 1" stroke="rgb(248,118,109)" stroke-width="1" />
<line x1="524.000000" y1="580" x2="524.000000" y2="80" stroke-dasharray="5 1" stroke="rgb(0,191,196)" stroke-width="1" />
<rect x="590" y="310" width="20" height="20" fill="rgb(248,118,109)" />
<text x="615" y="320" text-anchor="start" dominant-baseline="middle">#1</text>
<rect x="590" y="330" width="20" height="20" fill="rgb(0,191,196)" />
<text x="615" y="340" text-anchor="start" dominant-baseline="middle">#2</text>
</svg>
