<svg height="660" width="660"
    xmlns="http://www.w3.org/2000/svg"
    xmlns:xlink="http://www.w3.org/1999/xlink"
    xmlns:ev="http://www.w3.org/2001/xml-events">
<title>Original Bottom Strand</title>
<rect x="0" y="0" width="660" height="660" fill="white" />
<text x="330" y="20" text-anchor="middle">Original Bottom Strand</text>
<line x1="80" y1="80" x2="80" y2="580" stroke="black" />
<line x1="80" y1="580" x2="580" y2="580" stroke="black" />
<text x="15" y="330" transform="rotate(270 15, 330)" text-anchor="middle" dominant-baseline="text-before-edge">CpG Methylation %</text>
<text x="330" y="620" text-anchor="middle">Position along mapped read (5'->3' of + strand)</text>
<line x1="80" y1="580" x2="80" y2="585" stroke="black" />
<text x="80" y="600" text-anchor="middle">0</text>
<line x1="120.000000" y1="80" x2="120.000000" y2="580" stroke-dasharray="5 5" stroke="grey" />
<line x1="120.000000" y1="580" x2="120.000000" y2="585" stroke="black" />
<text x="120.000000" y="600" text-anchor="middle">10</text>
<line x1="160.000000" y1="80" x2="160.000000" y2="580" stroke-dasharray="5 5" stroke="grey" />
<line x1="160.000000" y1="580" x2="160.000000" y2="585" stroke="black" />
<text x="160.000000" y="600" text-anchor="middle">20</text>
<line x1="200.000000" y1="80" x2="200.000000" y2="580" stroke-dasharray="5 5" stroke="grey" />
<line x1="200.000000" y1="580" x2="200.000000" y2="585" stroke="black" />
<text x="200.000000" y="600" text-anchor="middle">30</text>
<line x1="240.000000" y1="80" x2="240.000000" y2="580" stroke-dasharray="5 5" stroke="grey" />
<line x1="240.000000" y1="580" x2="240.000000" y2="585" stroke="black" />
<text x="240.000000" y="600" text-anchor="middle">40</text>
<line x1="280.000000" y1="80" x2="280.000000" y2="580" stroke-dasharray="5 5" stroke="grey" />
<line x1="280.000000" y1="580" x2="280.000000" y2="585" stroke="black" />
<text x="280.000000" y="600" text-anchor="middle">50</text>
<line x1="320.000000" y1="80" x2="320.000000" y2="580" stroke-dasharray="5 5" stroke="grey" />
<line x1="320.000000" y1="580" x2="320.000000" y2="585" stroke="black" />
<text x="320.000000" y="600" text-anchor="middle">60</text>
<line x1="360.000000" y1="80" x2="360.000000" y2="580" stroke-dasharray="5 5" stroke="grey" />
<line x1="360.000000" y1="580" x2="360.000000" y2="585" stroke="black" />
<text x="360.000000" y="600" text-anchor="middle">70</text>
<line x1="400.000000" y1="80" x2="400.000000" y2="580" stroke-dasharray="5 5" stroke="grey" />
<line x1="400.000000" y1="580" x2="400.000000" y2="585" stroke="black" />
<text x="400.000000" y="600" text-anchor="middle">80</text>
<line x1="440.000000" y1="80" x2="440.000000" y2="580" stroke-dasharray="5 5" stroke="grey" />
<line x1="440.000000" y1="580" x2="440.000000" y2="585" stroke="black" />
<text x="440.000000" y="600" text-anchor="middle">90</text>
<line x1="480.000000" y1="80" x2="480.000000" y2="580" stroke-dasharray="5 5" stroke="grey" />
<line x1="480.000000" y1="580" x2="480.000000" y2="585" stroke="black" />
<text x="480.000000" y="600" text-anchor="middle">100</text>
<line x1="520.000000" y1="80" x2="520.000000" y2="580" stroke-dasharray="5 5" stroke="grey" />
<line x1="520.000000" y1="580" x2="520.000000" y2="585" stroke="black" />
<text x="520.000000" y="600" text-anchor="middle">110</text>
<line x1="560.000000" y1="80" x2="560.000000" y2="580" stroke-dasharray="5 5" stroke="grey" />
<line x1="560.000000" y1="580" x2="560.000000" y2="585" stroke="black" />
<text x="560.000000" y="600" text-anchor="middle">120</text>
<line x1="80" y1="580.000000" x2="75" y2="580.000000" stroke="black" />
<text x="55" y="580.000000" text-anchor="middle" dominant-baseline="middle">0.00</text>
<line x1="80" y1="555.000000" x2="75" y2="555.000000" stroke="black" />
<text x="55" y="555.000000" text-anchor="middle" dominant-baseline="middle">0.05</text>
<line x1="80" y1="530.000000" x2="75" y2="530.000000" stroke="black" />
<text x="55" y="530.000000" text-anchor="middle" dominant-baseline="middle">0.10</text>
<line x1="80" y1="505.000000" x2="75" y2="505.000000" stroke="black" />
<text x="55" y="505.000000" text-anchor="middle" dominant-baseline="middle">0.15</text>
<line x1="80" y1="480.000000" x2="75" y2="480.000000" stroke="black" />
<text x="55" y="480.000000" text-anchor="middle" dominant-baseline="middle">0.20</text>
<line x1="80" y1="455.000000" x2="75" y2="455.000000" stroke="black" />
<text x="55" y="455.000000" text-anchor="middle" dominant-baseline="middle">0.25</text>
<line x1="80" y1="430.000000" x2="75" y2="430.000000" stroke="black" />
<text x="55" y="430.000000" text-anchor="middle" dominant-baseline="middle">0.30</text>
<line x1="80" y1="405.000000" x2="75" y2="405.000000" stroke="black" />
<text x="55" y="405.000000" text-anchor="middle" dominant-baseline="middle">0.35</text>
<line x1="80" y1="380.000000" x2="75" y2="380.000000" stroke="black" />
<text x="55" y="380.000000" text-anchor="middle" dominant-baseline="middle">0.40</text>
<line x1="80" y1="355.000000" x2="75" y2="355.000000" stroke="black" />
<text x="55" y="355.000000" text-anchor="middle" dominant-baseline="middle">0.45</text>
<line x1="80" y1="330.000000" x2="75" y2="330.000000" stroke="black" />
<text x="55" y="330.000000" text-anchor="middle" dominant-baseline="middle">0.50</text>
<line x1="80" y1="305.000000" x2="75" y2="305.000000" stroke="black" />
<text x="55" y="305.000000" text-anchor="middle" dominant-baseline="middle">0.55</text>
<line x1="80" y1="280.000000" x2="75" y2="280.000000" stroke="black" />
<text x="55" y="280.000000" text-anchor="middle" dominant-baseline="middle">0.60</text>
<line x1="80" y1="255.000000" x2="75" y2="255.000000" stroke="black" />
<text x="55" y="255.000000" text-anchor="middle" dominant-baseline="middle">0.65</text>
<line x1="80" y1="230.000000" x2="75" y2="230.000000" stroke="black" />
<text x="55" y="230.000000" text-anchor="middle" dominant-baseline="middle">0.70</text>
<line x1="80" y1="205.000000" x2="75" y2="205.000000" stroke="black" />
<text x="55" y="205.000000" text-anchor="middle" dominant-baseline="middle">0.75</text>
<line x1="80" y1="180.000000" x2="75" y2="180.000000" stroke="black" />
<text x="55" y="180.000000" text-anchor="middle" dominant-baseline="middle">0.80</text>
<line x1="80" y1="155.000000" x2="75" y2="155.000000" stroke="black" />
<text x="55" y="155.000000" text-anchor="middle" dominant-baseline="middle">0.85</text>
<line x1="80" y1="130.000000" x2="75" y2="130.000000" stroke="black" />
<text x="55" y="130.000000" text-anchor="middle" dominant-baseline="middle">0.90</text>
<line x1="80" y1="105.000000" x2="75" y2="105.000000" stroke="black" />
<text x="55" y="105.000000" text-anchor="middle" dominant-baseline="middle">0.95</text>
<line x1="80" y1="80.000000" x2="75" y2="80.000000" stroke="black" />
<text x="55" y="80.000000" text-anchor="middle" dominant-baseline="middle">1.00</text>
<path d="M 84.000000 208.935087
  L 88.000000 213.438617
  L 92.000000 214.389987
  L 96.000000 214.354021
  L 100.000000 211.787065
  L 104.000000 212.211258
  L 108.000000 212.553132
  L 112.000000 213.062643
  L 116.000000 213.393156
  L 120.000000 213.480072
  L 124.000000 213.264199
  L 128.000000 213.581861
  L 132.000000 213.426097
  L 136.000000 213.834757
  L 140.000000 213.190450
  L 144.000000 212.509566
  L 148.000000 211.819582
  L 152.000000 211.656508
  L 156.000000 209.901191
  L 160.000000 210.593874
  L 164.000000 211.000494
  L 168.000000 211.569310
  L 172.000000 211.235214
  L 176.000000 212.236263
  L 180.000000 211.461653
  L 184.000000 210.540527
  L 188.000000 209.091366
  L 192.000000 208.547201
  L 196.000000 208.909765
  L 200.000000 209.125630
  L 204.000000 208.864906
  L 208.000000 209.167056
  L 212.000000 209.957484
  L 216.000000 209.152961
  L 220.000000 208.608522
  L 224.000000 208.509747
  L 228.000000 207.221545
  L 232.000000 207.625667
  L 236.000000 206.976617
  L 240.000000 206.961113
  L 244.000000 207.356211
  L 248.000000 207.841569
  L 252.000000 207.142317
  L 256.000000 207.211232
  L 260.000000 207.373122
  L 264.000000 207.494515
  L 268.000000 207.024696
  L 272.000000 207.297350
  L 276.000000 206.629545
  L 280.000000 205.956184
  L 284.000000 205.777734
  L 288.000000 206.070363
  L 292.000000 206.547398
  L 296.000000 206.588615
  L 300.000000 206.537353
  L 304.000000 206.467339
  L 308.000000 206.424891
  L 312.000000 205.436396
  L 316.000000 204.959485
  L 320.000000 204.909211
  L 324.000000 204.809742
  L 328.000000 205.127268
  L 332.000000 204.712809
  L 336.000000 205.857006
  L 340.000000 206.173915
  L 344.000000 205.980407
  L 348.000000 204.467566
  L 352.000000 205.154857
  L 356.000000 204.375208
  L 360.000000 205.084126
  L 364.000000 204.232332
  L 368.000000 205.123647
  L 372.000000 205.090517
  L 376.000000 205.385975
  L 380.000000 205.006016
  L 384.000000 204.830984
  L 388.000000 204.232744
  L 392.000000 203.816910
  L 396.000000 203.834914
  L 400.000000 203.004885
  L 404.000000 203.388227
  L 408.000000 202.967332
  L 412.000000 203.450197
  L 416.000000 204.989702
  L 420.000000 203.747171
  L 424.000000 203.587819
  L 428.000000 203.358132
  L 432.000000 203.150984
  L 436.000000 203.350154
  L 440.000000 202.380051
  L 444.000000 200.489828
  L 448.000000 202.972793
  L 452.000000 201.031937
  L 456.000000 201.966030
  L 460.000000 202.921506
  L 464.000000 204.258534
  L 468.000000 203.689439
  L 472.000000 202.627731
  L 476.000000 202.471377
  L 480.000000 201.925170
  L 484.000000 200.337315
  L 488.000000 201.523877
  L 492.000000 199.004619
  L 496.000000 203.264511
  L 500.000000 200.205977
  L 504.000000 204.970789
  L 508.000000 200.539033
  L 512.000000 206.334652
  L 516.000000 200.481520
  L 520.000000 202.039616
  L 524.000000 201.707922
  L 528.000000 201.699470
  L 532.000000 201.716947
  L 536.000000 201.768738
  L 540.000000 201.092227
  L 544.000000 201.901310
  L 548.000000 196.768560
  L 552.000000 200.141504
  L 556.000000 198.635883
  L 560.000000 195.233184
  L 564.000000 187.247961
  L 568.000000 192.549924
  L 572.000000 202.996641
  L 576.000000 198.216054
  L 580.000000 168.758691
  L 580.000000 167.803321
  L 576.000000 196.697133
  L 572.000000 201.698120
  L 568.000000 191.356428
  L 564.000000 186.020184
  L 560.000000 193.981445
  L 556.000000 197.308559
  L 552.000000 198.859930
  L 548.000000 195.555834
  L 544.000000 200.664682
  L 540.000000 199.872848
  L 536.000000 200.550433
  L 532.000000 200.500067
  L 528.000000 200.481953
  L 524.000000 200.491328
  L 520.000000 200.827654
  L 516.000000 199.286237
  L 512.000000 205.109812
  L 508.000000 199.345325
  L 504.000000 203.759586
  L 500.000000 199.018440
  L 496.000000 202.065303
  L 492.000000 197.843151
  L 488.000000 200.331576
  L 484.000000 199.155853
  L 480.000000 200.730007
  L 476.000000 201.282984
  L 472.000000 201.437579
  L 468.000000 202.486624
  L 464.000000 203.052016
  L 460.000000 201.725347
  L 456.000000 200.780249
  L 452.000000 199.854982
  L 448.000000 201.772311
  L 444.000000 199.317763
  L 440.000000 201.185602
  L 436.000000 202.146028
  L 432.000000 201.955955
  L 428.000000 202.167245
  L 424.000000 202.394595
  L 420.000000 202.546884
  L 416.000000 203.781111
  L 412.000000 202.250388
  L 408.000000 201.768240
  L 404.000000 202.190277
  L 400.000000 201.806335
  L 396.000000 202.629465
  L 392.000000 202.620180
  L 388.000000 203.037000
  L 384.000000 203.626575
  L 380.000000 203.798014
  L 376.000000 204.175080
  L 372.000000 203.877600
  L 368.000000 203.912499
  L 364.000000 203.029002
  L 360.000000 203.870166
  L 356.000000 203.170548
  L 352.000000 203.945119
  L 348.000000 203.270077
  L 344.000000 204.770173
  L 340.000000 204.966320
  L 336.000000 204.648041
  L 332.000000 203.513290
  L 328.000000 203.920117
  L 324.000000 203.600723
  L 320.000000 203.702182
  L 316.000000 203.757093
  L 312.000000 204.231437
  L 308.000000 205.210422
  L 304.000000 205.251900
  L 300.000000 205.321422
  L 296.000000 205.376778
  L 292.000000 205.340062
  L 288.000000 204.857644
  L 284.000000 204.570804
  L 280.000000 204.741395
  L 276.000000 205.413895
  L 272.000000 206.078597
  L 268.000000 205.813579
  L 264.000000 206.279456
  L 260.000000 206.160908
  L 256.000000 205.999335
  L 252.000000 205.932326
  L 248.000000 206.628529
  L 244.000000 206.138202
  L 240.000000 205.743844
  L 236.000000 205.759730
  L 232.000000 206.406818
  L 228.000000 206.008403
  L 224.000000 207.287480
  L 220.000000 207.391853
  L 216.000000 207.933318
  L 212.000000 208.732805
  L 208.000000 207.941304
  L 204.000000 207.640268
  L 200.000000 207.898805
  L 196.000000 207.684843
  L 192.000000 207.332222
  L 188.000000 207.872317
  L 184.000000 209.308309
  L 180.000000 210.224814
  L 176.000000 210.992497
  L 172.000000 210.001225
  L 168.000000 210.332621
  L 164.000000 209.773167
  L 160.000000 209.368419
  L 156.000000 208.683822
  L 152.000000 210.418573
  L 148.000000 210.585001
  L 144.000000 211.270182
  L 140.000000 211.953586
  L 136.000000 212.594661
  L 132.000000 212.191716
  L 128.000000 212.346241
  L 124.000000 212.026267
  L 120.000000 212.238957
  L 116.000000 212.170090
  L 112.000000 211.842510
  L 108.000000 211.333163
  L 104.000000 211.015667
  L 100.000000 210.602231
  L 96.000000 213.156687
  L 92.000000 213.198417
  L 88.000000 212.278753
  L 84.000000 207.700506
Z" fill="rgb(248,118,109)" fill-opacity="0.2"/>
<path d="M 84.000000 552.220786
  L 88.000000 340.148560
  L 92.000000 278.956018
  L 96.000000 283.280148
  L 100.000000 267.566261
  L 104.000000 247.076106
  L 108.000000 241.780185
  L 112.000000 240.805169
  L 116.000000 244.572888
  L 120.000000 244.521014
  L 124.000000 244.435467
  L 128.000000 241.703225
  L 132.000000 238.620549
  L 136.000000 235.785534
  L 140.000000 232.539033
  L 144.000000 232.055230
  L 148.000000 229.470692
  L 152.000000 228.517965
  L 156.000000 228.533316
  L 160.000000 228.177730
  L 164.000000 224.982264
  L 168.000000 223.494981
  L 172.000000 222.337832
  L 176.000000 219.712003
  L 180.000000 220.191997
  L 184.000000 218.161415
  L 188.000000 218.464252
  L 192.000000 218.261992
  L 196.000000 217.770683
  L 200.000000 217.857281
  L 204.000000 216.517499
  L 208.000000 215.362382
  L 212.000000 213.654068
  L 216.000000 212.748894
  L 220.000000 212.794389
  L 224.000000 210.786467
  L 228.000000 211.596267
  L 232.000000 212.069536
  L 236.000000 211.059840
  L 240.000000 210.622850
  L 244.000000 211.238213
  L 248.000000 210.911788
  L 252.000000 210.855578
  L 256.000000 210.099416
  L 260.000000 209.688020
  L 264.000000 208.528506
  L 268.000000 207.825018
  L 272.000000 208.830848
  L 276.000000 208.536858
  L 280.000000 209.099472
  L 284.000000 209.205761
  L 288.000000 209.609430
  L 292.000000 209.056265
  L 296.000000 208.186039
  L 300.000000 207.595553
  L 304.000000 206.844616
  L 308.000000 207.077758
  L 312.000000 207.179178
  L 316.000000 207.821991
  L 320.000000 207.857131
  L 324.000000 209.024095
  L 328.000000 208.759589
  L 332.000000 207.949853
  L 336.000000 206.793415
  L 340.000000 206.973031
  L 344.000000 206.696859
  L 348.000000 206.920598
  L 352.000000 207.079199
  L 356.000000 207.352243
  L 360.000000 208.056661
  L 364.000000 207.714616
  L 368.000000 208.195642
  L 372.000000 208.177702
  L 376.000000 207.756287
  L 380.000000 207.331347
  L 384.000000 206.908340
  L 388.000000 207.231410
  L 392.000000 206.990734
  L 396.000000 207.469002
  L 400.000000 207.712947
  L 404.000000 208.317304
  L 408.000000 208.116717
  L 412.000000 207.868662
  L 416.000000 207.415931
  L 420.000000 207.800259
  L 424.000000 207.423151
  L 428.000000 206.853359
  L 432.000000 206.997850
  L 436.000000 207.637878
  L 440.000000 207.767630
  L 444.000000 208.388397
  L 448.000000 208.763541
  L 452.000000 208.998159
  L 456.000000 208.972037
  L 460.000000 207.866416
  L 464.000000 207.610105
  L 468.000000 207.949563
  L 472.000000 207.621986
  L 476.000000 207.718890
  L 480.000000 207.902653
  L 484.000000 209.184290
  L 488.000000 209.039074
  L 492.000000 208.959933
  L 496.000000 209.360340
  L 500.000000 208.775181
  L 504.000000 208.009112
  L 508.000000 207.802266
  L 512.000000 207.695270
  L 516.000000 207.888144
  L 520.000000 208.048488
  L 524.000000 208.688044
  L 528.000000 208.633283
  L 532.000000 209.116488
  L 536.000000 209.141092
  L 540.000000 208.733027
  L 544.000000 208.037450
  L 548.000000 207.706061
  L 552.000000 207.143085
  L 556.000000 207.345880
  L 560.000000 207.121183
  L 564.000000 207.764578
  L 568.000000 207.995530
  L 572.000000 208.732309
  L 576.000000 208.979136
  L 580.000000 207.993487
  L 580.000000 206.764985
  L 576.000000 207.746243
  L 572.000000 207.504347
  L 568.000000 206.774135
  L 564.000000 206.543934
  L 560.000000 205.901024
  L 556.000000 206.126417
  L 552.000000 205.925066
  L 548.000000 206.481043
  L 544.000000 206.810511
  L 540.000000 207.507022
  L 536.000000 207.913743
  L 532.000000 207.891447
  L 528.000000 207.406748
  L 524.000000 207.461574
  L 520.000000 206.822853
  L 516.000000 206.661718
  L 512.000000 206.473731
  L 508.000000 206.582148
  L 504.000000 206.788257
  L 500.000000 207.546800
  L 496.000000 208.127361
  L 492.000000 207.731992
  L 488.000000 207.811828
  L 484.000000 207.957861
  L 480.000000 206.684272
  L 476.000000 206.501763
  L 472.000000 206.401711
  L 468.000000 206.727431
  L 464.000000 206.391488
  L 460.000000 206.649789
  L 456.000000 207.747999
  L 452.000000 207.777718
  L 448.000000 207.540754
  L 444.000000 207.165636
  L 440.000000 206.548778
  L 436.000000 206.419775
  L 432.000000 205.780662
  L 428.000000 205.638159
  L 424.000000 206.207870
  L 420.000000 206.582202
  L 416.000000 206.197895
  L 412.000000 206.652009
  L 408.000000 206.898215
  L 404.000000 207.097722
  L 400.000000 206.496061
  L 396.000000 206.248999
  L 392.000000 205.773877
  L 388.000000 206.013818
  L 384.000000 205.689749
  L 380.000000 206.114808
  L 376.000000 206.541651
  L 372.000000 206.958113
  L 368.000000 206.974179
  L 364.000000 206.494770
  L 360.000000 206.836561
  L 356.000000 206.137933
  L 352.000000 205.869765
  L 348.000000 205.701222
  L 344.000000 205.480811
  L 340.000000 205.758605
  L 336.000000 205.585172
  L 332.000000 206.732219
  L 328.000000 207.539742
  L 324.000000 207.799800
  L 320.000000 206.643776
  L 316.000000 206.603445
  L 312.000000 205.967814
  L 308.000000 205.860687
  L 304.000000 205.635955
  L 300.000000 206.376973
  L 296.000000 206.964565
  L 292.000000 207.832545
  L 288.000000 208.378500
  L 284.000000 207.983005
  L 280.000000 207.884184
  L 276.000000 207.321699
  L 272.000000 207.608821
  L 268.000000 206.611611
  L 264.000000 207.308853
  L 260.000000 208.460780
  L 256.000000 208.873937
  L 252.000000 209.628084
  L 248.000000 209.686677
  L 244.000000 210.018268
  L 240.000000 209.411078
  L 236.000000 209.839336
  L 232.000000 210.835324
  L 228.000000 210.372154
  L 224.000000 209.580852
  L 220.000000 211.562491
  L 216.000000 211.529395
  L 212.000000 212.427106
  L 208.000000 214.124816
  L 204.000000 215.271175
  L 200.000000 216.607915
  L 196.000000 216.523020
  L 192.000000 217.020586
  L 188.000000 217.208777
  L 184.000000 216.920644
  L 180.000000 218.936075
  L 176.000000 218.482265
  L 172.000000 221.080160
  L 168.000000 222.229578
  L 164.000000 223.709576
  L 160.000000 226.899712
  L 156.000000 227.244475
  L 152.000000 227.242603
  L 148.000000 228.182655
  L 144.000000 230.757564
  L 140.000000 231.236284
  L 136.000000 234.479990
  L 132.000000 237.302935
  L 128.000000 240.382318
  L 124.000000 243.112693
  L 120.000000 243.197276
  L 116.000000 243.199596
  L 112.000000 239.386971
  L 108.000000 240.437559
  L 104.000000 245.705056
  L 100.000000 266.220138
  L 96.000000 281.842657
  L 92.000000 277.224894
  L 88.000000 338.927932
  L 84.000000 551.650375
Z" fill="rgb(0,191,196)" fill-opacity="0.2"/>
<path d="M 84.000000 208.316824
  L 88.000000 212.857877
  L 92.000000 213.793360
  L 96.000000 213.754504
  L 100.000000 211.193786
  L 104.000000 211.612590
  L 108.000000 211.942243
  L 112.000000 212.451678
  L 116.000000 212.780724
  L 120.000000 212.858590
  L 124.000000 212.644310
  L 128.000000 212.963136
  L 132.000000 212.807991
  L 136.000000 213.213790
  L 140.000000 212.571096
  L 144.000000 211.888940
  L 148.000000 211.201356
  L 152.000000 211.036598
  L 156.000000 209.291574
  L 160.000000 209.980210
  L 164.000000 210.385896
  L 168.000000 210.950024
  L 172.000000 210.617277
  L 176.000000 211.613436
  L 180.000000 210.842290
  L 184.000000 209.923470
  L 188.000000 208.480896
  L 192.000000 207.938765
  L 196.000000 208.296346
  L 200.000000 208.511260
  L 204.000000 208.251630
  L 208.000000 208.553225
  L 212.000000 209.344201
  L 216.000000 208.542193
  L 220.000000 207.999239
  L 224.000000 207.897655
  L 228.000000 206.614014
  L 232.000000 207.015278
  L 236.000000 206.367204
  L 240.000000 206.351508
  L 244.000000 206.746240
  L 248.000000 207.234097
  L 252.000000 206.536366
  L 256.000000 206.604325
  L 260.000000 206.766058
  L 264.000000 206.886026
  L 268.000000 206.418178
  L 272.000000 206.687005
  L 276.000000 206.020748
  L 280.000000 205.347810
  L 284.000000 205.173300
  L 288.000000 205.463029
  L 292.000000 205.942770
  L 296.000000 205.981730
  L 300.000000 205.928414
  L 304.000000 205.858646
  L 308.000000 205.816684
  L 312.000000 204.832946
  L 316.000000 204.357317
  L 320.000000 204.304716
  L 324.000000 204.204248
  L 328.000000 204.522715
  L 332.000000 204.112079
  L 336.000000 205.251552
  L 340.000000 205.569153
  L 344.000000 205.374319
  L 348.000000 203.867851
  L 352.000000 204.549006
  L 356.000000 203.771894
  L 360.000000 204.476157
  L 364.000000 203.629684
  L 368.000000 204.517089
  L 372.000000 204.483071
  L 376.000000 204.779548
  L 380.000000 204.401034
  L 384.000000 204.227803
  L 388.000000 203.633901
  L 392.000000 203.217567
  L 396.000000 203.231198
  L 400.000000 202.404619
  L 404.000000 202.788267
  L 408.000000 202.366793
  L 412.000000 202.849305
  L 416.000000 204.384425
  L 420.000000 203.146043
  L 424.000000 202.990232
  L 428.000000 202.761714
  L 432.000000 202.552486
  L 436.000000 202.747095
  L 440.000000 201.781833
  L 444.000000 199.902815
  L 448.000000 202.371557
  L 452.000000 200.442478
  L 456.000000 201.372156
  L 460.000000 202.322438
  L 464.000000 203.654287
  L 468.000000 203.087042
  L 472.000000 202.031673
  L 476.000000 201.876198
  L 480.000000 201.326588
  L 484.000000 199.745585
  L 488.000000 200.926726
  L 492.000000 198.422903
  L 496.000000 202.663918
  L 500.000000 199.611198
  L 504.000000 204.364201
  L 508.000000 199.941163
  L 512.000000 205.721241
  L 516.000000 199.882859
  L 520.000000 201.432608
  L 524.000000 201.098585
  L 528.000000 201.089671
  L 532.000000 201.107468
  L 536.000000 201.158544
  L 540.000000 200.481484
  L 544.000000 201.281925
  L 548.000000 196.161093
  L 552.000000 199.499538
  L 556.000000 197.970931
  L 560.000000 194.606114
  L 564.000000 186.632784
  L 568.000000 191.952044
  L 572.000000 202.346216
  L 576.000000 197.454892
  L 580.000000 168.279991
" stroke="rgb(248,118,109)" stroke-width="2" fill-opacity="0"/>
<path d="M 84.000000 551.936944
  L 88.000000 339.538303
  L 92.000000 278.089806
  L 96.000000 282.560996
  L 100.000000 266.892711
  L 104.000000 246.389873
  L 108.000000 241.108138
  L 112.000000 240.095239
  L 116.000000 243.885505
  L 120.000000 243.858460
  L 124.000000 243.773395
  L 128.000000 241.042061
  L 132.000000 237.961003
  L 136.000000 235.132007
  L 140.000000 231.886871
  L 144.000000 231.405610
  L 148.000000 228.825871
  L 152.000000 227.879487
  L 156.000000 227.888081
  L 160.000000 227.537916
  L 164.000000 224.345086
  L 168.000000 222.861439
  L 172.000000 221.708153
  L 176.000000 219.096298
  L 180.000000 219.563170
  L 184.000000 217.540161
  L 188.000000 217.835629
  L 192.000000 217.640421
  L 196.000000 217.145969
  L 200.000000 217.231714
  L 204.000000 215.893442
  L 208.000000 214.742702
  L 212.000000 213.039686
  L 216.000000 212.138243
  L 220.000000 212.177521
  L 224.000000 210.182755
  L 228.000000 210.983288
  L 232.000000 211.451498
  L 236.000000 210.448664
  L 240.000000 210.016049
  L 244.000000 210.627320
  L 248.000000 210.298300
  L 252.000000 210.240894
  L 256.000000 209.485733
  L 260.000000 209.073449
  L 264.000000 207.917726
  L 268.000000 207.217361
  L 272.000000 208.218881
  L 276.000000 207.928332
  L 280.000000 208.490888
  L 284.000000 208.593433
  L 288.000000 208.993007
  L 292.000000 208.443451
  L 296.000000 207.574341
  L 300.000000 206.985299
  L 304.000000 206.239328
  L 308.000000 206.468254
  L 312.000000 206.572538
  L 316.000000 207.211757
  L 320.000000 207.249501
  L 324.000000 208.410992
  L 328.000000 208.148714
  L 332.000000 207.340078
  L 336.000000 206.188336
  L 340.000000 206.364853
  L 344.000000 206.087863
  L 348.000000 206.309936
  L 352.000000 206.473526
  L 356.000000 206.744127
  L 360.000000 207.445650
  L 364.000000 207.103728
  L 368.000000 207.583949
  L 372.000000 207.566949
  L 376.000000 207.148013
  L 380.000000 206.722113
  L 384.000000 206.298072
  L 388.000000 206.621646
  L 392.000000 206.381336
  L 396.000000 206.858032
  L 400.000000 207.103544
  L 404.000000 207.706556
  L 408.000000 207.506509
  L 412.000000 207.259378
  L 416.000000 206.805948
  L 420.000000 207.190270
  L 424.000000 206.814550
  L 428.000000 206.244791
  L 432.000000 206.388286
  L 436.000000 207.027863
  L 440.000000 207.157242
  L 444.000000 207.776056
  L 448.000000 208.151192
  L 452.000000 208.386989
  L 456.000000 208.359063
  L 460.000000 207.257145
  L 464.000000 206.999833
  L 468.000000 207.337532
  L 472.000000 207.010882
  L 476.000000 207.109367
  L 480.000000 207.292503
  L 484.000000 208.570120
  L 488.000000 208.424492
  L 492.000000 208.345002
  L 496.000000 208.742887
  L 500.000000 208.160026
  L 504.000000 207.397722
  L 508.000000 207.191243
  L 512.000000 207.083533
  L 516.000000 207.273959
  L 520.000000 207.434701
  L 524.000000 208.073847
  L 528.000000 208.019052
  L 532.000000 208.503013
  L 536.000000 208.526460
  L 540.000000 208.119063
  L 544.000000 207.423008
  L 548.000000 207.092579
  L 552.000000 206.533106
  L 556.000000 206.735180
  L 560.000000 206.510131
  L 564.000000 207.153291
  L 568.000000 207.383869
  L 572.000000 208.117364
  L 576.000000 208.361721
  L 580.000000 207.378261
" stroke="rgb(0,191,196)" stroke-width="2" fill-opacity="0"/>
<text x="650" y="650" text-anchor="end">--OB 0,124,15,0</text>
<line x1="576.000000" y1="580" x2="576.000000" y2="80" stroke-dasharray="5 1" stroke="rgb(248,118,109)" stroke-width="1" />
<line x1="140.000000" y1="580" x2="140.000000" y2="80" stroke-dasharray="5 1" stroke="rgb(0,191,196)" stroke-width="1" />
<rect x="590" y="310" width="20" height="20" fill="rgb(248,118,109)" />
<text x="615" y="320" text-anchor="start" dominant-baseline="middle">#1</text>
<rect x="590" y="330" width="20" height="20" fill="rgb(0,191,196)" />
<text x="615" y="340" text-anchor="start" dominant-baseline="middle">#2</text>
</svg>
