<svg height="660" width="660"
    xmlns="http://www.w3.org/2000/svg"
    xmlns:xlink="http://www.w3.org/1999/xlink"
    xmlns:ev="http://www.w3.org/2001/xml-events">
<title>Original Top Strand</title>
<rect x="0" y="0" width="660" height="660" fill="white" />
<text x="330" y="20" text-anchor="middle">Original Top Strand</text>
<line x1="80" y1="80" x2="80" y2="580" stroke="black" />
<line x1="80" y1="580" x2="580" y2="580" stroke="black" />
<text x="15" y="330" transform="rotate(270 15, 330)" text-anchor="middle" dominant-baseline="text-before-edge">CpG Methylation %</text>
<text x="330" y="620" text-anchor="middle">Position along mapped read (5'->3' of + strand)</text>
<line x1="80" y1="580" x2="80" y2="585" stroke="black" />
<text x="80" y="600" text-anchor="middle">0</text>
<line x1="120.000000" y1="80" x2="120.000000" y2="580" stroke-dasharray="5 5" stroke="grey" />
<line x1="120.000000" y1="580" x2="120.000000" y2="585" stroke="black" />
<text x="120.000000" y="600" text-anchor="middle">10</text>
<line x1="160.000000" y1="80" x2="160.000000" y2="580" stroke-dasharray="5 5" stroke="grey" />
<line x1="160.000000" y1="580" x2="160.000000" y2="585" stroke="black" />
<text x="160.000000" y="600" text-anchor="middle">20</text>
<line x1="200.000000" y1="80" x2="200.000000" y2="580" stroke-dasharray="5 5" stroke="grey" />
<line x1="200.000000" y1="580" x2="200.000000" y2="585" stroke="black" />
<text x="200.000000" y="600" text-anchor="middle">30</text>
<line x1="240.000000" y1="80" x2="240.000000" y2="580" stroke-dasharray="5 5" stroke="grey" />
<line x1="240.000000" y1="580" x2="240.000000" y2="585" stroke="black" />
<text x="240.000000" y="600" text-anchor="middle">40</text>
<line x1="280.000000" y1="80" x2="280.000000" y2="580" stroke-dasharray="5 5" stroke="grey" />
<line x1="280.000000" y1="580" x2="280.000000" y2="585" stroke="black" />
<text x="280.000000" y="600" text-anchor="middle">50</text>
<line x1="320.000000" y1="80" x2="320.000000" y2="580" stroke-dasharray="5 5" stroke="grey" />
<line x1="320.000000" y1="580" x2="320.000000" y2="585" stroke="black" />
<text x="320.000000" y="600" text-anchor="middle">60</text>
<line x1="360.000000" y1="80" x2="360.000000" y2="580" stroke-dasharray="5 5" stroke="grey" />
<line x1="360.000000" y1="580" x2="360.000000" y2="585" stroke="black" />
<text x="360.000000" y="600" text-anchor="middle">70</text>
<line x1="400.000000" y1="80" x2="400.000000" y2="580" stroke-dasharray="5 5" stroke="grey" />
<line x1="400.000000" y1="580" x2="400.000000" y2="585" stroke="black" />
<text x="400.000000" y="600" text-anchor="middle">80</text>
<line x1="440.000000" y1="80" x2="440.000000" y2="580" stroke-dasharray="5 5" stroke="grey" />
<line x1="440.000000" y1="580" x2="440.000000" y2="585" stroke="black" />
<text x="440.000000" y="600" text-anchor="middle">90</text>
<line x1="480.000000" y1="80" x2="480.000000" y2="580" stroke-dasharray="5 5" stroke="grey" />
<line x1="480.000000" y1="580" x2="480.000000" y2="585" stroke="black" />
<text x="480.000000" y="600" text-anchor="middle">100</text>
<line x1="520.000000" y1="80" x2="520.000000" y2="580" stroke-dasharray="5 5" stroke="grey" />
<line x1="520.000000" y1="580" x2="520.000000" y2="585" stroke="black" />
<text x="520.000000" y="600" text-anchor="middle">110</text>
<line x1="560.000000" y1="80" x2="560.000000" y2="580" stroke-dasharray="5 5" stroke="grey" />
<line x1="560.000000" y1="580" x2="560.000000" y2="585" stroke="black" />
<text x="560.000000" y="600" text-anchor="middle">120</text>
<line x1="80" y1="580.000000" x2="75" y2="580.000000" stroke="black" />
<text x="55" y="580.000000" text-anchor="middle" dominant-baseline="middle">0.00</text>
<line x1="80" y1="546.666667" x2="75" y2="546.666667" stroke="black" />
<text x="55" y="546.666667" text-anchor="middle" dominant-baseline="middle">0.05</text>
<line x1="80" y1="513.333333" x2="75" y2="513.333333" stroke="black" />
<text x="55" y="513.333333" text-anchor="middle" dominant-baseline="middle">0.10</text>
<line x1="80" y1="480.000000" x2="75" y2="480.000000" stroke="black" />
<text x="55" y="480.000000" text-anchor="middle" dominant-baseline="middle">0.15</text>
<line x1="80" y1="446.666667" x2="75" y2="446.666667" stroke="black" />
<text x="55" y="446.666667" text-anchor="middle" dominant-baseline="middle">0.20</text>
<line x1="80" y1="413.333333" x2="75" y2="413.333333" stroke="black" />
<text x="55" y="413.333333" text-anchor="middle" dominant-baseline="middle">0.25</text>
<line x1="80" y1="380.000000" x2="75" y2="380.000000" stroke="black" />
<text x="55" y="380.000000" text-anchor="middle" dominant-baseline="middle">0.30</text>
<line x1="80" y1="346.666667" x2="75" y2="346.666667" stroke="black" />
<text x="55" y="346.666667" text-anchor="middle" dominant-baseline="middle">0.35</text>
<line x1="80" y1="313.333333" x2="75" y2="313.333333" stroke="black" />
<text x="55" y="313.333333" text-anchor="middle" dominant-baseline="middle">0.40</text>
<line x1="80" y1="280.000000" x2="75" y2="280.000000" stroke="black" />
<text x="55" y="280.000000" text-anchor="middle" dominant-baseline="middle">0.45</text>
<line x1="80" y1="246.666667" x2="75" y2="246.666667" stroke="black" />
<text x="55" y="246.666667" text-anchor="middle" dominant-baseline="middle">0.50</text>
<line x1="80" y1="213.333333" x2="75" y2="213.333333" stroke="black" />
<text x="55" y="213.333333" text-anchor="middle" dominant-baseline="middle">0.55</text>
<line x1="80" y1="180.000000" x2="75" y2="180.000000" stroke="black" />
<text x="55" y="180.000000" text-anchor="middle" dominant-baseline="middle">0.60</text>
<line x1="80" y1="146.666667" x2="75" y2="146.666667" stroke="black" />
<text x="55" y="146.666667" text-anchor="middle" dominant-baseline="middle">0.65</text>
<line x1="80" y1="113.333333" x2="75" y2="113.333333" stroke="black" />
<text x="55" y="113.333333" text-anchor="middle" dominant-baseline="middle">0.70</text>
<line x1="80" y1="80.000000" x2="75" y2="80.000000" stroke="black" />
<text x="55" y="80.000000" text-anchor="middle" dominant-baseline="middle">0.75</text>
<path d="M 84.000000 119.512825
  L 88.000000 120.466355
  L 92.000000 159.427902
  L 96.000000 155.494622
  L 100.000000 135.306281
  L 104.000000 153.724390
  L 108.000000 156.895467
  L 112.000000 161.619331
  L 116.000000 160.161116
  L 120.000000 162.067381
  L 124.000000 162.140854
  L 128.000000 161.113062
  L 132.000000 160.517198
  L 136.000000 159.126547
  L 140.000000 161.260912
  L 144.000000 160.342735
  L 148.000000 161.065147
  L 152.000000 164.019465
  L 156.000000 164.699797
  L 160.000000 163.044860
  L 164.000000 162.827662
  L 168.000000 163.125546
  L 172.000000 162.658225
  L 176.000000 162.815100
  L 180.000000 162.102417
  L 184.000000 164.075335
  L 188.000000 165.704783
  L 192.000000 165.522212
  L 196.000000 166.541953
  L 200.000000 164.969889
  L 204.000000 164.592696
  L 208.000000 162.356150
  L 212.000000 164.040464
  L 216.000000 164.235917
  L 220.000000 163.764179
  L 224.000000 164.691348
  L 228.000000 165.161159
  L 232.000000 164.166361
  L 236.000000 166.020408
  L 240.000000 164.112867
  L 244.000000 164.676811
  L 248.000000 165.622330
  L 252.000000 165.262367
  L 256.000000 164.664606
  L 260.000000 164.124229
  L 264.000000 163.122635
  L 268.000000 165.169769
  L 272.000000 166.175016
  L 276.000000 165.842194
  L 280.000000 165.777131
  L 284.000000 166.315273
  L 288.000000 166.396938
  L 292.000000 165.493862
  L 296.000000 165.069758
  L 300.000000 164.414176
  L 304.000000 164.546746
  L 308.000000 165.312678
  L 312.000000 166.118887
  L 316.000000 167.142204
  L 320.000000 166.841373
  L 324.000000 166.781611
  L 328.000000 166.910452
  L 332.000000 165.637351
  L 336.000000 164.775861
  L 340.000000 165.778288
  L 344.000000 166.795329
  L 348.000000 166.840891
  L 352.000000 167.107378
  L 356.000000 167.709490
  L 360.000000 166.939688
  L 364.000000 167.009201
  L 368.000000 167.417533
  L 372.000000 167.534291
  L 376.000000 167.392314
  L 380.000000 166.866343
  L 384.000000 166.436113
  L 388.000000 167.460029
  L 392.000000 168.094182
  L 396.000000 168.561888
  L 400.000000 168.568301
  L 404.000000 168.061353
  L 408.000000 168.205142
  L 412.000000 168.316969
  L 416.000000 168.636837
  L 420.000000 168.620516
  L 424.000000 167.381112
  L 428.000000 168.229437
  L 432.000000 169.083799
  L 436.000000 169.241669
  L 440.000000 170.096400
  L 444.000000 171.006709
  L 448.000000 171.096065
  L 452.000000 170.126216
  L 456.000000 169.578578
  L 460.000000 169.280153
  L 464.000000 169.561114
  L 468.000000 170.162296
  L 472.000000 170.449073
  L 476.000000 170.756282
  L 480.000000 171.629004
  L 484.000000 173.400665
  L 488.000000 172.359949
  L 492.000000 172.367803
  L 496.000000 172.706131
  L 500.000000 173.286549
  L 504.000000 172.755137
  L 508.000000 172.729331
  L 512.000000 173.928301
  L 516.000000 174.403065
  L 520.000000 174.393797
  L 524.000000 175.215982
  L 528.000000 175.481555
  L 532.000000 175.813050
  L 536.000000 175.946425
  L 540.000000 173.826898
  L 544.000000 171.146441
  L 548.000000 169.525353
  L 552.000000 166.969476
  L 556.000000 167.609380
  L 560.000000 168.719194
  L 564.000000 169.412495
  L 568.000000 169.747333
  L 572.000000 172.023382
  L 576.000000 174.492980
  L 580.000000 156.537521
  L 580.000000 154.611838
  L 576.000000 172.568680
  L 572.000000 170.117962
  L 568.000000 167.851088
  L 564.000000 167.519071
  L 560.000000 166.823650
  L 556.000000 165.715516
  L 552.000000 165.082797
  L 548.000000 167.643488
  L 544.000000 169.271386
  L 540.000000 171.960625
  L 536.000000 174.093050
  L 532.000000 173.957238
  L 528.000000 173.629378
  L 524.000000 173.368145
  L 520.000000 172.543390
  L 516.000000 172.550619
  L 512.000000 172.077629
  L 508.000000 170.883290
  L 504.000000 170.908864
  L 500.000000 171.442168
  L 496.000000 170.858923
  L 492.000000 170.520860
  L 488.000000 170.515814
  L 484.000000 171.553826
  L 480.000000 169.782739
  L 476.000000 168.915938
  L 472.000000 168.608015
  L 468.000000 168.322271
  L 464.000000 167.723712
  L 460.000000 167.447304
  L 456.000000 167.746310
  L 452.000000 168.288770
  L 448.000000 169.255142
  L 444.000000 169.166706
  L 440.000000 168.255592
  L 436.000000 167.405216
  L 432.000000 167.249831
  L 428.000000 166.393540
  L 424.000000 165.549459
  L 420.000000 166.786961
  L 416.000000 166.799980
  L 412.000000 166.481845
  L 408.000000 166.372529
  L 404.000000 166.232257
  L 400.000000 166.734463
  L 396.000000 166.728317
  L 392.000000 166.261782
  L 388.000000 165.626249
  L 384.000000 164.607440
  L 380.000000 165.036452
  L 376.000000 165.557336
  L 372.000000 165.703550
  L 368.000000 165.590106
  L 364.000000 165.177152
  L 360.000000 165.111874
  L 356.000000 165.877085
  L 352.000000 165.274828
  L 348.000000 165.007646
  L 344.000000 164.956871
  L 340.000000 163.947146
  L 336.000000 162.955569
  L 332.000000 163.815625
  L 328.000000 165.085397
  L 324.000000 164.950230
  L 320.000000 165.009262
  L 316.000000 165.309511
  L 312.000000 164.291407
  L 308.000000 163.485073
  L 304.000000 162.722137
  L 300.000000 162.591127
  L 296.000000 163.246407
  L 292.000000 163.665318
  L 288.000000 164.561262
  L 284.000000 164.476810
  L 280.000000 163.950180
  L 276.000000 164.021812
  L 272.000000 164.342205
  L 268.000000 163.335046
  L 264.000000 161.301341
  L 260.000000 162.296039
  L 256.000000 162.838471
  L 252.000000 163.432086
  L 248.000000 163.785745
  L 244.000000 162.850714
  L 240.000000 162.292991
  L 236.000000 164.192059
  L 232.000000 162.345581
  L 228.000000 163.328132
  L 224.000000 162.861540
  L 220.000000 161.933099
  L 216.000000 162.404075
  L 212.000000 162.213198
  L 208.000000 160.542866
  L 204.000000 162.769690
  L 200.000000 163.139355
  L 196.000000 164.697648
  L 192.000000 163.684028
  L 188.000000 163.862100
  L 184.000000 162.244680
  L 180.000000 160.280973
  L 176.000000 160.978995
  L 172.000000 160.839433
  L 168.000000 161.295902
  L 164.000000 160.994683
  L 160.000000 161.209888
  L 156.000000 162.849845
  L 152.000000 162.174366
  L 148.000000 159.240306
  L 144.000000 158.513702
  L 140.000000 159.414396
  L 136.000000 157.290632
  L 132.000000 158.678401
  L 128.000000 159.272315
  L 124.000000 160.298966
  L 120.000000 160.239481
  L 116.000000 158.341253
  L 112.000000 159.762855
  L 108.000000 155.020029
  L 104.000000 151.937319
  L 100.000000 133.534259
  L 96.000000 153.681244
  L 92.000000 157.549353
  L 88.000000 118.478747
  L 84.000000 117.933327
Z" fill="rgb(248,118,109)" fill-opacity="0.2"/>
<path d="M 84.000000 168.547803
  L 88.000000 169.370264
  L 92.000000 169.657287
  L 96.000000 169.972682
  L 100.000000 170.057189
  L 104.000000 169.374961
  L 108.000000 169.283410
  L 112.000000 169.212715
  L 116.000000 169.110232
  L 120.000000 170.677339
  L 124.000000 169.695743
  L 128.000000 170.982722
  L 132.000000 170.364992
  L 136.000000 170.263478
  L 140.000000 170.317839
  L 144.000000 170.473926
  L 148.000000 169.783179
  L 152.000000 168.957666
  L 156.000000 169.525201
  L 160.000000 169.363463
  L 164.000000 170.534237
  L 168.000000 170.203851
  L 172.000000 169.845310
  L 176.000000 169.964983
  L 180.000000 170.696144
  L 184.000000 169.676546
  L 188.000000 169.098513
  L 192.000000 168.678004
  L 196.000000 168.549484
  L 200.000000 168.021752
  L 204.000000 168.292913
  L 208.000000 168.898323
  L 212.000000 170.002869
  L 216.000000 169.889869
  L 220.000000 169.719692
  L 224.000000 168.297921
  L 228.000000 168.833202
  L 232.000000 167.837975
  L 236.000000 167.770071
  L 240.000000 167.873367
  L 244.000000 168.732111
  L 248.000000 168.296589
  L 252.000000 168.330640
  L 256.000000 168.462212
  L 260.000000 169.289326
  L 264.000000 169.067869
  L 268.000000 169.574567
  L 272.000000 168.319280
  L 276.000000 167.276057
  L 280.000000 168.446079
  L 284.000000 167.820694
  L 288.000000 168.603774
  L 292.000000 168.437499
  L 296.000000 168.706153
  L 300.000000 167.883989
  L 304.000000 168.796339
  L 308.000000 169.215924
  L 312.000000 168.877837
  L 316.000000 168.700811
  L 320.000000 168.706422
  L 324.000000 167.561443
  L 328.000000 168.414510
  L 332.000000 168.524814
  L 336.000000 169.416351
  L 340.000000 169.631540
  L 344.000000 170.075251
  L 348.000000 169.630491
  L 352.000000 168.465393
  L 356.000000 168.693116
  L 360.000000 169.303637
  L 364.000000 169.350145
  L 368.000000 169.961257
  L 372.000000 170.586043
  L 376.000000 170.688015
  L 380.000000 170.365998
  L 384.000000 171.343779
  L 388.000000 170.795387
  L 392.000000 170.293693
  L 396.000000 168.725521
  L 400.000000 170.188394
  L 404.000000 170.548591
  L 408.000000 171.974425
  L 412.000000 172.544610
  L 416.000000 171.777557
  L 420.000000 171.502711
  L 424.000000 173.929574
  L 428.000000 172.148836
  L 432.000000 173.660050
  L 436.000000 173.408400
  L 440.000000 172.471596
  L 444.000000 174.165437
  L 448.000000 175.190268
  L 452.000000 173.661978
  L 456.000000 175.832482
  L 460.000000 176.585911
  L 464.000000 177.469331
  L 468.000000 178.229824
  L 472.000000 180.020736
  L 476.000000 178.127755
  L 480.000000 176.602363
  L 484.000000 179.212942
  L 488.000000 179.572526
  L 492.000000 180.768316
  L 496.000000 180.458123
  L 500.000000 181.131437
  L 504.000000 184.283828
  L 508.000000 184.738822
  L 512.000000 183.345149
  L 516.000000 183.849672
  L 520.000000 186.150773
  L 524.000000 184.722754
  L 528.000000 188.197907
  L 532.000000 189.417290
  L 536.000000 191.987509
  L 540.000000 193.571118
  L 544.000000 194.477405
  L 548.000000 195.806260
  L 552.000000 192.331106
  L 556.000000 190.301093
  L 560.000000 188.039879
  L 564.000000 208.018405
  L 568.000000 225.285842
  L 572.000000 200.994398
  L 576.000000 281.373940
  L 580.000000 516.797028
  L 580.000000 515.900069
  L 576.000000 279.630571
  L 572.000000 198.789554
  L 568.000000 223.301361
  L 564.000000 206.104131
  L 560.000000 186.154893
  L 556.000000 188.461208
  L 552.000000 190.393723
  L 548.000000 193.883832
  L 544.000000 192.590660
  L 540.000000 191.677680
  L 536.000000 190.090713
  L 532.000000 187.518955
  L 528.000000 186.300874
  L 524.000000 182.837282
  L 520.000000 184.257327
  L 516.000000 181.966442
  L 512.000000 181.472902
  L 508.000000 182.853282
  L 504.000000 182.397610
  L 500.000000 179.258529
  L 496.000000 178.592097
  L 492.000000 178.905046
  L 488.000000 177.720055
  L 484.000000 177.345887
  L 480.000000 174.751311
  L 476.000000 176.270547
  L 472.000000 178.155631
  L 468.000000 176.367454
  L 464.000000 175.607851
  L 460.000000 174.733613
  L 456.000000 173.986922
  L 452.000000 171.825260
  L 448.000000 173.341422
  L 444.000000 172.317082
  L 440.000000 170.624500
  L 436.000000 171.564002
  L 432.000000 171.813321
  L 428.000000 170.318090
  L 424.000000 172.085401
  L 420.000000 169.669245
  L 416.000000 169.937698
  L 412.000000 170.697751
  L 408.000000 170.128353
  L 404.000000 168.710763
  L 400.000000 168.345799
  L 396.000000 166.894184
  L 392.000000 168.450724
  L 388.000000 168.953077
  L 384.000000 169.510362
  L 380.000000 168.532408
  L 376.000000 168.845714
  L 372.000000 168.739941
  L 368.000000 168.123835
  L 364.000000 167.517241
  L 360.000000 167.469341
  L 356.000000 166.859377
  L 352.000000 166.632091
  L 348.000000 167.796129
  L 344.000000 168.235114
  L 340.000000 167.794471
  L 336.000000 167.579337
  L 332.000000 166.693530
  L 328.000000 166.585279
  L 324.000000 165.731358
  L 320.000000 166.867959
  L 316.000000 166.857887
  L 312.000000 167.038938
  L 308.000000 167.380626
  L 304.000000 166.962839
  L 300.000000 166.056100
  L 296.000000 166.870585
  L 292.000000 166.606214
  L 288.000000 166.772331
  L 284.000000 165.985345
  L 280.000000 166.609102
  L 276.000000 165.445496
  L 272.000000 166.483647
  L 268.000000 167.738546
  L 264.000000 167.231789
  L 260.000000 167.452308
  L 256.000000 166.629659
  L 252.000000 166.499641
  L 248.000000 166.462454
  L 244.000000 166.895535
  L 240.000000 166.039269
  L 236.000000 165.937306
  L 232.000000 166.004100
  L 228.000000 166.995215
  L 224.000000 166.462596
  L 220.000000 167.878411
  L 216.000000 168.049268
  L 212.000000 168.160354
  L 208.000000 167.062623
  L 204.000000 166.460447
  L 200.000000 166.188371
  L 196.000000 166.710872
  L 192.000000 166.836096
  L 188.000000 167.255410
  L 184.000000 167.835240
  L 180.000000 168.849762
  L 176.000000 168.119015
  L 172.000000 168.001696
  L 168.000000 168.358125
  L 164.000000 168.685224
  L 160.000000 167.521772
  L 156.000000 167.682786
  L 152.000000 167.114290
  L 148.000000 167.937478
  L 144.000000 168.625640
  L 140.000000 168.471449
  L 136.000000 168.417132
  L 132.000000 168.518911
  L 128.000000 169.133557
  L 124.000000 167.852675
  L 120.000000 168.828557
  L 116.000000 167.263769
  L 112.000000 167.368698
  L 108.000000 167.439019
  L 104.000000 167.530718
  L 100.000000 168.212015
  L 96.000000 168.129044
  L 92.000000 167.814425
  L 88.000000 167.522404
  L 84.000000 166.707454
Z" fill="rgb(0,191,196)" fill-opacity="0.2"/>
<path d="M 84.000000 118.722234
  L 88.000000 119.471227
  L 92.000000 158.487875
  L 96.000000 154.587195
  L 100.000000 134.419376
  L 104.000000 152.830122
  L 108.000000 155.956973
  L 112.000000 160.690379
  L 116.000000 159.250485
  L 120.000000 161.152743
  L 124.000000 161.219212
  L 128.000000 160.191981
  L 132.000000 159.597089
  L 136.000000 158.207868
  L 140.000000 160.336944
  L 144.000000 159.427514
  L 148.000000 160.152032
  L 152.000000 163.096233
  L 156.000000 163.774141
  L 160.000000 162.126689
  L 164.000000 161.910487
  L 168.000000 162.210044
  L 172.000000 161.748153
  L 176.000000 161.896360
  L 180.000000 161.191012
  L 184.000000 163.159336
  L 188.000000 164.782776
  L 192.000000 164.602456
  L 196.000000 165.619141
  L 200.000000 164.053958
  L 204.000000 163.680531
  L 208.000000 161.448834
  L 212.000000 163.126161
  L 216.000000 163.319325
  L 220.000000 162.847964
  L 224.000000 163.775778
  L 228.000000 164.243982
  L 232.000000 163.255307
  L 236.000000 165.105581
  L 240.000000 163.202265
  L 244.000000 163.763099
  L 248.000000 164.703375
  L 252.000000 164.346566
  L 256.000000 163.750876
  L 260.000000 163.209465
  L 264.000000 162.211314
  L 268.000000 164.251742
  L 272.000000 165.257956
  L 276.000000 164.931355
  L 280.000000 164.863002
  L 284.000000 165.395384
  L 288.000000 165.478446
  L 292.000000 164.578932
  L 296.000000 164.157425
  L 300.000000 163.501988
  L 304.000000 163.633778
  L 308.000000 164.398217
  L 312.000000 165.204496
  L 316.000000 166.225212
  L 320.000000 165.924670
  L 324.000000 165.865273
  L 328.000000 165.997283
  L 332.000000 164.725837
  L 336.000000 163.865057
  L 340.000000 164.862060
  L 344.000000 165.875447
  L 348.000000 165.923620
  L 352.000000 166.190457
  L 356.000000 166.792647
  L 360.000000 166.025137
  L 364.000000 166.092530
  L 368.000000 166.503180
  L 372.000000 166.618280
  L 376.000000 166.474181
  L 380.000000 165.950751
  L 384.000000 165.521127
  L 388.000000 166.542495
  L 392.000000 167.177346
  L 396.000000 167.644469
  L 400.000000 167.650749
  L 404.000000 167.146170
  L 408.000000 167.288199
  L 412.000000 167.398770
  L 416.000000 167.717774
  L 420.000000 167.703106
  L 424.000000 166.464643
  L 428.000000 167.310851
  L 432.000000 168.166186
  L 436.000000 168.322813
  L 440.000000 169.175372
  L 444.000000 170.086092
  L 448.000000 170.174988
  L 452.000000 169.206871
  L 456.000000 168.661821
  L 460.000000 168.363102
  L 464.000000 168.641786
  L 468.000000 169.241660
  L 472.000000 169.527923
  L 476.000000 169.835491
  L 480.000000 170.705257
  L 484.000000 172.476646
  L 488.000000 171.437275
  L 492.000000 171.443724
  L 496.000000 171.781922
  L 500.000000 172.363760
  L 504.000000 171.831396
  L 508.000000 171.805706
  L 512.000000 173.002368
  L 516.000000 173.476248
  L 520.000000 173.468001
  L 524.000000 174.291480
  L 528.000000 174.554882
  L 532.000000 174.884561
  L 536.000000 175.019157
  L 540.000000 172.893154
  L 544.000000 170.208275
  L 548.000000 168.583762
  L 552.000000 166.025451
  L 556.000000 166.661763
  L 560.000000 167.770746
  L 564.000000 168.465115
  L 568.000000 168.798544
  L 572.000000 171.070021
  L 576.000000 173.530190
  L 580.000000 155.573858
" stroke="rgb(248,118,109)" stroke-width="2" fill-opacity="0"/>
<path d="M 84.000000 167.626990
  L 88.000000 168.445698
  L 92.000000 168.735226
  L 96.000000 169.050235
  L 100.000000 169.133974
  L 104.000000 168.452206
  L 108.000000 168.360580
  L 112.000000 168.290072
  L 116.000000 168.186363
  L 120.000000 169.752323
  L 124.000000 168.773579
  L 128.000000 170.057517
  L 132.000000 169.441326
  L 136.000000 169.339678
  L 140.000000 169.394018
  L 144.000000 169.549157
  L 148.000000 168.859698
  L 152.000000 168.035341
  L 156.000000 168.603363
  L 160.000000 168.441986
  L 164.000000 169.609104
  L 168.000000 169.280361
  L 172.000000 168.922875
  L 176.000000 169.041369
  L 180.000000 169.772330
  L 184.000000 168.755264
  L 188.000000 168.176326
  L 192.000000 167.756412
  L 196.000000 167.629541
  L 200.000000 167.104423
  L 204.000000 167.376045
  L 208.000000 167.979841
  L 212.000000 169.080985
  L 216.000000 168.968942
  L 220.000000 168.798423
  L 224.000000 167.379622
  L 228.000000 167.913575
  L 232.000000 166.920397
  L 236.000000 166.853049
  L 240.000000 166.955678
  L 244.000000 167.813189
  L 248.000000 167.378885
  L 252.000000 167.414507
  L 256.000000 167.545302
  L 260.000000 168.370188
  L 264.000000 168.149199
  L 268.000000 168.655930
  L 272.000000 167.400827
  L 276.000000 166.360134
  L 280.000000 167.526954
  L 284.000000 166.902378
  L 288.000000 167.687421
  L 292.000000 167.521223
  L 296.000000 167.787735
  L 300.000000 166.969409
  L 304.000000 167.878958
  L 308.000000 168.297646
  L 312.000000 167.957754
  L 316.000000 167.778711
  L 320.000000 167.786555
  L 324.000000 166.645761
  L 328.000000 167.499263
  L 332.000000 167.608540
  L 336.000000 168.497216
  L 340.000000 168.712380
  L 344.000000 169.154558
  L 348.000000 168.712686
  L 352.000000 167.548108
  L 356.000000 167.775614
  L 360.000000 168.385862
  L 364.000000 168.433067
  L 368.000000 169.041922
  L 372.000000 169.662368
  L 376.000000 169.766244
  L 380.000000 169.448586
  L 384.000000 170.426462
  L 388.000000 169.873613
  L 392.000000 169.371584
  L 396.000000 167.809222
  L 400.000000 169.266472
  L 404.000000 169.629058
  L 408.000000 171.050778
  L 412.000000 171.620574
  L 416.000000 170.857019
  L 420.000000 170.585371
  L 424.000000 173.006895
  L 428.000000 171.232864
  L 432.000000 172.736089
  L 436.000000 172.485604
  L 440.000000 171.547441
  L 444.000000 173.240666
  L 448.000000 174.265261
  L 452.000000 172.743029
  L 456.000000 174.909125
  L 460.000000 175.659188
  L 464.000000 176.538019
  L 468.000000 177.298073
  L 472.000000 179.087632
  L 476.000000 177.198588
  L 480.000000 175.676264
  L 484.000000 178.278854
  L 488.000000 178.645743
  L 492.000000 179.836137
  L 496.000000 179.524562
  L 500.000000 180.194436
  L 504.000000 183.340193
  L 508.000000 183.795531
  L 512.000000 182.408499
  L 516.000000 182.907529
  L 520.000000 185.203536
  L 524.000000 183.779496
  L 528.000000 187.248893
  L 532.000000 188.467636
  L 536.000000 191.038648
  L 540.000000 192.623951
  L 544.000000 193.533596
  L 548.000000 194.844605
  L 552.000000 191.361934
  L 556.000000 189.380701
  L 560.000000 187.096894
  L 564.000000 207.060937
  L 568.000000 224.293402
  L 572.000000 199.891454
  L 576.000000 280.502489
  L 580.000000 516.349962
" stroke="rgb(0,191,196)" stroke-width="2" fill-opacity="0"/>
<text x="650" y="650" text-anchor="end">--OT 3,0,0,120</text>
<line x1="92.000000" y1="580" x2="92.000000" y2="80" stroke-dasharray="5 1" stroke="rgb(248,118,109)" stroke-width="1" />
<line x1="560.000000" y1="580" x2="560.000000" y2="80" stroke-dasharray="5 1" stroke="rgb(0,191,196)" stroke-width="1" />
<rect x="590" y="310" width="20" height="20" fill="rgb(248,118,109)" />
<text x="615" y="320" text-anchor="start" dominant-baseline="middle">#1</text>
<rect x="590" y="330" width="20" height="20" fill="rgb(0,191,196)" />
<text x="615" y="340" text-anchor="start" dominant-baseline="middle">#2</text>
</svg>
