<svg height="660" width="660"
    xmlns="http://www.w3.org/2000/svg"
    xmlns:xlink="http://www.w3.org/1999/xlink"
    xmlns:ev="http://www.w3.org/2001/xml-events">
<title>Original Bottom Strand</title>
<rect x="0" y="0" width="660" height="660" fill="white" />
<text x="330" y="20" text-anchor="middle">Original Bottom Strand</text>
<line x1="80" y1="80" x2="80" y2="580" stroke="black" />
<line x1="80" y1="580" x2="580" y2="580" stroke="black" />
<text x="15" y="330" transform="rotate(270 15, 330)" text-anchor="middle" dominant-baseline="text-before-edge">CpG Methylation %</text>
<text x="330" y="620" text-anchor="middle">Position along mapped read (5'->3' of + strand)</text>
<line x1="80" y1="580" x2="80" y2="585" stroke="black" />
<text x="80" y="600" text-anchor="middle">0</text>
<line x1="120.000000" y1="80" x2="120.000000" y2="580" stroke-dasharray="5 5" stroke="grey" />
<line x1="120.000000" y1="580" x2="120.000000" y2="585" stroke="black" />
<text x="120.000000" y="600" text-anchor="middle">10</text>
<line x1="160.000000" y1="80" x2="160.000000" y2="580" stroke-dasharray="5 5" stroke="grey" />
<line x1="160.000000" y1="580" x2="160.000000" y2="585" stroke="black" />
<text x="160.000000" y="600" text-anchor="middle">20</text>
<line x1="200.000000" y1="80" x2="200.000000" y2="580" stroke-dasharray="5 5" stroke="grey" />
<line x1="200.000000" y1="580" x2="200.000000" y2="585" stroke="black" />
<text x="200.000000" y="600" text-anchor="middle">30</text>
<line x1="240.000000" y1="80" x2="240.000000" y2="580" stroke-dasharray="5 5" stroke="grey" />
<line x1="240.000000" y1="580" x2="240.000000" y2="585" stroke="black" />
<text x="240.000000" y="600" text-anchor="middle">40</text>
<line x1="280.000000" y1="80" x2="280.000000" y2="580" stroke-dasharray="5 5" stroke="grey" />
<line x1="280.000000" y1="580" x2="280.000000" y2="585" stroke="black" />
<text x="280.000000" y="600" text-anchor="middle">50</text>
<line x1="320.000000" y1="80" x2="320.000000" y2="580" stroke-dasharray="5 5" stroke="grey" />
<line x1="320.000000" y1="580" x2="320.000000" y2="585" stroke="black" />
<text x="320.000000" y="600" text-anchor="middle">60</text>
<line x1="360.000000" y1="80" x2="360.000000" y2="580" stroke-dasharray="5 5" stroke="grey" />
<line x1="360.000000" y1="580" x2="360.000000" y2="585" stroke="black" />
<text x="360.000000" y="600" text-anchor="middle">70</text>
<line x1="400.000000" y1="80" x2="400.000000" y2="580" stroke-dasharray="5 5" stroke="grey" />
<line x1="400.000000" y1="580" x2="400.000000" y2="585" stroke="black" />
<text x="400.000000" y="600" text-anchor="middle">80</text>
<line x1="440.000000" y1="80" x2="440.000000" y2="580" stroke-dasharray="5 5" stroke="grey" />
<line x1="440.000000" y1="580" x2="440.000000" y2="585" stroke="black" />
<text x="440.000000" y="600" text-anchor="middle">90</text>
<line x1="480.000000" y1="80" x2="480.000000" y2="580" stroke-dasharray="5 5" stroke="grey" />
<line x1="480.000000" y1="580" x2="480.000000" y2="585" stroke="black" />
<text x="480.000000" y="600" text-anchor="middle">100</text>
<line x1="520.000000" y1="80" x2="520.000000" y2="580" stroke-dasharray="5 5" stroke="grey" />
<line x1="520.000000" y1="580" x2="520.000000" y2="585" stroke="black" />
<text x="520.000000" y="600" text-anchor="middle">110</text>
<line x1="560.000000" y1="80" x2="560.000000" y2="580" stroke-dasharray="5 5" stroke="grey" />
<line x1="560.000000" y1="580" x2="560.000000" y2="585" stroke="black" />
<text x="560.000000" y="600" text-anchor="middle">120</text>
<line x1="80" y1="580.000000" x2="75" y2="580.000000" stroke="black" />
<text x="55" y="580.000000" text-anchor="middle" dominant-baseline="middle">0.00</text>
<line x1="80" y1="548.750000" x2="75" y2="548.750000" stroke="black" />
<text x="55" y="548.750000" text-anchor="middle" dominant-baseline="middle">0.05</text>
<line x1="80" y1="517.500000" x2="75" y2="517.500000" stroke="black" />
<text x="55" y="517.500000" text-anchor="middle" dominant-baseline="middle">0.10</text>
<line x1="80" y1="486.250000" x2="75" y2="486.250000" stroke="black" />
<text x="55" y="486.250000" text-anchor="middle" dominant-baseline="middle">0.15</text>
<line x1="80" y1="455.000000" x2="75" y2="455.000000" stroke="black" />
<text x="55" y="455.000000" text-anchor="middle" dominant-baseline="middle">0.20</text>
<line x1="80" y1="423.750000" x2="75" y2="423.750000" stroke="black" />
<text x="55" y="423.750000" text-anchor="middle" dominant-baseline="middle">0.25</text>
<line x1="80" y1="392.500000" x2="75" y2="392.500000" stroke="black" />
<text x="55" y="392.500000" text-anchor="middle" dominant-baseline="middle">0.30</text>
<line x1="80" y1="361.250000" x2="75" y2="361.250000" stroke="black" />
<text x="55" y="361.250000" text-anchor="middle" dominant-baseline="middle">0.35</text>
<line x1="80" y1="330.000000" x2="75" y2="330.000000" stroke="black" />
<text x="55" y="330.000000" text-anchor="middle" dominant-baseline="middle">0.40</text>
<line x1="80" y1="298.750000" x2="75" y2="298.750000" stroke="black" />
<text x="55" y="298.750000" text-anchor="middle" dominant-baseline="middle">0.45</text>
<line x1="80" y1="267.500000" x2="75" y2="267.500000" stroke="black" />
<text x="55" y="267.500000" text-anchor="middle" dominant-baseline="middle">0.50</text>
<line x1="80" y1="236.250000" x2="75" y2="236.250000" stroke="black" />
<text x="55" y="236.250000" text-anchor="middle" dominant-baseline="middle">0.55</text>
<line x1="80" y1="205.000000" x2="75" y2="205.000000" stroke="black" />
<text x="55" y="205.000000" text-anchor="middle" dominant-baseline="middle">0.60</text>
<line x1="80" y1="173.750000" x2="75" y2="173.750000" stroke="black" />
<text x="55" y="173.750000" text-anchor="middle" dominant-baseline="middle">0.65</text>
<line x1="80" y1="142.500000" x2="75" y2="142.500000" stroke="black" />
<text x="55" y="142.500000" text-anchor="middle" dominant-baseline="middle">0.70</text>
<line x1="80" y1="111.250000" x2="75" y2="111.250000" stroke="black" />
<text x="55" y="111.250000" text-anchor="middle" dominant-baseline="middle">0.75</text>
<line x1="80" y1="80.000000" x2="75" y2="80.000000" stroke="black" />
<text x="55" y="80.000000" text-anchor="middle" dominant-baseline="middle">0.80</text>
<path d="M 84.000000 174.677694
  L 88.000000 178.355668
  L 92.000000 180.560879
  L 96.000000 179.364187
  L 100.000000 176.513815
  L 104.000000 177.027851
  L 108.000000 178.424568
  L 112.000000 178.774967
  L 116.000000 178.864097
  L 120.000000 177.767675
  L 124.000000 177.307588
  L 128.000000 177.586638
  L 132.000000 177.507217
  L 136.000000 177.423717
  L 140.000000 176.832993
  L 144.000000 176.440905
  L 148.000000 174.989050
  L 152.000000 174.612403
  L 156.000000 171.790768
  L 160.000000 172.211641
  L 164.000000 172.309667
  L 168.000000 172.360180
  L 172.000000 172.529070
  L 176.000000 172.514527
  L 180.000000 172.259144
  L 184.000000 172.268289
  L 188.000000 169.789709
  L 192.000000 169.611743
  L 196.000000 169.801162
  L 200.000000 168.844304
  L 204.000000 168.818786
  L 208.000000 169.469530
  L 212.000000 168.722527
  L 216.000000 168.675169
  L 220.000000 168.002447
  L 224.000000 168.769230
  L 228.000000 167.312111
  L 232.000000 167.671609
  L 236.000000 166.626187
  L 240.000000 164.784424
  L 244.000000 166.253702
  L 248.000000 166.023876
  L 252.000000 165.530737
  L 256.000000 165.151185
  L 260.000000 164.968083
  L 264.000000 165.324903
  L 268.000000 164.970193
  L 272.000000 165.671216
  L 276.000000 164.817096
  L 280.000000 163.642889
  L 284.000000 163.264140
  L 288.000000 163.836704
  L 292.000000 164.065098
  L 296.000000 164.474238
  L 300.000000 163.583996
  L 304.000000 163.283438
  L 308.000000 163.500366
  L 312.000000 163.224560
  L 316.000000 162.507815
  L 320.000000 162.294523
  L 324.000000 162.066345
  L 328.000000 162.001274
  L 332.000000 161.285231
  L 336.000000 163.223909
  L 340.000000 162.668375
  L 344.000000 163.379834
  L 348.000000 162.025098
  L 352.000000 162.763166
  L 356.000000 161.447360
  L 360.000000 160.563244
  L 364.000000 160.426915
  L 368.000000 161.487469
  L 372.000000 160.955683
  L 376.000000 162.349113
  L 380.000000 161.276624
  L 384.000000 160.505847
  L 388.000000 161.435687
  L 392.000000 162.826744
  L 396.000000 160.708041
  L 400.000000 159.750828
  L 404.000000 159.894246
  L 408.000000 158.089402
  L 412.000000 160.474862
  L 416.000000 161.661296
  L 420.000000 160.630650
  L 424.000000 160.244076
  L 428.000000 161.952611
  L 432.000000 160.535030
  L 436.000000 160.932106
  L 440.000000 159.988467
  L 444.000000 159.407039
  L 448.000000 158.731903
  L 452.000000 159.515739
  L 456.000000 159.349219
  L 460.000000 160.299885
  L 464.000000 161.618516
  L 468.000000 161.156631
  L 472.000000 160.871188
  L 476.000000 160.947652
  L 480.000000 159.152701
  L 484.000000 156.864533
  L 488.000000 158.439003
  L 492.000000 157.111579
  L 496.000000 161.604556
  L 500.000000 156.614221
  L 504.000000 163.058775
  L 508.000000 156.630992
  L 512.000000 165.420990
  L 516.000000 155.514570
  L 520.000000 159.117970
  L 524.000000 157.422378
  L 528.000000 156.883455
  L 532.000000 155.461044
  L 536.000000 157.233314
  L 540.000000 156.726051
  L 544.000000 157.915597
  L 548.000000 149.077166
  L 552.000000 153.852381
  L 556.000000 150.887597
  L 560.000000 149.129273
  L 564.000000 134.913985
  L 568.000000 151.989304
  L 572.000000 156.418253
  L 576.000000 126.333364
  L 580.000000 105.919601
  L 580.000000 104.545094
  L 576.000000 124.360893
  L 572.000000 154.597843
  L 568.000000 150.261205
  L 564.000000 133.267288
  L 560.000000 147.486112
  L 556.000000 149.174745
  L 552.000000 152.147528
  L 548.000000 147.428302
  L 544.000000 156.230267
  L 540.000000 155.063280
  L 536.000000 155.578980
  L 532.000000 153.820680
  L 528.000000 155.232620
  L 524.000000 155.774231
  L 520.000000 157.472596
  L 516.000000 153.887771
  L 512.000000 163.758988
  L 508.000000 154.993580
  L 504.000000 161.411952
  L 500.000000 154.990999
  L 496.000000 159.967443
  L 492.000000 155.505959
  L 488.000000 156.806570
  L 484.000000 155.250874
  L 480.000000 157.534951
  L 476.000000 159.309937
  L 472.000000 159.241428
  L 468.000000 159.516004
  L 464.000000 159.979838
  L 460.000000 158.675392
  L 456.000000 157.728466
  L 452.000000 157.895725
  L 448.000000 157.101813
  L 444.000000 157.773868
  L 440.000000 158.359178
  L 436.000000 159.301713
  L 432.000000 158.911449
  L 428.000000 160.316136
  L 424.000000 158.621966
  L 420.000000 159.004803
  L 416.000000 160.027480
  L 412.000000 158.852031
  L 408.000000 156.475665
  L 404.000000 158.270863
  L 400.000000 158.131153
  L 396.000000 159.080898
  L 392.000000 161.193166
  L 388.000000 159.818754
  L 384.000000 158.884693
  L 380.000000 159.651983
  L 376.000000 160.713842
  L 372.000000 159.331099
  L 368.000000 159.861449
  L 364.000000 158.802512
  L 360.000000 158.936296
  L 356.000000 159.825340
  L 352.000000 161.131425
  L 348.000000 160.401286
  L 344.000000 161.746677
  L 340.000000 161.048442
  L 336.000000 161.595485
  L 332.000000 159.671539
  L 328.000000 160.379079
  L 324.000000 160.437557
  L 320.000000 160.666835
  L 316.000000 160.881341
  L 312.000000 161.601086
  L 308.000000 161.869062
  L 304.000000 161.653273
  L 300.000000 161.953807
  L 296.000000 162.847350
  L 292.000000 162.445558
  L 288.000000 162.203477
  L 284.000000 161.642118
  L 280.000000 162.011343
  L 276.000000 163.188411
  L 272.000000 164.036947
  L 268.000000 163.343423
  L 264.000000 163.688567
  L 260.000000 163.341647
  L 256.000000 163.521662
  L 252.000000 163.904001
  L 248.000000 164.396521
  L 244.000000 164.614457
  L 240.000000 163.147425
  L 236.000000 164.991693
  L 232.000000 166.032425
  L 228.000000 165.676584
  L 224.000000 167.122517
  L 220.000000 166.365973
  L 216.000000 167.035093
  L 212.000000 167.085925
  L 208.000000 167.827710
  L 204.000000 167.180682
  L 200.000000 167.198731
  L 196.000000 168.154444
  L 192.000000 167.974589
  L 188.000000 168.146856
  L 184.000000 170.612550
  L 180.000000 170.601218
  L 176.000000 170.853401
  L 172.000000 170.878536
  L 168.000000 170.707409
  L 164.000000 170.665552
  L 160.000000 170.566660
  L 156.000000 170.154794
  L 152.000000 172.949827
  L 148.000000 173.328801
  L 144.000000 174.778084
  L 140.000000 175.177422
  L 136.000000 175.758583
  L 132.000000 175.848710
  L 128.000000 175.930471
  L 124.000000 175.647750
  L 120.000000 176.100733
  L 116.000000 177.213823
  L 112.000000 177.130917
  L 108.000000 176.781944
  L 104.000000 175.409531
  L 100.000000 174.906697
  L 96.000000 177.749180
  L 92.000000 178.954413
  L 88.000000 176.789454
  L 84.000000 172.994498
Z" fill="rgb(248,118,109)" fill-opacity="0.2"/>
<path d="M 84.000000 550.281016
  L 88.000000 304.407990
  L 92.000000 219.847825
  L 96.000000 236.310865
  L 100.000000 220.587185
  L 104.000000 202.025087
  L 108.000000 200.659915
  L 112.000000 201.981880
  L 116.000000 202.656753
  L 120.000000 200.972536
  L 124.000000 200.866401
  L 128.000000 198.833949
  L 132.000000 195.906635
  L 136.000000 193.759007
  L 140.000000 190.726766
  L 144.000000 191.884702
  L 148.000000 190.142482
  L 152.000000 188.692414
  L 156.000000 190.245822
  L 160.000000 188.862605
  L 164.000000 186.791264
  L 168.000000 185.457842
  L 172.000000 184.835358
  L 176.000000 184.369578
  L 180.000000 182.798138
  L 184.000000 181.070367
  L 188.000000 183.242387
  L 192.000000 183.417506
  L 196.000000 182.016107
  L 200.000000 181.444632
  L 204.000000 180.352100
  L 208.000000 179.118205
  L 212.000000 177.653803
  L 216.000000 177.610299
  L 220.000000 176.205644
  L 224.000000 175.717868
  L 228.000000 175.827592
  L 232.000000 175.844106
  L 236.000000 174.345382
  L 240.000000 174.890817
  L 244.000000 172.261351
  L 248.000000 173.432256
  L 252.000000 172.963711
  L 256.000000 172.826209
  L 260.000000 170.692973
  L 264.000000 170.734217
  L 268.000000 170.002534
  L 272.000000 171.215916
  L 276.000000 171.864386
  L 280.000000 171.173130
  L 284.000000 169.576140
  L 288.000000 170.306670
  L 292.000000 170.217494
  L 296.000000 168.779853
  L 300.000000 167.446469
  L 304.000000 167.688268
  L 308.000000 167.514091
  L 312.000000 167.797160
  L 316.000000 168.269398
  L 320.000000 169.104528
  L 324.000000 168.902531
  L 328.000000 167.194039
  L 332.000000 167.671627
  L 336.000000 166.706955
  L 340.000000 166.138363
  L 344.000000 166.478878
  L 348.000000 166.588804
  L 352.000000 166.241337
  L 356.000000 166.908620
  L 360.000000 167.260117
  L 364.000000 165.737242
  L 368.000000 165.919377
  L 372.000000 166.450316
  L 376.000000 165.671618
  L 380.000000 165.537883
  L 384.000000 165.267308
  L 388.000000 164.623431
  L 392.000000 165.253549
  L 396.000000 166.524262
  L 400.000000 165.957503
  L 404.000000 166.700126
  L 408.000000 164.870521
  L 412.000000 164.498167
  L 416.000000 164.653509
  L 420.000000 164.095428
  L 424.000000 163.962608
  L 428.000000 163.385221
  L 432.000000 163.168886
  L 436.000000 164.043447
  L 440.000000 164.412310
  L 444.000000 165.535680
  L 448.000000 165.258669
  L 452.000000 165.644636
  L 456.000000 164.586219
  L 460.000000 163.293260
  L 464.000000 163.172868
  L 468.000000 163.084286
  L 472.000000 163.415780
  L 476.000000 163.571187
  L 480.000000 164.302820
  L 484.000000 164.771357
  L 488.000000 164.842239
  L 492.000000 164.752151
  L 496.000000 164.465421
  L 500.000000 164.580212
  L 504.000000 164.001533
  L 508.000000 163.460770
  L 512.000000 162.899294
  L 516.000000 163.941920
  L 520.000000 164.365377
  L 524.000000 164.559817
  L 528.000000 164.197632
  L 532.000000 164.071477
  L 536.000000 163.658324
  L 540.000000 163.395728
  L 544.000000 162.841984
  L 548.000000 163.037133
  L 552.000000 162.189532
  L 556.000000 162.942444
  L 560.000000 162.273183
  L 564.000000 162.650949
  L 568.000000 162.962351
  L 572.000000 163.245233
  L 576.000000 162.498386
  L 580.000000 162.334722
  L 580.000000 160.682084
  L 576.000000 160.847876
  L 572.000000 161.598329
  L 568.000000 161.320252
  L 564.000000 161.011499
  L 560.000000 160.638174
  L 556.000000 161.304250
  L 552.000000 160.554805
  L 548.000000 161.398272
  L 544.000000 161.204007
  L 540.000000 161.760876
  L 536.000000 162.018696
  L 532.000000 162.433159
  L 528.000000 162.558213
  L 524.000000 162.920033
  L 520.000000 162.722418
  L 516.000000 162.300795
  L 512.000000 161.264501
  L 508.000000 161.827903
  L 504.000000 162.368826
  L 500.000000 162.939969
  L 496.000000 162.825740
  L 492.000000 163.112619
  L 488.000000 163.202080
  L 484.000000 163.130364
  L 480.000000 162.663925
  L 476.000000 161.934111
  L 472.000000 161.781634
  L 468.000000 161.452274
  L 464.000000 161.548073
  L 460.000000 161.666952
  L 456.000000 162.955812
  L 452.000000 164.006037
  L 448.000000 163.618715
  L 444.000000 163.893840
  L 440.000000 162.776619
  L 436.000000 162.412506
  L 432.000000 161.539891
  L 428.000000 161.755550
  L 424.000000 162.331695
  L 420.000000 162.463632
  L 416.000000 163.021148
  L 412.000000 162.867108
  L 408.000000 163.238159
  L 404.000000 165.058171
  L 400.000000 164.322657
  L 396.000000 164.890388
  L 392.000000 163.622985
  L 388.000000 162.989729
  L 384.000000 163.630359
  L 380.000000 163.900662
  L 376.000000 164.042085
  L 372.000000 164.816326
  L 368.000000 164.284897
  L 364.000000 164.103913
  L 360.000000 165.620195
  L 356.000000 165.269696
  L 352.000000 164.605957
  L 348.000000 164.946459
  L 344.000000 164.840650
  L 340.000000 164.506217
  L 336.000000 165.078423
  L 332.000000 166.032993
  L 328.000000 165.560083
  L 324.000000 167.253838
  L 320.000000 167.460048
  L 316.000000 166.629054
  L 312.000000 166.167716
  L 308.000000 165.881251
  L 304.000000 166.051325
  L 300.000000 165.812752
  L 296.000000 167.145166
  L 292.000000 168.566632
  L 288.000000 168.656219
  L 284.000000 167.935886
  L 280.000000 169.535053
  L 276.000000 170.210603
  L 272.000000 169.569199
  L 268.000000 168.366438
  L 264.000000 169.082836
  L 260.000000 169.049073
  L 256.000000 171.175502
  L 252.000000 171.308891
  L 248.000000 171.782060
  L 244.000000 170.611882
  L 240.000000 173.232837
  L 236.000000 172.694096
  L 232.000000 174.183175
  L 228.000000 174.165603
  L 224.000000 174.052791
  L 220.000000 174.544801
  L 216.000000 175.950867
  L 212.000000 175.994390
  L 208.000000 177.455798
  L 204.000000 178.672508
  L 200.000000 179.763033
  L 196.000000 180.332274
  L 192.000000 181.727025
  L 188.000000 181.570762
  L 184.000000 179.404087
  L 180.000000 181.110042
  L 176.000000 182.702844
  L 172.000000 183.149790
  L 168.000000 183.770345
  L 164.000000 185.095165
  L 160.000000 187.155896
  L 156.000000 188.535732
  L 152.000000 187.007554
  L 148.000000 188.441606
  L 144.000000 190.182626
  L 140.000000 189.023116
  L 136.000000 192.057312
  L 132.000000 194.190104
  L 128.000000 197.114669
  L 124.000000 199.144280
  L 120.000000 199.264948
  L 116.000000 200.911888
  L 112.000000 200.231036
  L 108.000000 198.989806
  L 104.000000 200.295932
  L 100.000000 218.800455
  L 96.000000 234.434425
  L 92.000000 217.697395
  L 88.000000 302.870204
  L 84.000000 549.655324
Z" fill="rgb(0,191,196)" fill-opacity="0.2"/>
<path d="M 84.000000 173.835350
  L 88.000000 177.571945
  L 92.000000 179.757017
  L 96.000000 178.556037
  L 100.000000 175.709592
  L 104.000000 176.218022
  L 108.000000 177.602579
  L 112.000000 177.952267
  L 116.000000 178.038280
  L 120.000000 176.933501
  L 124.000000 176.476967
  L 128.000000 176.757859
  L 132.000000 176.677265
  L 136.000000 176.590445
  L 140.000000 176.004505
  L 144.000000 175.608783
  L 148.000000 174.158202
  L 152.000000 173.780386
  L 156.000000 170.972050
  L 160.000000 171.388415
  L 164.000000 171.486876
  L 168.000000 171.533054
  L 172.000000 171.703066
  L 176.000000 171.683217
  L 180.000000 171.429434
  L 184.000000 171.439675
  L 188.000000 168.967527
  L 192.000000 168.792413
  L 196.000000 168.977043
  L 200.000000 168.020750
  L 204.000000 167.998973
  L 208.000000 168.647862
  L 212.000000 167.903466
  L 216.000000 167.854367
  L 220.000000 167.183444
  L 224.000000 167.945104
  L 228.000000 166.493575
  L 232.000000 166.851244
  L 236.000000 165.808162
  L 240.000000 163.965127
  L 244.000000 165.433294
  L 248.000000 165.209422
  L 252.000000 164.716588
  L 256.000000 164.335637
  L 260.000000 164.154079
  L 264.000000 164.505943
  L 268.000000 164.156022
  L 272.000000 164.853294
  L 276.000000 164.001964
  L 280.000000 162.826313
  L 284.000000 162.452331
  L 288.000000 163.019287
  L 292.000000 163.254540
  L 296.000000 163.660003
  L 300.000000 162.768099
  L 304.000000 162.467550
  L 308.000000 162.683909
  L 312.000000 162.412023
  L 316.000000 161.693769
  L 320.000000 161.479866
  L 324.000000 161.251135
  L 328.000000 161.189366
  L 332.000000 160.477577
  L 336.000000 162.408893
  L 340.000000 161.857607
  L 344.000000 162.562448
  L 348.000000 161.212381
  L 352.000000 161.946483
  L 356.000000 160.635535
  L 360.000000 159.748941
  L 364.000000 159.613886
  L 368.000000 160.673640
  L 372.000000 160.142569
  L 376.000000 161.530658
  L 380.000000 160.463484
  L 384.000000 159.694446
  L 388.000000 160.626410
  L 392.000000 162.009142
  L 396.000000 159.893642
  L 400.000000 158.940162
  L 404.000000 159.081723
  L 408.000000 157.281694
  L 412.000000 159.662621
  L 416.000000 160.843563
  L 420.000000 159.816900
  L 424.000000 159.432194
  L 428.000000 161.133549
  L 432.000000 159.722414
  L 436.000000 160.116081
  L 440.000000 159.172986
  L 444.000000 158.589607
  L 448.000000 157.916008
  L 452.000000 158.704900
  L 456.000000 158.538008
  L 460.000000 159.486810
  L 464.000000 160.798347
  L 468.000000 160.335481
  L 472.000000 160.055480
  L 476.000000 160.127959
  L 480.000000 158.342993
  L 484.000000 156.056852
  L 488.000000 157.621931
  L 492.000000 156.307929
  L 496.000000 160.785171
  L 500.000000 155.801746
  L 504.000000 162.234539
  L 508.000000 155.811407
  L 512.000000 164.589173
  L 516.000000 154.700292
  L 520.000000 158.294421
  L 524.000000 156.597422
  L 528.000000 156.057146
  L 532.000000 154.639968
  L 536.000000 156.405256
  L 540.000000 155.893760
  L 544.000000 157.072015
  L 548.000000 148.251762
  L 552.000000 152.998970
  L 556.000000 150.030144
  L 560.000000 148.306728
  L 564.000000 134.089504
  L 568.000000 151.124221
  L 572.000000 155.506958
  L 576.000000 125.345343
  L 580.000000 105.231273
" stroke="rgb(248,118,109)" stroke-width="2" fill-opacity="0"/>
<path d="M 84.000000 549.969717
  L 88.000000 303.639318
  L 92.000000 218.772019
  L 96.000000 235.372352
  L 100.000000 219.693420
  L 104.000000 201.159978
  L 108.000000 199.824353
  L 112.000000 201.105913
  L 116.000000 201.783785
  L 120.000000 200.118215
  L 124.000000 200.004803
  L 128.000000 197.973756
  L 132.000000 195.047792
  L 136.000000 192.907573
  L 140.000000 189.874326
  L 144.000000 191.033061
  L 148.000000 189.291426
  L 152.000000 187.849365
  L 156.000000 189.390154
  L 160.000000 188.008617
  L 164.000000 185.942570
  L 168.000000 184.613444
  L 172.000000 183.991920
  L 176.000000 183.535567
  L 180.000000 181.953415
  L 184.000000 180.236554
  L 188.000000 182.405917
  L 192.000000 182.571594
  L 196.000000 181.173512
  L 200.000000 180.603151
  L 204.000000 179.511614
  L 208.000000 178.286314
  L 212.000000 176.823399
  L 216.000000 176.779884
  L 220.000000 175.374510
  L 224.000000 174.884609
  L 228.000000 174.995881
  L 232.000000 175.012925
  L 236.000000 173.519018
  L 240.000000 174.061105
  L 244.000000 171.435878
  L 248.000000 172.606429
  L 252.000000 172.135564
  L 256.000000 172.000121
  L 260.000000 169.870274
  L 264.000000 169.907772
  L 268.000000 169.183738
  L 272.000000 170.391812
  L 276.000000 171.036748
  L 280.000000 170.353352
  L 284.000000 168.755258
  L 288.000000 169.480686
  L 292.000000 169.391304
  L 296.000000 167.961752
  L 300.000000 166.628841
  L 304.000000 166.869027
  L 308.000000 166.696903
  L 312.000000 166.981676
  L 316.000000 167.448458
  L 320.000000 168.281524
  L 324.000000 168.077415
  L 328.000000 166.376289
  L 332.000000 166.851538
  L 336.000000 165.891918
  L 340.000000 165.321510
  L 344.000000 165.658981
  L 348.000000 165.766846
  L 352.000000 165.422865
  L 356.000000 166.088379
  L 360.000000 166.439379
  L 364.000000 164.919792
  L 368.000000 165.101352
  L 372.000000 165.632542
  L 376.000000 164.856069
  L 380.000000 164.718482
  L 384.000000 164.448040
  L 388.000000 163.805784
  L 392.000000 164.437480
  L 396.000000 165.706546
  L 400.000000 165.139295
  L 404.000000 165.878365
  L 408.000000 164.053548
  L 412.000000 163.681843
  L 416.000000 163.836534
  L 420.000000 163.278731
  L 424.000000 163.146352
  L 428.000000 162.569582
  L 432.000000 162.353583
  L 436.000000 163.227178
  L 440.000000 163.593664
  L 444.000000 164.713965
  L 448.000000 164.437896
  L 452.000000 164.824545
  L 456.000000 163.770222
  L 460.000000 162.479304
  L 464.000000 162.359669
  L 468.000000 162.267471
  L 472.000000 162.597899
  L 476.000000 162.751839
  L 480.000000 163.482568
  L 484.000000 163.950059
  L 488.000000 164.021359
  L 492.000000 163.931584
  L 496.000000 163.644777
  L 500.000000 163.759287
  L 504.000000 163.184378
  L 508.000000 162.643530
  L 512.000000 162.081084
  L 516.000000 163.120547
  L 520.000000 163.543090
  L 524.000000 163.739122
  L 528.000000 163.377116
  L 532.000000 163.251512
  L 536.000000 162.837699
  L 540.000000 162.577493
  L 544.000000 162.022178
  L 548.000000 162.216886
  L 552.000000 161.371348
  L 556.000000 162.122530
  L 560.000000 161.454858
  L 564.000000 161.830403
  L 568.000000 162.140481
  L 572.000000 162.420958
  L 576.000000 161.672298
  L 580.000000 161.507566
" stroke="rgb(0,191,196)" stroke-width="2" fill-opacity="0"/>
<text x="650" y="650" text-anchor="end">--OB 0,123,12,0</text>
<line x1="572.000000" y1="580" x2="572.000000" y2="80" stroke-dasharray="5 1" stroke="rgb(248,118,109)" stroke-width="1" />
<line x1="128.000000" y1="580" x2="128.000000" y2="80" stroke-dasharray="5 1" stroke="rgb(0,191,196)" stroke-width="1" />
<rect x="590" y="310" width="20" height="20" fill="rgb(248,118,109)" />
<text x="615" y="320" text-anchor="start" dominant-baseline="middle">#1</text>
<rect x="590" y="330" width="20" height="20" fill="rgb(0,191,196)" />
<text x="615" y="340" text-anchor="start" dominant-baseline="middle">#2</text>
</svg>
