<svg height="660" width="660"
    xmlns="http://www.w3.org/2000/svg"
    xmlns:xlink="http://www.w3.org/1999/xlink"
    xmlns:ev="http://www.w3.org/2001/xml-events">
<title>Original Bottom Strand</title>
<rect x="0" y="0" width="660" height="660" fill="white" />
<text x="330" y="20" text-anchor="middle">Original Bottom Strand</text>
<line x1="80" y1="80" x2="80" y2="580" stroke="black" />
<line x1="80" y1="580" x2="580" y2="580" stroke="black" />
<text x="15" y="330" transform="rotate(270 15, 330)" text-anchor="middle" dominant-baseline="text-before-edge">CpG Methylation %</text>
<text x="330" y="620" text-anchor="middle">Position along mapped read (5'->3' of + strand)</text>
<line x1="80" y1="580" x2="80" y2="585" stroke="black" />
<text x="80" y="600" text-anchor="middle">0</text>
<line x1="120.000000" y1="80" x2="120.000000" y2="580" stroke-dasharray="5 5" stroke="grey" />
<line x1="120.000000" y1="580" x2="120.000000" y2="585" stroke="black" />
<text x="120.000000" y="600" text-anchor="middle">10</text>
<line x1="160.000000" y1="80" x2="160.000000" y2="580" stroke-dasharray="5 5" stroke="grey" />
<line x1="160.000000" y1="580" x2="160.000000" y2="585" stroke="black" />
<text x="160.000000" y="600" text-anchor="middle">20</text>
<line x1="200.000000" y1="80" x2="200.000000" y2="580" stroke-dasharray="5 5" stroke="grey" />
<line x1="200.000000" y1="580" x2="200.000000" y2="585" stroke="black" />
<text x="200.000000" y="600" text-anchor="middle">30</text>
<line x1="240.000000" y1="80" x2="240.000000" y2="580" stroke-dasharray="5 5" stroke="grey" />
<line x1="240.000000" y1="580" x2="240.000000" y2="585" stroke="black" />
<text x="240.000000" y="600" text-anchor="middle">40</text>
<line x1="280.000000" y1="80" x2="280.000000" y2="580" stroke-dasharray="5 5" stroke="grey" />
<line x1="280.000000" y1="580" x2="280.000000" y2="585" stroke="black" />
<text x="280.000000" y="600" text-anchor="middle">50</text>
<line x1="320.000000" y1="80" x2="320.000000" y2="580" stroke-dasharray="5 5" stroke="grey" />
<line x1="320.000000" y1="580" x2="320.000000" y2="585" stroke="black" />
<text x="320.000000" y="600" text-anchor="middle">60</text>
<line x1="360.000000" y1="80" x2="360.000000" y2="580" stroke-dasharray="5 5" stroke="grey" />
<line x1="360.000000" y1="580" x2="360.000000" y2="585" stroke="black" />
<text x="360.000000" y="600" text-anchor="middle">70</text>
<line x1="400.000000" y1="80" x2="400.000000" y2="580" stroke-dasharray="5 5" stroke="grey" />
<line x1="400.000000" y1="580" x2="400.000000" y2="585" stroke="black" />
<text x="400.000000" y="600" text-anchor="middle">80</text>
<line x1="440.000000" y1="80" x2="440.000000" y2="580" stroke-dasharray="5 5" stroke="grey" />
<line x1="440.000000" y1="580" x2="440.000000" y2="585" stroke="black" />
<text x="440.000000" y="600" text-anchor="middle">90</text>
<line x1="480.000000" y1="80" x2="480.000000" y2="580" stroke-dasharray="5 5" stroke="grey" />
<line x1="480.000000" y1="580" x2="480.000000" y2="585" stroke="black" />
<text x="480.000000" y="600" text-anchor="middle">100</text>
<line x1="520.000000" y1="80" x2="520.000000" y2="580" stroke-dasharray="5 5" stroke="grey" />
<line x1="520.000000" y1="580" x2="520.000000" y2="585" stroke="black" />
<text x="520.000000" y="600" text-anchor="middle">110</text>
<line x1="560.000000" y1="80" x2="560.000000" y2="580" stroke-dasharray="5 5" stroke="grey" />
<line x1="560.000000" y1="580" x2="560.000000" y2="585" stroke="black" />
<text x="560.000000" y="600" text-anchor="middle">120</text>
<line x1="80" y1="580.000000" x2="75" y2="580.000000" stroke="black" />
<text x="55" y="580.000000" text-anchor="middle" dominant-baseline="middle">0.00</text>
<line x1="80" y1="546.666667" x2="75" y2="546.666667" stroke="black" />
<text x="55" y="546.666667" text-anchor="middle" dominant-baseline="middle">0.05</text>
<line x1="80" y1="513.333333" x2="75" y2="513.333333" stroke="black" />
<text x="55" y="513.333333" text-anchor="middle" dominant-baseline="middle">0.10</text>
<line x1="80" y1="480.000000" x2="75" y2="480.000000" stroke="black" />
<text x="55" y="480.000000" text-anchor="middle" dominant-baseline="middle">0.15</text>
<line x1="80" y1="446.666667" x2="75" y2="446.666667" stroke="black" />
<text x="55" y="446.666667" text-anchor="middle" dominant-baseline="middle">0.20</text>
<line x1="80" y1="413.333333" x2="75" y2="413.333333" stroke="black" />
<text x="55" y="413.333333" text-anchor="middle" dominant-baseline="middle">0.25</text>
<line x1="80" y1="380.000000" x2="75" y2="380.000000" stroke="black" />
<text x="55" y="380.000000" text-anchor="middle" dominant-baseline="middle">0.30</text>
<line x1="80" y1="346.666667" x2="75" y2="346.666667" stroke="black" />
<text x="55" y="346.666667" text-anchor="middle" dominant-baseline="middle">0.35</text>
<line x1="80" y1="313.333333" x2="75" y2="313.333333" stroke="black" />
<text x="55" y="313.333333" text-anchor="middle" dominant-baseline="middle">0.40</text>
<line x1="80" y1="280.000000" x2="75" y2="280.000000" stroke="black" />
<text x="55" y="280.000000" text-anchor="middle" dominant-baseline="middle">0.45</text>
<line x1="80" y1="246.666667" x2="75" y2="246.666667" stroke="black" />
<text x="55" y="246.666667" text-anchor="middle" dominant-baseline="middle">0.50</text>
<line x1="80" y1="213.333333" x2="75" y2="213.333333" stroke="black" />
<text x="55" y="213.333333" text-anchor="middle" dominant-baseline="middle">0.55</text>
<line x1="80" y1="180.000000" x2="75" y2="180.000000" stroke="black" />
<text x="55" y="180.000000" text-anchor="middle" dominant-baseline="middle">0.60</text>
<line x1="80" y1="146.666667" x2="75" y2="146.666667" stroke="black" />
<text x="55" y="146.666667" text-anchor="middle" dominant-baseline="middle">0.65</text>
<line x1="80" y1="113.333333" x2="75" y2="113.333333" stroke="black" />
<text x="55" y="113.333333" text-anchor="middle" dominant-baseline="middle">0.70</text>
<line x1="80" y1="80.000000" x2="75" y2="80.000000" stroke="black" />
<text x="55" y="80.000000" text-anchor="middle" dominant-baseline="middle">0.75</text>
<path d="M 84.000000 159.031565
  L 88.000000 171.331669
  L 92.000000 175.459416
  L 96.000000 175.144265
  L 100.000000 171.933219
  L 104.000000 172.584801
  L 108.000000 175.644983
  L 112.000000 174.845631
  L 116.000000 176.025525
  L 120.000000 175.328613
  L 124.000000 175.042136
  L 128.000000 175.393288
  L 132.000000 175.136019
  L 136.000000 175.793292
  L 140.000000 175.431505
  L 144.000000 174.833689
  L 148.000000 173.559539
  L 152.000000 173.759981
  L 156.000000 170.440754
  L 160.000000 171.327668
  L 164.000000 172.076489
  L 168.000000 172.133783
  L 172.000000 171.970681
  L 176.000000 172.695200
  L 180.000000 172.670165
  L 184.000000 172.323038
  L 188.000000 170.228499
  L 192.000000 170.058815
  L 196.000000 170.279242
  L 200.000000 169.944551
  L 204.000000 170.225469
  L 208.000000 170.354394
  L 212.000000 169.861574
  L 216.000000 170.377945
  L 220.000000 169.812512
  L 224.000000 170.068948
  L 228.000000 168.736529
  L 232.000000 169.248066
  L 236.000000 168.952139
  L 240.000000 168.234066
  L 244.000000 168.622988
  L 248.000000 168.898476
  L 252.000000 168.054308
  L 256.000000 168.297908
  L 260.000000 167.449137
  L 264.000000 168.677694
  L 268.000000 167.373469
  L 272.000000 168.700793
  L 276.000000 168.135134
  L 280.000000 167.124591
  L 284.000000 166.648713
  L 288.000000 167.345548
  L 292.000000 166.959456
  L 296.000000 167.072565
  L 300.000000 166.789043
  L 304.000000 166.788366
  L 308.000000 167.876390
  L 312.000000 167.154370
  L 316.000000 166.498827
  L 320.000000 166.479411
  L 324.000000 166.362877
  L 328.000000 166.229454
  L 332.000000 166.003622
  L 336.000000 167.139671
  L 340.000000 167.604855
  L 344.000000 167.449127
  L 348.000000 166.532711
  L 352.000000 166.651970
  L 356.000000 166.212104
  L 360.000000 165.786112
  L 364.000000 165.600928
  L 368.000000 166.095508
  L 372.000000 166.050633
  L 376.000000 166.985319
  L 380.000000 165.687134
  L 384.000000 165.506297
  L 388.000000 165.995987
  L 392.000000 166.434553
  L 396.000000 165.206223
  L 400.000000 163.963979
  L 404.000000 164.142544
  L 408.000000 163.868117
  L 412.000000 165.163185
  L 416.000000 166.932818
  L 420.000000 165.266747
  L 424.000000 164.973151
  L 428.000000 166.399087
  L 432.000000 164.653957
  L 436.000000 165.312676
  L 440.000000 164.558611
  L 444.000000 163.783170
  L 448.000000 164.840569
  L 452.000000 164.270335
  L 456.000000 164.198009
  L 460.000000 165.501456
  L 464.000000 165.535940
  L 468.000000 166.431174
  L 472.000000 164.922898
  L 476.000000 165.790908
  L 480.000000 163.463423
  L 484.000000 161.869745
  L 488.000000 163.157634
  L 492.000000 162.156189
  L 496.000000 165.772613
  L 500.000000 160.038496
  L 504.000000 167.522781
  L 508.000000 160.903123
  L 512.000000 170.749804
  L 516.000000 159.600461
  L 520.000000 162.869955
  L 524.000000 162.363620
  L 528.000000 161.891477
  L 532.000000 161.702321
  L 536.000000 161.617714
  L 540.000000 161.116152
  L 544.000000 160.050858
  L 548.000000 153.282824
  L 552.000000 157.945739
  L 556.000000 153.920616
  L 560.000000 150.907557
  L 564.000000 131.115228
  L 568.000000 151.715662
  L 572.000000 155.051309
  L 576.000000 116.121487
  L 580.000000 116.677056
  L 580.000000 115.005510
  L 576.000000 114.027874
  L 572.000000 153.062401
  L 568.000000 149.801329
  L 564.000000 129.251537
  L 560.000000 149.041280
  L 556.000000 151.963245
  L 552.000000 156.007217
  L 548.000000 151.398292
  L 544.000000 158.149840
  L 540.000000 159.230446
  L 536.000000 159.741999
  L 532.000000 159.829562
  L 528.000000 160.019426
  L 524.000000 160.485528
  L 520.000000 161.010647
  L 516.000000 157.752526
  L 512.000000 168.880609
  L 508.000000 159.047502
  L 504.000000 165.667479
  L 500.000000 158.202267
  L 496.000000 163.925999
  L 492.000000 160.332184
  L 488.000000 161.314930
  L 484.000000 160.042537
  L 480.000000 161.632288
  L 476.000000 163.945517
  L 472.000000 163.088144
  L 468.000000 164.579967
  L 464.000000 163.696611
  L 460.000000 163.665641
  L 456.000000 162.373988
  L 452.000000 162.439169
  L 448.000000 162.998082
  L 444.000000 161.946885
  L 440.000000 162.720850
  L 436.000000 163.473271
  L 432.000000 162.828024
  L 428.000000 164.555129
  L 424.000000 163.147436
  L 420.000000 163.432006
  L 416.000000 165.086058
  L 412.000000 163.326848
  L 408.000000 162.040746
  L 404.000000 162.310561
  L 400.000000 162.133179
  L 396.000000 163.365916
  L 392.000000 164.598998
  L 388.000000 164.169236
  L 384.000000 163.676269
  L 380.000000 163.853740
  L 376.000000 165.139059
  L 372.000000 164.208397
  L 368.000000 164.257508
  L 364.000000 163.761590
  L 360.000000 163.944879
  L 356.000000 164.372835
  L 352.000000 164.815547
  L 348.000000 164.701493
  L 344.000000 165.612884
  L 340.000000 165.771975
  L 336.000000 165.305188
  L 332.000000 164.175943
  L 328.000000 164.395695
  L 324.000000 164.523780
  L 320.000000 164.642949
  L 316.000000 164.661019
  L 312.000000 165.323392
  L 308.000000 166.038101
  L 304.000000 164.953604
  L 300.000000 164.950747
  L 296.000000 165.241636
  L 292.000000 165.129388
  L 288.000000 165.507290
  L 284.000000 164.820716
  L 280.000000 165.284803
  L 276.000000 166.295133
  L 272.000000 166.858586
  L 268.000000 165.541320
  L 264.000000 166.840180
  L 260.000000 165.620814
  L 256.000000 166.462686
  L 252.000000 166.224122
  L 248.000000 167.065153
  L 244.000000 166.777794
  L 240.000000 166.390085
  L 236.000000 167.110599
  L 232.000000 167.405401
  L 228.000000 166.901136
  L 224.000000 168.223076
  L 220.000000 167.976766
  L 216.000000 168.534240
  L 212.000000 168.023506
  L 208.000000 168.508081
  L 204.000000 168.383116
  L 200.000000 168.098641
  L 196.000000 168.430798
  L 192.000000 168.222915
  L 188.000000 168.385868
  L 184.000000 170.467763
  L 180.000000 170.811483
  L 176.000000 170.833781
  L 172.000000 170.123687
  L 168.000000 170.280768
  L 164.000000 170.231339
  L 160.000000 169.484115
  L 156.000000 168.607756
  L 152.000000 171.899707
  L 148.000000 171.703185
  L 144.000000 172.976457
  L 140.000000 173.582381
  L 136.000000 173.933653
  L 132.000000 173.284902
  L 128.000000 173.544117
  L 124.000000 173.190500
  L 120.000000 173.468749
  L 116.000000 174.189453
  L 112.000000 173.017313
  L 108.000000 173.811526
  L 104.000000 170.784754
  L 100.000000 170.147199
  L 96.000000 173.352535
  L 92.000000 173.680495
  L 88.000000 169.592694
  L 84.000000 157.167105
Z" fill="rgb(248,118,109)" fill-opacity="0.2"/>
<path d="M 84.000000 517.011520
  L 88.000000 280.967508
  L 92.000000 199.522027
  L 96.000000 224.894271
  L 100.000000 207.759316
  L 104.000000 187.728094
  L 108.000000 191.180537
  L 112.000000 193.154814
  L 116.000000 197.320279
  L 120.000000 195.408400
  L 124.000000 194.828510
  L 128.000000 192.725117
  L 132.000000 190.730306
  L 136.000000 188.863875
  L 140.000000 185.254616
  L 144.000000 186.884202
  L 148.000000 184.685359
  L 152.000000 183.549634
  L 156.000000 185.411367
  L 160.000000 184.974799
  L 164.000000 181.560013
  L 168.000000 180.801705
  L 172.000000 180.839368
  L 176.000000 179.682836
  L 180.000000 179.784578
  L 184.000000 177.325129
  L 188.000000 179.086087
  L 192.000000 179.879935
  L 196.000000 178.867151
  L 200.000000 178.516900
  L 204.000000 177.367023
  L 208.000000 175.940267
  L 212.000000 174.114714
  L 216.000000 175.521458
  L 220.000000 174.300238
  L 224.000000 173.618673
  L 228.000000 173.032846
  L 232.000000 174.014868
  L 236.000000 172.302329
  L 240.000000 173.072267
  L 244.000000 172.116191
  L 248.000000 172.315917
  L 252.000000 172.790709
  L 256.000000 172.505720
  L 260.000000 170.738638
  L 264.000000 170.360471
  L 268.000000 169.564418
  L 272.000000 171.312069
  L 276.000000 171.866353
  L 280.000000 171.240336
  L 284.000000 170.606117
  L 288.000000 170.473521
  L 292.000000 171.179298
  L 296.000000 170.111359
  L 300.000000 169.305044
  L 304.000000 168.888212
  L 308.000000 168.650767
  L 312.000000 169.466086
  L 316.000000 169.966695
  L 320.000000 169.995689
  L 324.000000 170.074853
  L 328.000000 169.538435
  L 332.000000 169.445641
  L 336.000000 168.836864
  L 340.000000 167.706804
  L 344.000000 168.971842
  L 348.000000 169.670173
  L 352.000000 169.339528
  L 356.000000 169.080408
  L 360.000000 169.209863
  L 364.000000 168.718667
  L 368.000000 169.213059
  L 372.000000 168.864888
  L 376.000000 168.933954
  L 380.000000 168.717112
  L 384.000000 168.419598
  L 388.000000 167.962846
  L 392.000000 168.991379
  L 396.000000 168.852234
  L 400.000000 170.022708
  L 404.000000 169.639136
  L 408.000000 169.300097
  L 412.000000 168.545724
  L 416.000000 169.146699
  L 420.000000 168.384114
  L 424.000000 168.974888
  L 428.000000 167.744318
  L 432.000000 168.239350
  L 436.000000 169.504380
  L 440.000000 169.376838
  L 444.000000 170.492237
  L 448.000000 170.286596
  L 452.000000 170.325409
  L 456.000000 170.013684
  L 460.000000 168.676986
  L 464.000000 168.697635
  L 468.000000 168.749795
  L 472.000000 169.387475
  L 476.000000 169.400209
  L 480.000000 170.030676
  L 484.000000 170.319133
  L 488.000000 170.370806
  L 492.000000 170.476700
  L 496.000000 170.377616
  L 500.000000 170.621750
  L 504.000000 170.297364
  L 508.000000 169.510088
  L 512.000000 169.202905
  L 516.000000 170.040497
  L 520.000000 170.298368
  L 524.000000 170.784489
  L 528.000000 170.939835
  L 532.000000 171.158601
  L 536.000000 171.035324
  L 540.000000 170.004410
  L 544.000000 170.223804
  L 548.000000 170.290326
  L 552.000000 169.716687
  L 556.000000 169.169043
  L 560.000000 169.718452
  L 564.000000 169.628341
  L 568.000000 170.035281
  L 572.000000 169.658064
  L 576.000000 170.159079
  L 580.000000 169.602914
  L 580.000000 167.743360
  L 576.000000 168.300708
  L 572.000000 167.805227
  L 568.000000 168.182690
  L 564.000000 167.776874
  L 560.000000 167.866293
  L 556.000000 167.319236
  L 552.000000 167.867910
  L 548.000000 168.434647
  L 544.000000 168.370672
  L 540.000000 168.155596
  L 536.000000 169.180381
  L 532.000000 169.305204
  L 528.000000 169.087668
  L 524.000000 168.929985
  L 520.000000 168.443778
  L 516.000000 168.184629
  L 512.000000 167.354031
  L 508.000000 167.662471
  L 504.000000 168.447093
  L 500.000000 168.765188
  L 496.000000 168.525976
  L 492.000000 168.626164
  L 488.000000 168.519453
  L 484.000000 168.466214
  L 480.000000 168.180524
  L 476.000000 167.552532
  L 472.000000 167.537793
  L 468.000000 166.902951
  L 464.000000 166.858506
  L 460.000000 166.837600
  L 456.000000 168.169415
  L 452.000000 168.477523
  L 448.000000 168.439471
  L 444.000000 168.643833
  L 440.000000 167.533528
  L 436.000000 167.661407
  L 432.000000 166.398246
  L 428.000000 165.904094
  L 424.000000 167.133863
  L 420.000000 166.542748
  L 416.000000 167.305742
  L 412.000000 166.710209
  L 408.000000 167.463404
  L 404.000000 167.794439
  L 400.000000 168.180810
  L 396.000000 167.012633
  L 392.000000 167.150154
  L 388.000000 166.124669
  L 384.000000 166.577492
  L 380.000000 166.875965
  L 376.000000 167.097773
  L 372.000000 167.029063
  L 368.000000 167.372238
  L 364.000000 166.883124
  L 360.000000 167.368746
  L 356.000000 167.240678
  L 352.000000 167.494962
  L 348.000000 167.822752
  L 344.000000 167.127599
  L 340.000000 165.872301
  L 336.000000 167.001786
  L 332.000000 167.610529
  L 328.000000 167.697141
  L 324.000000 168.230522
  L 320.000000 168.151738
  L 316.000000 168.126438
  L 312.000000 167.625968
  L 308.000000 166.811395
  L 304.000000 167.049264
  L 300.000000 167.466199
  L 296.000000 168.269247
  L 292.000000 169.328103
  L 288.000000 168.623708
  L 284.000000 168.764918
  L 280.000000 169.401959
  L 276.000000 170.016836
  L 272.000000 169.463999
  L 268.000000 167.728747
  L 264.000000 168.511581
  L 260.000000 168.895330
  L 256.000000 170.655585
  L 252.000000 170.938941
  L 248.000000 170.471512
  L 244.000000 170.277165
  L 240.000000 171.223646
  L 236.000000 170.465106
  L 232.000000 172.162998
  L 228.000000 171.183156
  L 224.000000 171.765491
  L 220.000000 172.448364
  L 216.000000 173.667078
  L 212.000000 172.274700
  L 208.000000 174.087825
  L 204.000000 175.507000
  L 200.000000 176.647247
  L 196.000000 177.000367
  L 192.000000 178.009551
  L 188.000000 177.224857
  L 184.000000 175.471439
  L 180.000000 177.911591
  L 176.000000 177.828019
  L 172.000000 178.970090
  L 168.000000 178.930550
  L 164.000000 179.681036
  L 160.000000 183.082464
  L 156.000000 183.520981
  L 152.000000 181.674515
  L 148.000000 182.798945
  L 144.000000 184.984817
  L 140.000000 183.364548
  L 136.000000 186.964477
  L 132.000000 188.826105
  L 128.000000 190.822587
  L 124.000000 192.932733
  L 120.000000 193.515641
  L 116.000000 195.390633
  L 112.000000 191.212653
  L 108.000000 189.335638
  L 104.000000 185.839319
  L 100.000000 205.841182
  L 96.000000 222.907482
  L 92.000000 197.314061
  L 88.000000 279.224465
  L 84.000000 516.116539
Z" fill="rgb(0,191,196)" fill-opacity="0.2"/>
<path d="M 84.000000 158.098590
  L 88.000000 170.461635
  L 92.000000 174.569417
  L 96.000000 174.247851
  L 100.000000 171.039637
  L 104.000000 171.684202
  L 108.000000 174.727684
  L 112.000000 173.930898
  L 116.000000 175.106920
  L 120.000000 174.398090
  L 124.000000 174.115730
  L 128.000000 174.468120
  L 132.000000 174.209874
  L 136.000000 174.862887
  L 140.000000 174.506360
  L 144.000000 173.904480
  L 148.000000 172.630758
  L 152.000000 172.829239
  L 156.000000 169.523639
  L 160.000000 170.405276
  L 164.000000 171.153305
  L 168.000000 171.206661
  L 172.000000 171.046572
  L 176.000000 171.763875
  L 180.000000 171.740210
  L 184.000000 171.394786
  L 188.000000 169.306559
  L 192.000000 169.140244
  L 196.000000 169.354392
  L 200.000000 169.020967
  L 204.000000 169.303668
  L 208.000000 169.430611
  L 212.000000 168.941915
  L 216.000000 169.455469
  L 220.000000 168.894016
  L 224.000000 169.145384
  L 228.000000 167.818199
  L 232.000000 168.326100
  L 236.000000 168.030734
  L 240.000000 167.311432
  L 244.000000 167.699750
  L 248.000000 167.981184
  L 252.000000 167.138579
  L 256.000000 167.379660
  L 260.000000 166.534336
  L 264.000000 167.758302
  L 268.000000 166.456751
  L 272.000000 167.779051
  L 276.000000 167.214492
  L 280.000000 166.204046
  L 284.000000 165.734068
  L 288.000000 166.425772
  L 292.000000 166.043777
  L 296.000000 166.156455
  L 300.000000 165.869242
  L 304.000000 165.870335
  L 308.000000 166.956603
  L 312.000000 166.238237
  L 316.000000 165.579268
  L 320.000000 165.560526
  L 324.000000 165.442671
  L 328.000000 165.311920
  L 332.000000 165.089131
  L 336.000000 166.221782
  L 340.000000 166.687773
  L 344.000000 166.530360
  L 348.000000 165.616452
  L 352.000000 165.733106
  L 356.000000 165.291811
  L 360.000000 164.864831
  L 364.000000 164.680595
  L 368.000000 165.175849
  L 372.000000 165.128853
  L 376.000000 166.061533
  L 380.000000 164.769777
  L 384.000000 164.590625
  L 388.000000 165.081960
  L 392.000000 165.516121
  L 396.000000 164.285401
  L 400.000000 163.047906
  L 404.000000 163.225880
  L 408.000000 162.953760
  L 412.000000 164.244350
  L 416.000000 166.008781
  L 420.000000 164.348712
  L 424.000000 164.059633
  L 428.000000 165.476448
  L 432.000000 163.740327
  L 436.000000 164.392307
  L 440.000000 163.639058
  L 444.000000 162.864349
  L 448.000000 163.918652
  L 452.000000 163.354082
  L 456.000000 163.285333
  L 460.000000 164.582886
  L 464.000000 164.615611
  L 468.000000 165.504905
  L 472.000000 164.004854
  L 476.000000 164.867545
  L 480.000000 162.547177
  L 484.000000 160.955452
  L 488.000000 162.235593
  L 492.000000 161.243502
  L 496.000000 164.848638
  L 500.000000 159.119668
  L 504.000000 166.594472
  L 508.000000 159.974592
  L 512.000000 169.814568
  L 516.000000 158.675767
  L 520.000000 161.939596
  L 524.000000 161.423850
  L 528.000000 160.954728
  L 532.000000 160.765215
  L 536.000000 160.679127
  L 540.000000 160.172557
  L 544.000000 159.099584
  L 548.000000 152.339739
  L 552.000000 156.975660
  L 556.000000 152.941053
  L 560.000000 149.973591
  L 564.000000 130.182345
  L 568.000000 150.757633
  L 572.000000 154.055961
  L 576.000000 115.073143
  L 580.000000 115.840311
" stroke="rgb(248,118,109)" stroke-width="2" fill-opacity="0"/>
<path d="M 84.000000 516.565442
  L 88.000000 280.096218
  L 92.000000 198.417504
  L 96.000000 223.900673
  L 100.000000 206.799914
  L 104.000000 186.783210
  L 108.000000 190.257643
  L 112.000000 192.183258
  L 116.000000 196.355025
  L 120.000000 194.461589
  L 124.000000 193.880184
  L 128.000000 191.773392
  L 132.000000 189.777727
  L 136.000000 187.913684
  L 140.000000 184.309062
  L 144.000000 185.934000
  L 148.000000 183.741630
  L 152.000000 182.611549
  L 156.000000 184.465656
  L 160.000000 184.028109
  L 164.000000 180.619978
  L 168.000000 179.865579
  L 172.000000 179.904182
  L 176.000000 178.754879
  L 180.000000 178.847526
  L 184.000000 176.397716
  L 188.000000 178.154914
  L 192.000000 178.944187
  L 196.000000 177.933196
  L 200.000000 177.581506
  L 204.000000 176.436440
  L 208.000000 175.013466
  L 212.000000 173.194119
  L 216.000000 174.593683
  L 220.000000 173.373707
  L 224.000000 172.691481
  L 228.000000 172.107397
  L 232.000000 173.088336
  L 236.000000 171.383115
  L 240.000000 172.147353
  L 244.000000 171.196073
  L 248.000000 171.393108
  L 252.000000 171.864217
  L 256.000000 171.580043
  L 260.000000 169.816364
  L 264.000000 169.435398
  L 268.000000 168.645957
  L 272.000000 170.387415
  L 276.000000 170.940980
  L 280.000000 170.320535
  L 284.000000 169.684897
  L 288.000000 169.547987
  L 292.000000 170.253078
  L 296.000000 169.189678
  L 300.000000 168.384991
  L 304.000000 167.968104
  L 308.000000 167.730445
  L 312.000000 168.545397
  L 316.000000 169.045941
  L 320.000000 169.073086
  L 324.000000 169.152060
  L 328.000000 168.617158
  L 332.000000 168.527458
  L 336.000000 167.918693
  L 340.000000 166.788911
  L 344.000000 168.049084
  L 348.000000 168.745829
  L 352.000000 168.416611
  L 356.000000 168.159910
  L 360.000000 168.288672
  L 364.000000 167.800262
  L 368.000000 168.292016
  L 372.000000 167.946343
  L 376.000000 168.015231
  L 380.000000 167.795901
  L 384.000000 167.497904
  L 388.000000 167.043115
  L 392.000000 168.070131
  L 396.000000 167.931799
  L 400.000000 169.101133
  L 404.000000 168.716156
  L 408.000000 168.381122
  L 412.000000 167.627331
  L 416.000000 168.225587
  L 420.000000 167.462790
  L 424.000000 168.053741
  L 428.000000 166.823561
  L 432.000000 167.318157
  L 436.000000 168.582262
  L 440.000000 168.454550
  L 444.000000 169.567409
  L 448.000000 169.362406
  L 452.000000 169.400838
  L 456.000000 169.090922
  L 460.000000 167.756657
  L 464.000000 167.777434
  L 468.000000 167.825732
  L 472.000000 168.461997
  L 476.000000 168.475735
  L 480.000000 169.104968
  L 484.000000 169.392043
  L 488.000000 169.444500
  L 492.000000 169.550804
  L 496.000000 169.451167
  L 500.000000 169.692839
  L 504.000000 169.371599
  L 508.000000 168.585645
  L 512.000000 168.277830
  L 516.000000 169.111928
  L 520.000000 169.370441
  L 524.000000 169.856609
  L 528.000000 170.013127
  L 532.000000 170.231279
  L 536.000000 170.107227
  L 540.000000 169.079372
  L 544.000000 169.296606
  L 548.000000 169.361853
  L 552.000000 168.791665
  L 556.000000 168.243500
  L 560.000000 168.791737
  L 564.000000 168.701972
  L 568.000000 169.108352
  L 572.000000 168.731008
  L 576.000000 169.229257
  L 580.000000 168.672495
" stroke="rgb(0,191,196)" stroke-width="2" fill-opacity="0"/>
<text x="650" y="650" text-anchor="end">--OB 0,120,6,0</text>
<line x1="560.000000" y1="580" x2="560.000000" y2="80" stroke-dasharray="5 1" stroke="rgb(248,118,109)" stroke-width="1" />
<line x1="104.000000" y1="580" x2="104.000000" y2="80" stroke-dasharray="5 1" stroke="rgb(0,191,196)" stroke-width="1" />
<rect x="590" y="310" width="20" height="20" fill="rgb(248,118,109)" />
<text x="615" y="320" text-anchor="start" dominant-baseline="middle">#1</text>
<rect x="590" y="330" width="20" height="20" fill="rgb(0,191,196)" />
<text x="615" y="340" text-anchor="start" dominant-baseline="middle">#2</text>
</svg>
